<svg width="140" height="35" viewBox="0 0 140 35" fill="none" xmlns="http://www.w3.org/2000/svg">
<circle cx="17.5" cy="17.5" r="17.5" fill="white"/>
<path d="M47.0199 28V7.63636H55.1733C56.6714 7.63636 57.9209 7.85843 58.9219 8.30256C59.9228 8.74669 60.6752 9.36316 61.179 10.152C61.6828 10.9342 61.9347 11.8357 61.9347 12.8565C61.9347 13.652 61.7756 14.3513 61.4574 14.9545C61.1392 15.5511 60.7017 16.0417 60.1449 16.4261C59.5947 16.804 58.965 17.0724 58.2557 17.2315V17.4304C59.0313 17.4635 59.7571 17.6823 60.4332 18.0866C61.116 18.491 61.6695 19.0578 62.0938 19.7869C62.518 20.5095 62.7301 21.3712 62.7301 22.3722C62.7301 23.4527 62.4616 24.4171 61.9247 25.2656C61.3944 26.1075 60.6089 26.7737 59.5682 27.2642C58.5275 27.7547 57.2448 28 55.7202 28H47.0199ZM51.3253 24.4801H54.8352C56.035 24.4801 56.91 24.2514 57.4602 23.794C58.0104 23.33 58.2855 22.7135 58.2855 21.9446C58.2855 21.3812 58.1496 20.884 57.8778 20.4531C57.6061 20.0223 57.2183 19.6842 56.7145 19.4389C56.2173 19.1937 55.6241 19.071 54.9347 19.071H51.3253V24.4801ZM51.3253 16.1577H54.517C55.107 16.1577 55.6307 16.0549 56.0881 15.8494C56.5521 15.6373 56.9167 15.339 57.1818 14.9545C57.4536 14.5701 57.5895 14.1094 57.5895 13.5724C57.5895 12.8366 57.3277 12.2434 56.804 11.7926C56.2869 11.3419 55.5511 11.1165 54.5966 11.1165H51.3253V16.1577ZM75.2461 21.4972V12.7273H79.4819V28H75.4151V25.2259H75.256C74.9113 26.1207 74.338 26.84 73.5359 27.3835C72.7404 27.9271 71.7693 28.1989 70.6225 28.1989C69.6017 28.1989 68.7035 27.9669 67.9279 27.5028C67.1523 27.0388 66.5458 26.3793 66.1083 25.5241C65.6774 24.669 65.4587 23.6449 65.4521 22.4517V12.7273H69.6879V21.696C69.6945 22.5975 69.9364 23.3101 70.4137 23.8338C70.891 24.3575 71.5307 24.6193 72.3327 24.6193C72.8432 24.6193 73.3204 24.5033 73.7646 24.2713C74.2087 24.0327 74.5666 23.6813 74.8384 23.2173C75.1168 22.7533 75.2527 22.1799 75.2461 21.4972ZM82.87 28V12.7273H87.1058V28H82.87ZM84.9979 10.7585C84.3681 10.7585 83.8279 10.5497 83.3771 10.1321C82.933 9.70786 82.7109 9.20076 82.7109 8.61079C82.7109 8.02746 82.933 7.52699 83.3771 7.10938C83.8279 6.68513 84.3681 6.47301 84.9979 6.47301C85.6276 6.47301 86.1645 6.68513 86.6087 7.10938C87.0594 7.52699 87.2848 8.02746 87.2848 8.61079C87.2848 9.20076 87.0594 9.70786 86.6087 10.1321C86.1645 10.5497 85.6276 10.7585 84.9979 10.7585ZM94.7347 7.63636V28H90.4989V7.63636H94.7347ZM103.756 28.2486C102.596 28.2486 101.545 27.9503 100.604 27.3537C99.669 26.7505 98.9266 25.8655 98.3764 24.6989C97.8329 23.5256 97.5611 22.0871 97.5611 20.3835C97.5611 18.6335 97.8428 17.1785 98.4062 16.0185C98.9697 14.8518 99.7188 13.9801 100.653 13.4034C101.595 12.8201 102.625 12.5284 103.746 12.5284C104.601 12.5284 105.313 12.6742 105.884 12.9659C106.46 13.2509 106.924 13.6089 107.276 14.0398C107.634 14.464 107.905 14.8816 108.091 15.2926H108.22V7.63636H112.446V28H108.27V25.554H108.091C107.892 25.9782 107.61 26.3991 107.246 26.8168C106.888 27.2277 106.42 27.5691 105.844 27.8409C105.274 28.1127 104.578 28.2486 103.756 28.2486ZM105.098 24.8778C105.781 24.8778 106.357 24.6922 106.828 24.321C107.305 23.9432 107.67 23.4162 107.922 22.7401C108.18 22.0639 108.31 21.2718 108.31 20.3636C108.31 19.4555 108.184 18.6667 107.932 17.9972C107.68 17.3277 107.315 16.8106 106.838 16.446C106.361 16.0814 105.781 15.8991 105.098 15.8991C104.402 15.8991 103.815 16.0881 103.338 16.4659C102.861 16.8437 102.5 17.3674 102.254 18.0369C102.009 18.7064 101.886 19.482 101.886 20.3636C101.886 21.2519 102.009 22.0374 102.254 22.7202C102.506 23.3963 102.867 23.9266 103.338 24.3111C103.815 24.6889 104.402 24.8778 105.098 24.8778ZM122.829 28.2983C121.285 28.2983 119.949 27.9702 118.822 27.3139C117.702 26.651 116.837 25.7296 116.227 24.5497C115.617 23.3632 115.312 21.9877 115.312 20.4233C115.312 18.8456 115.617 17.4669 116.227 16.2869C116.837 15.1004 117.702 14.179 118.822 13.5227C119.949 12.8598 121.285 12.5284 122.829 12.5284C124.374 12.5284 125.706 12.8598 126.826 13.5227C127.953 14.179 128.822 15.1004 129.431 16.2869C130.041 17.4669 130.346 18.8456 130.346 20.4233C130.346 21.9877 130.041 23.3632 129.431 24.5497C128.822 25.7296 127.953 26.651 126.826 27.3139C125.706 27.9702 124.374 28.2983 122.829 28.2983ZM122.849 25.017C123.552 25.017 124.138 24.8182 124.609 24.4205C125.08 24.0161 125.434 23.4659 125.673 22.7699C125.918 22.0739 126.041 21.2817 126.041 20.3935C126.041 19.5052 125.918 18.7131 125.673 18.017C125.434 17.321 125.08 16.7708 124.609 16.3665C124.138 15.9621 123.552 15.7599 122.849 15.7599C122.14 15.7599 121.543 15.9621 121.059 16.3665C120.582 16.7708 120.221 17.321 119.975 18.017C119.737 18.7131 119.618 19.5052 119.618 20.3935C119.618 21.2817 119.737 22.0739 119.975 22.7699C120.221 23.4659 120.582 24.0161 121.059 24.4205C121.543 24.8182 122.14 25.017 122.849 25.017ZM135.576 28.2585C134.92 28.2585 134.357 28.0265 133.886 27.5625C133.422 27.0919 133.19 26.5284 133.19 25.8722C133.19 25.2225 133.422 24.6657 133.886 24.2017C134.357 23.7377 134.92 23.5057 135.576 23.5057C136.213 23.5057 136.77 23.7377 137.247 24.2017C137.724 24.6657 137.963 25.2225 137.963 25.8722C137.963 26.3097 137.85 26.7107 137.625 27.0753C137.406 27.4332 137.118 27.7216 136.76 27.9403C136.402 28.1525 136.007 28.2585 135.576 28.2585Z" fill="white"/>
<path d="M18.6596 25.088C17.7423 25.088 16.8143 24.928 15.8756 24.608C14.9583 24.3307 14.4996 23.9467 14.4996 23.456C14.4996 23.4133 14.521 23.392 14.5636 23.392L14.7556 23.456C15.2463 23.776 15.865 23.936 16.6116 23.936C18.425 23.936 20.025 23.4987 21.4116 22.624C22.777 21.7707 23.4596 20.9387 23.4596 20.128C23.4596 19.296 22.9156 18.6133 21.8276 18.08C21.2303 17.7813 20.633 17.568 20.0356 17.44C19.4596 17.312 18.9156 17.248 18.4036 17.248C17.5503 17.248 16.857 17.3653 16.3236 17.6C16.1103 17.5787 16.0036 17.44 16.0036 17.184C16.0036 16.8853 16.2276 16.672 16.6756 16.544L17.6996 16.384C20.0676 15.744 21.913 14.9227 23.2356 13.92C24.5583 12.896 25.2196 11.7547 25.2196 10.496C25.2196 9.87733 24.8676 9.376 24.1636 8.992C23.4596 8.608 22.393 8.416 20.9636 8.416C19.5556 8.416 18.3716 8.544 17.4116 8.8C16.9423 8.90667 16.3236 9.088 15.5556 9.344C14.809 9.57867 13.8703 9.888 12.7396 10.272C10.585 10.9973 9.46496 11.36 9.37963 11.36C9.01696 11.36 8.83563 11.104 8.83563 10.592C8.83563 10.3573 8.91029 10.208 9.05963 10.144C13.0703 8.544 16.9316 7.744 20.6436 7.744C24.9316 7.744 27.0756 8.78933 27.0756 10.88C27.0756 11.9893 26.3183 13.1093 24.8036 14.24C24.057 14.7947 23.2143 15.2747 22.2756 15.68C21.3583 16.0853 20.345 16.4267 19.2356 16.704C20.8783 16.832 22.1903 17.248 23.1716 17.952C24.153 18.6347 24.6436 19.5733 24.6436 20.768C24.6436 21.92 24.0463 22.9333 22.8516 23.808C21.6783 24.6613 20.281 25.088 18.6596 25.088ZM11.7796 27.104C11.417 27.104 11.097 26.816 10.8196 26.24C10.5636 25.664 10.4356 24.992 10.4356 24.224C10.4356 21.4293 11.9823 17.4293 15.0756 12.224C15.9716 10.5387 16.569 9.696 16.8676 9.696C17.1663 9.696 17.4863 9.77067 17.8276 9.92C18.169 10.048 18.3396 10.176 18.3396 10.304C18.3396 10.3253 18.329 10.3573 18.3076 10.4C13.6996 17.0773 11.3956 22.016 11.3956 25.216C11.3956 25.6213 11.481 26.016 11.6516 26.4C11.8223 26.784 11.929 26.976 11.9716 26.976C11.929 27.0613 11.865 27.104 11.7796 27.104Z" fill="black"/>
</svg>
