<svg width="111" height="74" viewBox="0 0 111 74" fill="none" xmlns="http://www.w3.org/2000/svg">
<g clip-path="url(#clip0_83_733)">
<path d="M103.6 74H7.4C5.4374 74 3.55518 73.2204 2.16741 71.8326C0.779641 70.4448 0 68.5626 0 66.6L0 7.4C0 5.4374 0.779641 3.55518 2.16741 2.16741C3.55518 0.779641 5.4374 0 7.4 0L103.6 0C105.563 0 107.445 0.779641 108.833 2.16741C110.22 3.55518 111 5.4374 111 7.4V66.6C111 68.5626 110.22 70.4448 108.833 71.8326C107.445 73.2204 105.563 74 103.6 74ZM85.6951 52.0775V55.5C86.1853 55.5678 86.7496 55.6079 87.3231 55.6079H87.3724C91.6706 55.6079 93.7087 53.9367 95.4662 48.988L103.218 27.2505H98.7345L93.536 44.0423H93.4435L88.245 27.2505H83.6323L91.1094 47.9489L90.7086 49.2069C90.5717 50.0779 90.1125 50.8657 89.422 51.4139C88.7315 51.9622 87.8602 52.231 86.9808 52.1669H86.9932C86.5608 52.1489 86.1289 52.1191 85.6982 52.0775H85.6951ZM17.6151 24.8332H17.5349C16.2368 24.8685 14.97 25.2396 13.8579 25.9102C12.7459 26.5808 11.8265 27.528 11.1894 28.6596L11.1709 28.6966C8.56858 33.1736 10.2243 40.0247 13.1042 44.1965C14.4547 46.1698 15.9347 48.1 17.8864 48.1H17.9912C18.8083 48.0476 19.5637 47.8348 20.2452 47.4926L20.2112 47.508C21.0345 47.0948 22.0027 46.8512 23.0263 46.842C24.0161 46.8482 24.9534 47.0887 25.7767 47.508L25.7428 47.4926C26.4057 47.8379 27.1858 48.0476 28.0152 48.0661H28.1046C30.2783 48.026 31.6412 46.0311 32.8467 44.2736C33.707 43.0279 34.4192 41.5942 34.9187 40.0617L34.9527 39.9446V39.9137L34.8972 39.8891C33.6937 39.3493 32.6707 38.475 31.9502 37.3701C31.2297 36.2653 30.842 34.9766 30.8333 33.6577V33.6546C30.844 32.4898 31.1475 31.3463 31.716 30.3296C32.2844 29.3128 33.0995 28.4554 34.0863 27.8363L34.114 27.8209L34.1695 27.7839C33.5364 26.8652 32.6954 26.1088 31.715 25.5763C30.7346 25.0438 29.6423 24.7501 28.527 24.7191H28.1909C26.8685 24.786 25.5714 25.1074 24.3707 25.6657L24.4354 25.6379C23.8692 25.9111 23.2619 26.0892 22.6378 26.1652L22.6101 26.1683C21.9388 26.0975 21.2854 25.9086 20.6799 25.6102L20.7138 25.6256C19.7495 25.1657 18.706 24.8947 17.6397 24.827H17.6151V24.8332ZM73.4635 30.4325C76.1768 30.4325 77.6753 31.7028 77.6753 34.0061V35.5755L72.1685 35.9023C67.0039 36.2137 64.2752 38.3073 64.2752 41.9549C64.2842 42.8325 64.4784 43.6983 64.8451 44.4956C65.2118 45.293 65.7428 46.0039 66.4032 46.5819C67.0636 47.16 67.8385 47.5921 68.6774 47.8499C69.5163 48.1078 70.4002 48.1857 71.2712 48.0784L71.2404 48.0815L71.4408 48.0846C74.1202 48.0846 76.4636 46.6416 77.7339 44.4863L77.7524 44.4524H77.8449V47.8503H81.9303V33.7101C81.9303 29.6092 78.6589 26.9637 73.5961 26.9637C68.9279 26.9637 65.4561 29.6401 65.3173 33.3247H69.2948C69.5275 32.4184 70.0795 31.6265 70.8493 31.0946C71.6191 30.5627 72.5551 30.3265 73.4851 30.4294L73.4666 30.4263L73.4635 30.4325ZM43.1667 19.4373V47.8533H47.5789V38.1347H53.6747C54.9307 38.2014 56.1869 38.0051 57.3626 37.5582C58.5384 37.1114 59.6078 36.4238 60.5025 35.5397C61.3971 34.6555 62.0971 33.5942 62.5578 32.4238C63.0184 31.2533 63.2295 29.9996 63.1775 28.7428V28.7613C63.2322 27.5181 63.0268 26.2771 62.5745 25.1178C62.1221 23.9585 61.4328 22.9064 60.5505 22.0288C59.6682 21.1512 58.6125 20.4674 57.4508 20.0211C56.2891 19.5749 55.0471 19.3761 53.8042 19.4373H53.8258H43.1667ZM28.5301 17.2667C26.7674 17.4337 25.1366 18.2728 23.976 19.61L23.9698 19.6192C23.3923 20.2666 22.95 21.0229 22.6689 21.8436C22.3877 22.6643 22.2734 23.5329 22.3326 24.3984V24.3799C22.4374 24.3799 22.5484 24.3922 22.6717 24.3922C23.4933 24.3476 24.2963 24.1305 25.0284 23.7549C25.7604 23.3793 26.4052 22.8537 26.9206 22.2123L26.9298 22.2C28.0941 20.8217 28.6699 19.041 28.5332 17.242V17.2636L28.5301 17.2667ZM72.4244 44.7114C70.0872 44.7114 68.5733 43.586 68.5733 41.847C68.5733 40.0525 70.0225 39.0196 72.7667 38.8562L77.6692 38.5478V40.1542C77.6419 40.8059 77.4816 41.4451 77.198 42.0324C76.9144 42.6198 76.5136 43.1429 76.0202 43.5695C75.5269 43.9961 74.9515 44.3172 74.3293 44.5131C73.7072 44.7089 73.0516 44.7754 72.4028 44.7083L72.4244 44.7114ZM52.6356 34.4439H47.5666V23.1558H52.6541C53.4376 23.0485 54.2353 23.1177 54.9887 23.3581C55.7421 23.5986 56.4323 24.0043 57.0089 24.5457C57.5854 25.087 58.0337 25.7504 58.3211 26.4872C58.6084 27.224 58.7275 28.0157 58.6697 28.8045V28.786C58.7259 29.5789 58.604 30.3743 58.3129 31.114C58.0218 31.8537 57.5689 32.5188 56.9874 33.0607C56.4058 33.6026 55.7104 34.0076 54.9521 34.2458C54.1938 34.4841 53.3917 34.5497 52.6048 34.4377L52.6325 34.4408L52.6356 34.4439Z" fill="black"/>
</g>
<defs>
<clipPath id="clip0_83_733">
<rect width="111" height="74" fill="white"/>
</clipPath>
</defs>
</svg>
