<svg width="50" height="41" viewBox="0 0 50 41" fill="none" xmlns="http://www.w3.org/2000/svg">
<mask id="mask0_78_605" style="mask-type:luminance" maskUnits="userSpaceOnUse" x="-1" y="0" width="51" height="56">
<path d="M-9.89289e-05 44.2383L35.3116 55.8924L49.9244 11.6541L14.6126 -1.06517e-05L-9.89289e-05 44.2383Z" fill="white"/>
</mask>
<g mask="url(#mask0_78_605)">
<path fill-rule="evenodd" clip-rule="evenodd" d="M1.32738 43.5218C1.40465 43.5676 1.4321 43.5146 1.45796 43.4569C1.48951 43.4672 1.52199 43.4779 1.55448 43.4887C1.50876 43.5654 1.56168 43.5934 1.62024 43.6184C1.60951 43.6509 1.59878 43.6834 1.58805 43.7158C1.51094 43.6711 1.48365 43.7237 1.45779 43.7814C1.4253 43.7707 1.39281 43.76 1.36127 43.7496C1.40621 43.672 1.35313 43.6445 1.2952 43.6192C1.30593 43.5867 1.31665 43.5542 1.32738 43.5218ZM2.07381 43.5525C2.20707 43.549 2.29965 43.4648 2.49489 43.5835C2.43352 43.8372 2.09872 43.5483 2.07394 43.8762C1.88372 43.864 2.06895 43.6621 2.07381 43.5525ZM6.12273 42.406C5.76847 42.2787 5.87504 42.2058 5.5389 42.2133C5.74252 41.9763 5.35902 42.034 5.44068 41.8578C5.83419 41.9564 5.99568 42.1726 6.12273 42.406ZM6.60833 41.9191C6.57616 42.0166 6.54399 42.1139 6.51183 42.2114C6.38966 42.11 6.32568 41.9798 6.3155 41.8225C6.41297 41.8546 6.50996 41.8866 6.60833 41.9191ZM6.54134 41.4659C6.76369 41.6353 6.8893 41.6361 7.22309 41.6909C7.20213 41.9173 7.07893 41.9424 6.99725 42.0475C6.85556 41.9041 6.81122 41.6494 6.54195 41.7897C6.59598 41.6546 6.40905 41.6404 6.54134 41.4659ZM9.05201 40.8916C9.22291 41.0983 9.44954 41.016 9.71743 41.0031C9.62598 41.2105 9.95104 41.2097 9.91249 41.3911C9.63165 41.2092 9.55827 41.4392 9.42677 41.5544C9.25195 41.3453 8.81291 41.2694 8.87339 40.9406C8.97345 41.0029 8.97369 40.871 9.05201 40.8916ZM10.0751 41.2293C10.2489 41.3607 10.2635 41.1745 10.3983 41.2279C10.3615 41.3691 10.2025 41.2687 10.2054 41.4878C10.1404 41.4663 10.0754 41.4449 10.0109 41.4236C10.0324 41.3587 10.0538 41.2937 10.0751 41.2293ZM10.3646 40.3529C10.4659 40.4098 10.5094 40.4963 10.4947 40.6119C10.4297 40.5905 10.3647 40.5691 10.3002 40.5478C10.3216 40.4828 10.3432 40.4179 10.3646 40.3529ZM12.1781 40.0887C12.2435 40.1103 12.308 40.1316 12.3735 40.1532C12.3627 40.4007 12.1579 40.2621 12.1474 40.5102C12.083 40.489 12.018 40.4675 11.953 40.4461C11.963 40.1978 12.1678 40.3364 12.1781 40.0887ZM12.2135 40.9632C12.1228 40.9009 11.85 40.9303 11.9532 40.7697C12.0447 40.8323 12.3181 40.803 12.2135 40.9632ZM13.2777 39.0487C13.2562 39.1137 13.2348 39.1786 13.2136 39.2426C13.1117 39.186 13.0685 39.1002 13.0833 38.9845C13.1482 39.0059 13.2127 39.0272 13.2777 39.0487ZM13.2798 39.6966C13.2144 39.675 13.1499 39.6537 13.085 39.6323C13.1064 39.5673 13.1278 39.5023 13.1493 39.4374C13.3294 39.4551 13.3728 39.5415 13.2798 39.6966ZM14.8663 38.8172C15.0289 38.8166 14.9167 38.9539 14.8991 39.0436C14.7622 38.9316 14.8098 39.189 14.672 39.0767C14.7091 38.936 14.8682 39.036 14.8663 38.8172ZM16.5486 37.646C16.6816 37.4711 16.4936 37.4571 16.5476 37.322C16.6125 37.3435 16.6771 37.3647 16.7425 37.3863C16.6097 37.5606 16.7976 37.5752 16.7431 37.7101C16.6782 37.6887 16.6132 37.6672 16.5486 37.646ZM16.5468 36.9971C16.6816 37.0521 16.6962 36.8643 16.8712 36.9967C16.873 37.2159 16.7143 37.1161 16.6775 37.2558C16.5757 37.1988 16.5321 37.1128 16.5468 36.9971ZM16.1915 37.42C16.229 37.2257 16.3429 37.1845 16.4826 37.1915C16.3735 37.2437 16.3408 37.4484 16.1915 37.42ZM17.6463 36.2817C17.6849 36.141 17.842 36.2409 17.8413 36.0214C17.9431 36.0785 17.9862 36.1647 17.9713 36.2809C17.8353 36.2261 17.8219 36.4137 17.6463 36.2817ZM18.3909 35.6636C18.4937 35.8186 18.5948 35.8411 18.7154 35.6627C19.1048 35.9034 19.2792 35.7658 19.51 36.033C19.5702 36.0435 19.5805 35.9571 19.6078 35.9029C19.6143 35.8325 19.4995 35.8228 19.4282 35.7904C19.427 35.5713 19.5845 35.6713 19.6227 35.5305C19.7992 35.6441 19.8097 35.8417 20.0941 35.9021C20.1645 35.9087 20.1741 35.7929 20.2065 35.7232C20.3688 35.736 20.211 35.9105 20.4173 35.9008C20.6134 35.8334 20.7611 35.6692 20.9848 35.6559C20.9753 35.7447 20.9168 35.7353 20.8545 35.7215C20.7435 35.8586 21.0009 35.811 20.8883 35.9482C20.7509 35.836 20.7985 36.0934 20.6616 35.9815C20.5493 36.1192 20.8062 36.0703 20.6938 36.2081C20.8325 36.3207 20.7836 36.0629 20.9213 36.1752C20.9001 36.2397 20.8786 36.3046 20.8572 36.3695C20.6472 36.2987 20.5783 36.158 20.483 36.0305C20.3302 36.0333 20.4047 36.2536 20.4515 36.2889C20.4102 36.4485 20.2998 36.4732 20.176 36.4683C20.1975 36.4034 20.2188 36.3389 20.2402 36.274C20.0046 36.1274 19.9754 36.3927 19.7866 36.3399C19.791 36.216 19.767 36.1068 19.6084 36.0655C19.4981 36.0358 19.5189 36.2651 19.463 36.3411C19.2953 36.3035 19.1611 36.2498 19.1544 36.1311C19.0634 36.1914 18.9321 36.1732 18.912 36.3748C18.4574 36.3333 18.6953 35.9432 18.3266 35.858C18.3481 35.793 18.3694 35.7285 18.3909 35.6636ZM20.0743 34.8163C20.2545 34.8335 20.2978 34.9203 20.2045 35.0748C20.14 35.0535 20.075 35.0321 20.0101 35.0107C20.0315 34.9457 20.0528 34.8812 20.0743 34.8163ZM20.6601 35.6573C20.5454 35.5255 20.4025 35.4079 20.4969 35.1713C20.6836 35.2669 20.6074 35.4943 20.6601 35.6573ZM20.8852 34.9759C20.8638 35.0408 20.8424 35.1053 20.821 35.1702C20.756 35.1488 20.691 35.1274 20.626 35.1059C20.6831 35.0042 20.7694 34.9612 20.8852 34.9759ZM21.3369 34.2612C21.2597 34.3782 21.159 34.4457 20.9815 34.3605C21.0576 34.2436 21.1594 34.176 21.3369 34.2612ZM21.7586 34.2933C21.7278 34.6078 21.4995 34.5309 21.4684 34.8448C21.2636 34.7062 21.2522 34.9524 21.0473 34.8138C21.1853 34.6584 21.3262 34.5086 21.4348 34.2935C21.6094 34.4257 21.6235 34.2394 21.7586 34.2933ZM21.5022 35.3951C21.6966 35.4326 21.738 35.5475 21.7301 35.6869C21.6327 35.6547 21.5357 35.6227 21.4377 35.5904C21.4594 35.525 21.4808 35.46 21.5022 35.3951ZM22.0187 34.4862C21.9865 34.5836 21.9542 34.6815 21.922 34.7789C21.7448 34.7872 21.9364 34.6088 21.7592 34.6172C21.8166 34.5161 21.9032 34.4721 22.0187 34.4862ZM22.0522 35.0375C22.154 35.0945 22.1977 35.1804 22.183 35.2961C21.9776 35.1574 21.9662 35.4036 21.7614 35.265C21.8106 35.0955 22.003 35.207 22.0522 35.0375ZM22.2767 34.0322C22.4544 34.024 22.2613 34.202 22.44 34.1941C22.1966 34.5324 22.6377 34.5265 22.5703 34.7762C22.4738 34.7444 22.3759 34.7121 22.2794 34.6802C22.3227 34.5364 22.1775 34.4875 22.1642 34.3729C22.2719 34.1652 22.3484 34.2562 22.2767 34.0322ZM22.9559 33.6091C23.2041 33.6196 23.0654 33.8243 23.3135 33.8352C23.2186 34.0753 22.9013 33.8755 22.7309 33.966C22.7406 33.7187 22.9456 33.8568 22.9559 33.6091ZM21.0797 35.04C21.2018 35.1414 21.2661 35.2707 21.2756 35.4283C21.1545 35.3273 21.0892 35.1977 21.0797 35.04ZM19.4313 36.7627C19.4528 36.6978 19.4741 36.6333 19.4958 36.5675C19.5976 36.6245 19.6411 36.7109 19.6257 36.8269C19.5613 36.8056 19.4963 36.7842 19.4313 36.7627ZM18.9462 37.2498C18.9676 37.1849 18.9891 37.1199 19.0104 37.0554C19.1123 37.112 19.1553 37.1983 19.1416 37.3143C19.0756 37.2926 19.0116 37.2714 18.9462 37.2498ZM18.4926 37.3157C18.3018 37.3038 18.4881 37.1017 18.492 36.9919C18.6828 37.0037 18.497 37.206 18.4926 37.3157ZM24.3517 33.9612C24.2778 34.1389 24.1783 34.2615 24.0285 34.2868C24.1471 34.0164 24.1114 33.9456 23.8983 34.0282C23.9794 33.8681 24.1392 33.8614 24.3517 33.9612ZM25.9035 32.5308C25.8817 32.5966 25.8607 32.6602 25.8391 32.7256C25.7742 32.7042 25.7092 32.6827 25.6447 32.6614C25.7018 32.5597 25.7877 32.5161 25.9035 32.5308ZM26.9695 31.2636C26.9479 31.329 26.9266 31.3935 26.9051 31.4585C26.8033 31.4019 26.7595 31.3159 26.7746 31.1993C26.8396 31.2207 26.9045 31.2422 26.9695 31.2636ZM27.13 30.7779C27.1086 30.8424 27.0872 30.9074 27.0657 30.9723C27.0008 30.9508 26.9358 30.9294 26.8708 30.908C26.9279 30.8062 27.0142 30.7632 27.13 30.7779ZM28.0704 30.5486C28.2609 30.5598 28.0754 30.7627 28.0705 30.8723C27.8806 30.8607 28.066 30.6583 28.0704 30.5486ZM29.2359 29.962C29.0494 29.8659 29.125 29.6383 29.0721 29.4763C29.2912 29.4735 29.191 29.633 29.3325 29.6692C29.3004 29.7667 29.268 29.8646 29.2359 29.962ZM29.9148 29.5378C29.8354 29.7971 29.6926 29.6905 29.7863 29.927C29.7218 29.9058 29.6568 29.8843 29.5918 29.8629C29.6376 29.6327 29.7388 29.5095 29.9148 29.5378ZM31.9218 28.3656C31.9867 28.3871 32.0517 28.4085 32.1162 28.4298C32.1187 28.6498 31.9599 28.5489 31.923 28.6907C31.7315 28.6775 31.9186 28.4762 31.9218 28.3656ZM32.5713 28.688C32.4753 28.9282 32.1165 28.8098 32.1819 28.5595C32.3119 28.6024 32.4419 28.6453 32.5713 28.688ZM32.7932 27.0347C32.8145 26.9703 32.8361 26.9048 32.8574 26.8404C32.9597 26.8976 33.0027 26.9838 32.9881 27.0991C32.9236 27.0778 32.8586 27.0563 32.7932 27.0347ZM33.8945 26.3183C34.0746 26.336 34.1175 26.4227 34.0245 26.5778C33.96 26.5565 33.8945 26.5349 33.83 26.5137C33.8515 26.4487 33.8731 26.3833 33.8945 26.3183ZM35.2511 24.8245C35.316 24.8459 35.381 24.8674 35.446 24.8888C35.4247 24.9533 35.4033 25.0182 35.3818 25.0832C35.28 25.0261 35.2365 24.9397 35.2511 24.8245ZM35.6762 25.828C35.5428 26.0027 35.731 26.0163 35.6762 26.1521C35.536 26.1148 35.6356 25.9556 35.4166 25.9579C35.474 25.8568 35.5603 25.8138 35.6762 25.828ZM36.1587 24.3672C36.2553 24.3991 36.3531 24.4314 36.4497 24.4633C36.2425 24.73 36.7218 24.6512 36.516 24.9184C36.2744 24.918 36.413 24.7262 36.2074 24.7085C36.0228 24.7645 36.1215 25.0189 36.1277 25.1138C35.901 25.0922 35.8756 24.97 35.7701 24.8877C35.8944 24.7059 36.1013 24.6849 36.1587 24.3672ZM36.807 24.6903C36.9439 24.7563 36.8482 24.9403 36.905 25.0467C36.6971 24.9552 36.6985 25.2797 36.5171 25.2423C36.5928 25.0163 36.7755 25.0056 36.807 24.6903ZM37.098 24.4622C37.1496 24.5716 37.3551 24.6039 37.3263 24.7526C37.2289 24.7205 37.1315 24.6883 37.034 24.6561C37.0551 24.5921 37.0764 24.5276 37.098 24.4622ZM36.648 25.8247C36.5486 25.6859 36.3204 25.6116 36.3554 25.4045C36.5174 25.458 36.6794 25.5114 36.8418 25.565C36.8048 25.7058 36.6463 25.6054 36.648 25.8247ZM36.0651 25.9564C36.1222 25.8547 36.2085 25.8117 36.3244 25.8259C36.44 25.9027 36.508 26.0034 36.4222 26.1823C36.1948 26.161 36.1702 26.0381 36.0651 25.9564ZM37.8097 23.9424C38.0016 23.954 37.8143 24.1558 37.8113 24.266C37.6195 24.2538 37.8066 24.0525 37.8097 23.9424ZM38.4542 22.32C38.6693 22.3738 38.735 22.5035 38.6494 22.709C38.5819 22.5798 38.5165 22.4506 38.4542 22.32ZM38.1633 22.8717C38.0007 22.8723 38.113 22.7346 38.131 22.6455C38.1955 22.6668 38.2604 22.6882 38.3254 22.7096C38.3336 22.8872 38.1548 22.6936 38.1633 22.8717ZM39.0701 22.4152C39.1351 22.4367 39.1997 22.458 39.2646 22.4794C39.2672 22.699 39.1083 22.5985 39.0711 22.7397C38.8798 22.7277 39.0664 22.5246 39.0701 22.4152ZM39.8163 22.4454C39.6832 22.6207 39.8707 22.6346 39.8162 22.7695C39.7 22.7609 39.7778 22.6535 39.7029 22.6241C39.6372 22.6556 39.5722 22.688 39.5091 22.7225C39.4507 22.8457 39.7963 22.7666 39.6554 22.9325C39.4073 22.9216 39.5459 22.7169 39.2978 22.706C39.3544 22.3895 39.5272 22.3025 39.8163 22.4454ZM39.8788 21.6033C39.8573 21.6683 39.836 21.7327 39.8147 21.7972C39.7119 21.7403 39.6691 21.6547 39.6834 21.5388C39.7479 21.5601 39.8128 21.5816 39.8788 21.6033ZM40.4284 21.5692C40.4069 21.6341 40.386 21.6976 40.3642 21.7635C40.1707 21.7263 40.1294 21.6114 40.1374 21.4731C40.2339 21.505 40.3319 21.5373 40.4284 21.5692ZM40.1736 22.6709C39.9532 22.6743 40.0543 22.5151 39.9128 22.4773C40.0218 22.4255 40.0542 22.2212 40.2036 22.2496C40.1715 22.3471 40.1394 22.444 40.1072 22.5414C40.1962 22.552 40.1869 22.61 40.1736 22.6709ZM41.5279 20.2039C41.5487 20.1409 41.5706 20.0745 41.5921 20.0095C41.6939 20.0666 41.7377 20.1536 41.7233 20.2684C41.6578 20.2468 41.5928 20.2253 41.5279 20.2039ZM42.0159 20.6897C42.0233 20.8664 41.845 20.6744 41.853 20.8525C41.7514 20.7949 41.7085 20.7082 41.7231 20.593C41.821 20.6253 41.9175 20.6571 42.0159 20.6897ZM42.9162 17.9643C43.0457 18.007 43.1756 18.0499 43.3051 18.0926C43.2227 18.198 43.0996 18.2231 43.0784 18.45C42.8919 18.3555 42.9671 18.1277 42.9162 17.9643ZM41.9778 18.842C42.0787 18.7213 42.209 18.6557 42.3659 18.647C42.2648 18.7681 42.1351 18.8333 41.9778 18.842ZM40.8834 21.5022C40.8618 21.5676 40.8403 21.6326 40.8187 21.698C40.7538 21.6765 40.6888 21.6551 40.6233 21.6335C40.681 21.5315 40.7673 21.4884 40.8834 21.5022ZM1.31324 43.895C1.20024 43.9145 1.08613 43.928 0.972031 43.9447C1.0049 44.144 1.04387 44.3405 1.36296 44.3973C1.39458 44.3268 1.40382 44.2119 1.47534 44.2183C1.54474 44.2516 1.4812 44.3507 1.45947 44.4291C1.79049 44.4403 2.02202 44.2563 2.3674 44.2966C2.42331 44.2206 2.40306 43.9911 2.51275 44.021C2.58202 44.0674 2.50319 44.1875 2.67486 44.1831C2.83675 44.0992 2.99076 44.0029 3.07871 43.7762C3.00946 43.7439 2.89357 43.7344 2.90042 43.663C3.30289 43.6017 2.67334 43.0985 3.10904 43.0315C2.91433 43.3727 3.29126 43.4267 3.20928 43.7112C3.38292 43.8432 3.39807 43.6566 3.53228 43.7103C3.26667 43.8758 3.49274 44.0323 3.25901 44.2136C3.34366 44.3192 3.32874 44.4751 3.4707 44.5527C3.61943 44.4739 3.69372 44.2443 3.76045 44.0012C3.69122 43.9689 3.57532 43.9594 3.58217 43.888C3.59818 43.8396 3.61435 43.7906 3.63021 43.7426C3.84548 43.7959 3.91123 43.9257 3.82574 44.1308C3.98627 44.2343 3.9568 43.9616 4.01958 43.8711C3.68907 43.7668 3.74984 43.4658 3.69286 43.2242C3.90907 43.2778 3.97389 43.4072 3.88901 43.612C4.06359 43.7442 4.0778 43.5573 4.21295 43.6114C4.18358 43.8157 4.40739 43.8921 4.37645 44.0965C4.31148 44.075 4.24698 44.0537 4.18201 44.0323C4.16728 44.1479 4.2108 44.2343 4.3121 44.2912C4.44819 44.3456 4.46161 44.1579 4.63713 44.2905C4.69416 44.1131 4.4938 44.0652 4.42464 43.9506C4.90979 43.9598 4.63546 43.3202 4.72996 43.0263C4.39913 43.0303 4.53536 42.7997 4.40542 42.7031C4.27311 42.8776 4.46005 42.8917 4.40602 43.0269C4.2399 42.8864 4.31912 43.2315 4.19618 43.1737C4.05986 42.9288 3.71275 43.1608 3.48242 42.8843C3.70861 42.9188 3.77498 42.7669 3.69149 42.5755C3.89698 42.6063 3.97269 42.3818 4.17771 42.4124C4.42577 42.6352 4.51083 42.5531 4.9249 42.7665C4.91851 42.6719 4.81933 42.4174 5.00355 42.3608C4.9743 42.6058 5.24472 42.6993 5.44328 42.83C5.4992 42.754 5.47879 42.525 5.58878 42.5539C5.60792 42.6651 5.62204 42.7805 5.63774 42.8942C5.771 42.8907 5.865 42.8069 6.0593 42.9253C6.00289 43.0011 6.02377 43.2304 5.91346 43.2008C5.7077 43.1835 5.84717 42.9921 5.60571 42.9911C5.58426 43.0561 5.56281 43.121 5.54135 43.186C5.6174 43.2419 5.84657 43.2215 5.81709 43.3313C5.72807 43.3431 5.69391 43.4623 5.57461 43.4125C5.4918 43.2396 5.1594 43.1299 4.99079 43.2198C4.93716 43.3822 4.88337 43.5451 4.83005 43.7064C4.99937 43.7566 4.88718 43.9477 5.0576 43.9976C5.16888 43.8172 4.93042 43.6049 5.16937 43.4948C5.37663 43.4855 5.2183 43.6598 5.38046 43.6731C5.587 43.4145 6.38249 43.7267 6.1905 43.1841C6.35026 43.5652 6.64387 43.0571 6.7743 43.3768C6.99677 42.9816 6.60797 42.8924 6.46375 42.6809C6.51387 42.6192 6.48966 42.4113 6.59309 42.4538C6.64207 42.4699 6.69056 42.4859 6.73857 42.5018C6.64532 42.7382 6.78695 42.8564 6.90285 42.9877C6.89405 42.8104 7.07195 43.0022 7.06387 42.8257C7.11821 42.6897 6.9302 42.6757 7.06357 42.501C7.12809 42.5223 7.19309 42.5437 7.25803 42.5652C7.1961 42.4461 7.23954 42.0632 7.40231 41.9656C7.5764 41.9855 7.52863 42.119 7.59689 42.1922C7.52363 42.2322 7.42911 42.2338 7.41972 42.403C7.61291 42.3034 7.81002 42.2108 8.03417 42.1741C8.08942 42.0384 7.90122 42.0248 8.03448 41.8507C8.09851 41.8718 8.16399 41.8934 8.22893 41.9148C8.01863 42.169 8.4164 42.1171 8.43972 42.2537C8.3346 42.3396 8.2052 42.3788 8.00201 42.2716C7.9805 42.3365 7.95905 42.4015 7.93779 42.466C8.33785 42.5619 8.5158 42.2162 8.87803 42.2371C8.9102 42.1397 8.94225 42.0427 8.97472 41.9444C8.74213 42.1855 8.72381 41.8725 8.42339 41.979C8.44472 41.9145 8.46646 41.8486 8.48791 41.7837C8.89146 41.9404 9.07761 41.6662 9.3946 41.6518C9.48098 41.7711 9.6164 41.8654 9.8502 41.9102C9.90532 41.8335 9.88586 41.6046 9.99472 41.6338C10.2514 41.6804 10.0671 41.9489 10.3687 41.9733C10.3853 41.7935 10.4724 41.7497 10.6275 41.8427C10.7299 41.6291 10.7359 41.464 10.6906 41.3243C10.9075 41.433 10.9662 41.2253 11.2101 41.3877C11.2703 41.2213 11.0506 41.1973 11.1118 41.0311C11.2018 41.0494 11.3387 41.1614 11.3387 40.9986C11.1663 40.8519 11.0124 41.1471 10.9328 40.9184C11.1198 40.8313 11.162 40.4601 11.4015 40.4796C11.0919 40.3372 11.0753 40.0494 10.9786 39.7998C11.0357 39.6981 11.1219 39.655 11.2372 39.6696C11.1019 40.0081 11.2106 40.2245 11.5636 40.3175C11.4018 40.5877 11.7589 40.5975 11.598 40.868C11.8528 41.1035 12.304 41.2013 12.5374 40.9626C12.4388 40.8235 12.2109 40.7483 12.2449 40.5424C12.3099 40.5639 12.3748 40.5853 12.4394 40.6066C12.4832 40.512 12.2876 40.3373 12.4871 40.2977C12.5277 40.3722 12.5299 40.4668 12.6983 40.4755C12.8457 40.2396 12.5794 40.2113 12.6324 40.0221C12.8268 40.0596 12.8673 40.1742 12.8598 40.3137C13.0383 40.2494 13.1456 40.2848 13.2492 40.4422C13.3165 40.3048 13.4984 40.4008 13.6061 40.3434C13.6008 40.2488 13.5015 39.9947 13.6856 39.9385C13.7995 39.9761 13.9125 40.0134 14.0264 40.051C14.0769 39.8809 14.2674 39.9933 14.3178 39.8231C14.0541 39.7522 13.8093 39.673 13.9114 39.4191C14.0433 39.3849 14.1239 39.2502 14.2837 39.2721C14.4612 39.2644 14.2688 39.4421 14.4463 39.4344C14.4782 39.3092 14.5945 39.3523 14.6563 39.2871C14.664 39.406 14.7983 39.4592 14.965 39.497C15.1001 39.3615 15.2341 39.2262 15.3696 39.0908C15.4066 39.1939 15.5238 39.2565 15.4182 39.4305C15.3547 39.4096 15.2888 39.3878 15.2238 39.3663C15.2023 39.4313 15.1809 39.4962 15.1594 39.5612C15.3201 39.5046 15.5502 39.5842 15.7111 39.5272C15.7254 39.2355 15.9275 39.3131 15.9691 39.0732C16.0341 39.0946 16.0986 39.1159 16.1641 39.1375C16.2068 39.0081 16.25 38.8773 16.2925 38.7488C16.3829 38.7943 16.4103 38.7146 16.4706 38.6995C16.5108 38.7739 16.5133 38.8676 16.6818 38.8773C16.7383 38.5593 16.911 38.4727 17.2001 38.6156C17.2428 38.4862 17.2857 38.3563 17.3286 38.2264C17.6125 38.1463 17.927 38.1269 18.1051 37.836C17.9097 37.7178 17.8169 37.801 17.6835 37.8049C17.8879 37.5671 17.5038 37.6251 17.5854 37.449C17.8048 37.4457 17.7049 37.6042 17.8456 37.6413C17.9131 37.5352 17.9009 37.2686 18.023 37.2687C18.0282 37.4965 18.1582 37.6594 18.4616 37.7382C18.5833 37.6291 18.678 37.4688 18.8335 37.4282C18.9259 37.5307 18.87 37.708 19.11 37.7355C19.2466 37.5228 19.3961 37.3357 19.4645 36.9893C19.5559 37.0351 19.5827 36.9557 19.6421 36.9404C19.7182 36.9692 19.64 37.0764 19.7565 37.0856C19.8251 36.9789 19.8123 36.7126 19.9337 36.712C20.1414 36.7028 19.9826 36.8768 20.1457 36.8905C20.3155 36.6642 20.5452 36.5568 20.7756 36.4506C20.8513 36.4804 20.7727 36.5875 20.89 36.5959C21.0084 36.5108 21.103 36.3745 21.148 36.1419C21.4678 36.0779 21.7648 35.9692 22.088 35.9125C22.0481 35.8085 22.0281 35.4851 22.1997 35.4097C22.4065 35.4002 22.2488 35.5742 22.411 35.5875C22.5094 35.4065 22.8436 35.6942 22.8967 35.4242C22.8235 35.2711 22.9003 35.0433 22.9923 34.8075C22.7985 34.7701 22.7574 34.6558 22.7647 34.5168C22.8612 34.5486 22.9591 34.581 23.0565 34.6131C23.0001 34.452 23.0792 34.2235 23.0219 34.062C23.1886 34.1233 23.213 33.9038 23.3789 33.9643C23.3874 34.1409 23.2089 33.9494 23.2173 34.1265C23.4155 34.0907 23.3722 34.0764 23.5092 34.2229C23.5418 34.1527 23.551 34.0378 23.6214 34.0443C23.6838 34.0942 23.8926 34.0707 23.8499 34.1746C23.5716 34.4543 23.2065 34.5624 23.0901 35.1644C23.3171 35.078 23.3847 34.6739 23.7378 34.838C23.8019 34.5632 24.0441 34.6395 24.1419 34.4317C24.2559 34.4693 24.3689 34.5066 24.4819 34.5439C24.4838 34.3028 24.6753 34.4422 24.6928 34.2356C24.646 34.0834 24.5749 33.9446 24.6425 33.7336C24.4876 33.5703 24.3644 33.8673 24.334 33.6861C24.4822 33.6578 24.5535 33.4767 24.7554 33.5548C24.7906 33.687 24.9244 33.7672 24.9025 33.928C25.1152 33.934 25.1926 33.7059 25.3243 33.9586C25.3484 33.9014 25.3766 33.8475 25.4534 33.8933C25.4257 33.5694 25.3281 33.2798 25.3372 32.9378C25.4625 32.8367 25.6474 32.8554 25.8068 32.8235C25.7746 32.9209 25.7427 33.0174 25.7104 33.1153C25.6454 33.0938 25.5804 33.0724 25.5159 33.0511C25.4636 33.2395 25.7292 33.2687 25.582 33.504C25.6465 33.5253 25.7119 33.5469 25.7765 33.5682C25.7977 33.5037 25.8192 33.4387 25.8406 33.3738C25.7708 33.3419 25.6555 33.332 25.6624 33.2607C25.8485 33.211 26.0187 33.0782 25.9042 32.8557C26.0425 32.9415 26.0191 32.7073 26.18 32.8381C26.2142 32.9021 26.246 32.9669 26.2782 33.0324C26.2485 33.1081 26.1412 33.0299 26.1316 33.1457C26.4579 33.3625 26.4936 33.0032 26.7804 33.1448C26.8022 33.079 26.8235 33.0145 26.845 32.9496C26.7117 32.9531 26.6177 33.0369 26.423 32.9183C26.392 32.786 26.4133 32.6265 26.3404 32.5137C26.4972 32.5545 26.4753 32.243 26.5994 32.2213C26.5552 32.4468 26.7951 32.5281 26.6827 32.7879C26.9202 32.9921 26.8622 32.6081 27.0388 32.6899C27.0925 32.5542 26.9059 32.5406 27.0377 32.366C26.863 32.2342 26.8489 32.4206 26.7138 32.3666C26.826 32.2293 26.5682 32.2778 26.6801 32.1399C27.0525 32.3338 27.2298 32.1543 27.4098 32.3808C27.4885 32.402 27.4904 32.2696 27.5883 32.3321C27.4389 32.0098 27.7869 31.7813 28.008 31.7144C27.9018 31.647 27.6351 31.6592 27.635 31.538C27.8359 31.3089 27.9918 31.3113 27.9418 30.9378C28.2597 30.9921 28.256 31.2717 28.5256 31.1305C28.4887 31.3245 28.3739 31.3654 28.2348 31.3581C28.2706 31.5562 28.2851 31.5125 28.1386 31.6494C28.3131 31.7817 28.3272 31.5953 28.4625 31.6488C28.5165 31.5137 28.3286 31.4992 28.4614 31.3249C28.5264 31.3463 28.5914 31.3678 28.6559 31.389C28.7422 31.251 28.5083 31.2746 28.6392 31.1137C28.7033 31.0795 28.7677 31.0476 28.8331 31.0154C28.9033 31.0621 28.8247 31.1833 28.9952 31.1774C29.1844 31.0963 29.2829 30.8345 29.6274 31.0625C29.6704 30.9321 29.7132 30.8027 29.7561 30.6728C29.5616 30.5549 29.4678 30.6382 29.3347 30.6413C29.6154 30.4996 29.2748 30.2614 29.3328 29.994C29.4707 30.1063 29.4226 29.8487 29.5595 29.9607C29.5136 30.0521 29.594 30.0791 29.6091 30.1394C29.5797 30.2143 29.4714 30.1357 29.4631 30.2525C29.7052 30.2531 29.5653 30.4444 29.7718 30.4624C29.9221 30.1957 30.3989 30.5796 30.5336 30.2822C30.5482 30.167 30.5047 30.0806 30.4032 30.0226C30.206 30.0901 30.0581 29.8946 29.9006 29.9115C30.0172 29.9297 30.0294 29.7379 30.1265 29.7157C30.35 29.7253 30.3137 29.8652 30.4351 29.9261C30.4677 29.856 30.4772 29.7401 30.5476 29.7467C30.6327 29.8259 30.5847 29.9713 30.727 30.0224C30.7842 29.8399 31.0027 29.9783 31.034 29.7459C31.0926 29.6223 30.7459 29.7014 30.8879 29.5354C31.1593 29.6986 31.2768 29.5578 31.5037 29.6311C31.5277 29.3562 31.7648 29.5048 31.8925 29.4358C31.9457 29.2999 31.7601 29.2867 31.891 29.1117C31.655 28.9644 31.6272 29.2303 31.4374 29.1776C31.3864 29.0679 31.1817 29.0363 31.2101 28.887C31.4585 28.897 31.3199 29.1018 31.5681 29.1122C31.6121 28.848 32.0109 28.8689 32.1342 29.0297C32.1166 29.2363 31.9246 29.0967 31.9247 29.3384C32.13 29.4771 32.1417 29.23 32.3464 29.369C32.4386 29.1358 32.6248 29.1237 32.5068 28.8834C32.6419 28.9373 32.6565 28.7496 32.831 28.8818C32.959 28.5435 33.3058 28.6429 33.3801 28.1997C33.3316 28.1837 33.2836 28.1679 33.2346 28.1517C33.1141 28.0738 33.1936 28.3928 33.0728 28.3144C32.8654 28.2057 32.9559 28.1307 32.7319 28.2019C32.8442 28.0641 32.5871 28.1123 32.6988 27.9749C32.7963 28.0071 32.8938 28.0392 32.9912 28.0714C33.1025 27.891 32.8647 27.6783 33.1035 27.5687C33.2013 27.6945 33.193 27.8744 33.3481 27.9725C33.38 27.8761 33.4118 27.7796 33.4443 27.6812C33.1794 27.6376 33.2819 27.411 33.2644 27.2445C33.3535 27.2321 33.3875 27.1135 33.5069 27.1628C33.6848 27.1541 33.4927 27.3324 33.6694 27.3239C33.7197 27.1542 33.911 27.2659 33.9606 27.0969C34.0729 26.9591 33.8156 27.0078 33.9279 26.8701C34.0944 27.0111 34.014 26.6647 34.1379 26.7228C34.193 26.8312 34.2466 26.9392 34.3014 27.0466C34.0738 27.342 34.2415 27.4334 33.9944 27.6473C34.5218 27.8275 34.3634 27.0738 34.3818 26.8033C34.507 26.8352 34.4633 26.9518 34.5279 27.0138C34.4904 27.1272 34.453 27.2406 34.4154 27.3546C34.591 27.4866 34.6043 27.2995 34.7393 27.3539C34.7361 27.2198 34.653 27.1266 34.7712 26.9318C34.8681 26.9638 34.9656 26.9959 35.0631 27.0281C35.1996 26.784 34.9785 26.7183 34.8839 26.5906C35.0389 26.6318 35.018 26.3206 35.1425 26.2991C35.1906 26.3149 35.2395 26.3311 35.288 26.3471C35.202 26.5254 35.27 26.6261 35.387 26.7034C35.4239 26.5094 35.538 26.4677 35.6778 26.4758C35.7902 26.338 35.5313 26.3867 35.6441 26.2491C35.7774 26.2456 35.8719 26.1619 36.066 26.2808C36.034 26.3778 36.0018 26.4752 35.9698 26.5721C36.4497 26.5593 36.5551 25.8023 37.0705 25.856C37.0905 25.6294 37.2137 25.6043 37.2954 25.4992C37.0331 25.4413 36.8927 25.324 37.0024 25.0789C37.3515 25.288 37.3639 24.8287 37.7485 25.1091C37.9271 24.8293 37.7001 24.7544 37.715 24.5578C37.8154 24.355 38.0768 24.471 38.1515 24.2165C38.1383 24.1014 37.9929 24.053 38.0363 23.9091C38.1012 23.9306 38.1662 23.952 38.2316 23.9736C38.2145 24.0634 38.1023 24.2007 38.2649 24.2001C38.2986 23.8198 38.8322 24.1885 38.8807 24.2959C38.9166 23.9377 39.1236 23.9178 39.2682 23.776C39.2323 23.5779 39.2178 23.6216 39.3647 23.4838C39.1204 23.3473 39.0554 23.568 38.9272 23.6635C38.7749 23.5778 38.4549 23.576 38.4086 23.4381C38.4349 23.3836 38.446 23.2964 38.5048 23.308C38.5503 23.5543 38.6377 23.2929 38.8461 23.4207C38.806 23.3161 38.7871 22.9941 38.9577 22.9183C38.9148 23.2935 39.18 23.0501 39.461 23.192C39.5037 22.859 39.7118 23.0952 39.7854 23.1915C39.8391 23.0291 39.8928 22.8663 39.9463 22.7045C40.0428 22.7363 40.1413 22.7688 40.2378 22.8006C40.2758 22.6065 40.3904 22.566 40.5297 22.5728C40.6408 22.4357 40.3841 22.4841 40.4965 22.3463C40.7409 22.4567 40.8595 22.3158 40.9168 22.0539C40.8461 22.0212 40.7316 22.0121 40.7385 21.9408C40.9105 21.9339 40.9732 21.7077 41.1428 21.6969C41.14 21.8066 40.9527 22.0084 41.1444 22.021C41.2007 21.7034 41.4063 21.6831 41.5317 21.5011C41.4672 21.4799 41.4013 21.4581 41.3372 21.4369C41.3044 21.5065 41.2945 21.6217 41.2242 21.6147C41.0304 21.4823 41.3109 21.1104 41.044 21.016C41.0112 21.0867 41.002 21.2015 40.9306 21.1947C40.7616 20.9714 40.5401 21.1044 40.2324 20.8568C40.1009 21.032 40.2872 21.045 40.2341 21.1804C39.9734 21.0954 39.6477 21.0432 39.7141 20.7932C39.9847 20.954 39.9943 20.5976 40.2648 20.7588C40.3218 20.6827 40.3003 20.4538 40.4101 20.4832C40.477 20.5716 40.3269 20.7684 40.5892 20.7584C40.6243 20.532 40.7319 20.4511 40.863 20.4177C41.035 20.5611 41.0392 20.7885 41.3026 20.8858C41.2171 21.0909 41.2833 21.2208 41.498 21.2744C41.5642 20.7342 42.0908 21.1063 42.2266 20.7048C42.2135 20.5894 42.068 20.5413 42.1127 20.3969C42.3172 20.5364 42.3287 20.2897 42.5336 20.4283C42.4259 20.2121 42.6432 19.8324 42.7248 19.5206C42.8998 19.6531 42.9148 19.4654 43.0497 19.5203C42.7923 19.1661 43.1847 18.7543 43.4683 18.5786C43.5288 18.4128 43.3091 18.3888 43.3702 18.2226C43.5969 18.311 43.693 18.4659 43.776 18.627C43.4888 18.7268 43.2994 19.0219 43.114 19.3255C43.1833 19.3578 43.2992 19.3673 43.2924 19.4381C43.1826 19.6222 43.0322 19.7265 42.7904 19.6508C42.7691 19.7153 42.7478 19.7798 42.7263 19.8447C42.7913 19.8662 42.8563 19.8877 42.9212 19.9091C42.9752 19.6936 43.1038 19.6285 43.3091 19.7134C43.3968 19.4053 43.674 19.4686 43.7289 19.0968C43.6594 19.0639 43.5433 19.0549 43.5502 18.9835C43.5771 18.9021 43.6036 18.8217 43.6304 18.7407C43.7278 18.7728 43.8253 18.805 43.9223 18.837C43.9438 18.7721 43.9654 18.7067 43.9866 18.6422C43.6953 18.5507 43.5895 18.1943 43.8558 18.0583C43.6782 18.0665 43.871 17.889 43.6934 17.8972C43.5997 17.8553 43.4248 18.0496 43.3851 17.8503C43.5874 17.8356 43.5788 17.5342 43.53 17.4116C43.6203 17.4576 43.6481 17.3781 43.7085 17.363C43.6683 17.5052 43.9672 17.476 43.8871 17.638C44.1166 17.517 44.1133 17.7957 44.4709 17.8307C44.6874 17.5055 44.3289 17.4702 44.4688 17.1828C44.2569 17.2882 43.8241 17.0969 43.9496 16.7959C43.8521 16.7638 43.7547 16.7316 43.6567 16.6993C43.5616 16.992 43.2325 16.8234 43.1732 17.1863C43.3477 17.3186 43.3615 17.1315 43.4963 17.185C43.3901 17.4573 43.3578 17.8746 43.0766 17.8011C43.1086 17.7042 43.1406 17.6072 43.1728 17.5098C42.9992 17.3779 42.9844 17.565 42.8497 17.5112C42.7635 17.6487 42.9977 17.6258 42.8658 17.7864C42.6985 17.8898 42.4606 18.0409 42.3314 17.7713C42.3066 17.8288 42.2786 17.8822 42.2021 17.8371C42.1481 17.9723 42.3344 17.9868 42.2027 18.1609C42.3327 18.2039 42.4621 18.2466 42.5925 18.2896C42.4801 18.4279 42.7371 18.3785 42.6247 18.5163C42.4303 18.4521 42.2358 18.3879 42.0413 18.3237C41.9986 18.4532 41.9559 18.5826 41.9128 18.713C41.8479 18.6915 41.7828 18.6701 41.7178 18.6487C41.6057 18.786 41.8622 18.738 41.751 18.8757C41.5618 18.8226 41.5338 19.089 41.2963 18.9417C41.2751 19.2191 41.0435 19.0842 40.9734 19.2662C41.2679 19.3754 41.5248 19.0734 41.6878 19.3939C41.7306 19.2645 41.7735 19.1347 41.8164 19.0048C42.0528 19.0478 42.2807 18.9508 42.3998 19.1973C42.4806 19.1154 42.56 19.0315 42.6425 18.9538C42.6974 19.0612 42.752 19.1695 42.8051 19.2773C42.6089 19.5774 42.3245 19.7492 42.0121 19.394C41.8725 19.5984 42.12 19.6096 41.9804 19.8141C42.0756 19.809 42.3289 19.7104 42.385 19.8949C42.1841 19.9168 42.2493 20.1033 42.2729 20.2342C42.2084 20.2129 42.1434 20.1915 42.0785 20.1701C42.2778 19.8543 41.6795 19.9393 41.818 19.653C41.6252 19.7543 41.2912 19.5752 41.0072 19.4929C40.9923 19.6091 41.036 19.695 41.1377 19.7521C41.2747 19.864 41.2264 19.607 41.3644 19.7188C41.3536 19.9664 41.1491 19.8284 41.138 20.0752C41.3538 20.1303 41.4192 20.2594 41.3342 20.4646C41.4995 20.6058 41.4201 20.2597 41.5447 20.3175C41.5993 20.3449 41.6857 20.3552 41.6748 20.4153C41.6162 20.5687 41.4953 20.5966 41.4156 20.7081C41.2355 20.4331 40.6359 20.3688 40.8786 19.8821C40.7736 19.8 40.7482 19.6778 40.5219 19.6564C40.4851 19.8232 40.7571 19.8357 40.7324 19.9962C40.7075 20.2135 40.5863 20.2408 40.4742 20.2893C40.3894 20.2092 40.4373 20.0642 40.2951 20.0142C40.2575 20.1547 40.0994 20.055 40.1011 20.2742C40.1716 20.3058 40.2873 20.3159 40.2808 20.3863C40.2158 20.4201 40.1516 20.4533 40.086 20.4843C40.0108 20.4543 40.0885 20.3473 39.9718 20.3385C39.9459 20.3963 39.9195 20.4492 39.8426 20.404C39.7303 20.5418 39.9875 20.4931 39.8754 20.6303C39.658 20.5487 39.6327 20.8483 39.5044 20.9395C39.4285 20.9098 39.5062 20.8029 39.39 20.7942C39.3472 20.9237 39.3043 21.0536 39.2612 21.184C39.3371 21.2403 39.5663 21.2183 39.5373 21.3283C39.5101 21.3835 39.4997 21.4688 39.44 21.4585C39.3988 21.3838 39.3984 21.2903 39.2295 21.2799C39.2024 21.5486 39.0721 21.6142 38.8401 21.4755C38.7971 21.6059 38.7543 21.7354 38.7114 21.8652C38.8775 21.9268 38.9027 21.7065 39.0686 21.767C38.9041 21.9711 39.1518 21.9688 39.1825 22.075C39.1667 22.123 39.1505 22.1719 39.1345 22.2204C38.9012 22.1758 38.7658 22.0815 38.6794 21.9622C38.5706 22.0688 38.4118 22.0753 38.2263 22.0282C38.3172 22.2017 38.2013 22.6603 37.9356 22.581C37.8542 22.8652 38.2296 22.9192 38.0349 23.2604C38.2395 23.3065 38.2498 23.4509 38.3764 23.5355C38.3269 23.5969 38.35 23.8049 38.2469 23.7631C38.2122 23.631 38.0779 23.5491 38.1005 23.3907C37.9672 23.3942 37.8731 23.4769 37.6784 23.3594C37.658 23.5859 37.5348 23.611 37.4524 23.7164C37.5174 23.7379 37.5824 23.7593 37.6474 23.7808C37.7041 23.704 37.6824 23.4755 37.7921 23.5039C37.8959 23.6624 37.6761 23.8597 37.5667 23.8622C37.3619 23.7518 37.2314 23.7881 37.0963 23.8145C37.0527 23.9086 37.2484 24.0828 37.0495 24.1221C37.0412 24.0035 36.9065 23.9512 36.7402 23.9125C36.6585 24.1298 36.9577 24.155 37.049 24.2848C36.8934 24.2439 36.9145 24.5546 36.7906 24.5758C36.7425 24.5599 36.694 24.5439 36.6451 24.5278C36.6768 24.4317 36.7091 24.3339 36.7413 24.2364C36.575 24.1758 36.5501 24.3962 36.3849 24.3354C36.4155 24.0214 36.6442 24.0974 36.6745 23.7827C36.4363 23.8477 36.24 23.9948 36.092 24.2387C35.7098 24.0996 35.7504 24.4021 35.7368 24.6612C35.4662 24.4988 35.3922 24.7276 35.1209 24.5659C35.076 24.798 34.9823 24.9346 34.8623 25.0198C34.9153 25.1422 35.1216 25.1863 35.2041 25.2939C35.1278 25.6544 34.8286 25.5692 34.7679 25.9599C34.862 26.0024 35.0364 25.8079 35.0765 26.0075C34.9971 26.0929 34.851 26.0452 34.8012 26.1864C34.903 26.2435 34.9465 26.3299 34.9319 26.4451C34.7375 26.4076 34.6958 26.2936 34.7038 26.1543C34.5096 26.037 34.4151 26.1191 34.2824 26.1227C34.5151 25.8624 34.4128 25.802 34.5071 25.4422C34.4101 25.4102 34.3122 25.3779 34.2157 25.346C34.1981 25.5255 34.1116 25.5695 33.9561 25.4759C34.1928 25.7393 33.9248 25.7824 33.9746 26.076C33.7351 26.1227 33.7594 26.2565 33.7157 26.3679C33.6751 26.2934 33.6736 26.2 33.5047 26.1896C33.357 26.4264 33.6236 26.4554 33.5704 26.6435C33.408 26.5899 33.246 26.5365 33.0836 26.4828C33.105 26.4179 33.1263 26.3534 33.1478 26.2885C32.9043 26.1262 32.8466 26.3342 32.6289 26.2247C32.7213 26.3956 32.5397 26.7036 32.6303 26.8734C32.4526 26.866 32.4003 27.1144 32.2589 27.182C32.2045 27.1557 32.1179 27.1443 32.1287 27.0847C32.1471 26.8789 32.3384 27.0188 32.3394 26.7774C32.101 26.8412 31.9042 26.9882 31.7564 27.2333C32.0911 27.2127 31.7552 27.5309 32.0336 27.5387C32.1538 27.6175 32.0738 27.2983 32.1943 27.3777C32.2428 27.3938 32.2918 27.41 32.3407 27.4261C32.2707 27.6634 32.3273 27.8366 32.4879 27.959C32.4254 28.0501 32.4426 28.2984 32.3267 28.2842C32.3072 28.1723 32.2936 28.0572 32.2769 27.9432C32.1115 27.8828 32.0874 28.1029 31.9216 28.042C32.0071 27.864 31.9387 27.7626 31.8236 27.686C31.7902 27.7554 31.7807 27.8712 31.7093 27.8644C31.5986 27.7078 31.6071 27.6741 31.7572 27.5566C31.6922 27.5351 31.6277 27.5138 31.5627 27.4924C31.5068 27.5684 31.5272 27.7975 31.4178 27.7682C31.3481 27.7217 31.4265 27.6014 31.2548 27.6058C31.1927 27.6704 31.0763 27.6278 31.045 27.7526C30.9326 27.8904 31.1898 27.8422 31.078 27.9797C31.2547 27.8229 32.0297 27.8746 31.8253 28.3338C31.4657 28.2981 31.4933 28.0676 31.175 28.0116C31.1331 28.1053 31.3276 28.2802 31.1271 28.3194C30.9438 27.9468 30.6225 28.5005 30.2362 28.2409C30.204 28.3384 30.1716 28.4363 30.1395 28.5337C30.0416 28.5014 29.9446 28.4693 29.8471 28.4372C29.8258 28.6629 29.7039 28.689 29.6217 28.7939C29.7989 28.7856 29.6063 28.9637 29.784 28.9555C30.0121 28.6571 30.3051 28.4844 30.6256 28.3694C30.6028 28.6469 30.3718 28.5117 30.3025 28.6945C30.2409 28.8605 30.4616 28.8847 30.4004 29.0509C30.2588 29.0135 30.3596 28.8552 30.1397 28.8573C30.0118 29.0578 29.9015 29.297 29.7042 29.3613C29.658 29.1644 29.6144 29.2935 29.4608 29.281C29.4931 29.1831 29.5253 29.0857 29.5574 28.9887C29.4274 28.9459 29.2965 28.9026 29.1671 28.8599C28.9794 29.1847 28.5119 28.9542 28.3584 29.3477C28.5178 29.3409 28.654 29.2892 28.8115 29.2817C28.7685 29.4121 28.7259 29.541 28.6828 29.6714C28.7597 29.7281 28.9893 29.7078 28.9597 29.8165C28.8875 29.9148 28.6801 29.7462 28.5546 29.7371C28.5609 29.8953 28.613 30.0314 28.6206 30.19C28.8151 30.308 28.9088 30.2251 29.0416 30.2215C28.8324 30.4754 29.2288 30.4246 29.2536 30.5613C28.8701 30.8178 28.4419 30.2725 28.1012 30.1266C28.0813 30.3289 27.9502 30.3101 27.8583 30.3701C27.7897 30.325 27.8684 30.2038 27.6961 30.2085C27.4185 30.3471 27.1453 30.5434 26.8695 30.2593C26.8331 30.6173 26.6275 30.6377 26.4819 30.7796C26.576 31.0163 26.4337 30.9098 26.3535 31.1683C26.4302 31.2255 26.6595 31.2046 26.6297 31.3138C26.5629 31.5318 26.3865 31.53 26.1601 31.4281C26.0989 31.5947 26.3195 31.619 26.2579 31.785C26.0532 31.7535 25.9328 31.8901 25.7721 31.9483C25.8275 31.6304 26.1063 31.6337 25.9652 31.3638C26.0302 31.3852 26.0947 31.4065 26.1601 31.4281C26.1578 31.2092 26.3166 31.3101 26.3535 31.1683C26.1342 31.1717 26.2344 31.0121 26.0938 30.9746C25.9351 31.3048 25.526 31.1379 25.2518 31.2363C25.1391 31.3751 25.3966 31.3259 25.2838 31.4635C25.4229 31.5496 25.4 31.3156 25.5601 31.4472C25.5718 31.5351 25.6908 31.5702 25.6419 31.6897C25.5086 31.6932 25.415 31.7762 25.2196 31.6579C25.2048 31.7736 25.2493 31.8603 25.3498 31.9164C25.4888 32.0286 25.4399 31.7718 25.5777 31.8841C25.4313 32.0555 25.7269 32.21 25.4978 32.2888C25.3646 32.0314 25.2115 32.2559 24.9945 32.0152C24.9863 32.2359 25.1403 32.3754 24.9959 32.6639C25.1361 32.7468 25.2783 32.4268 25.3366 32.614C25.2342 32.706 25.0569 32.6496 25.0281 32.8901C25.2462 32.9052 25.3531 33.1837 25.1762 33.2626C24.9701 33.2447 25.1089 33.052 24.8675 33.0526C24.8179 33.4919 24.4965 33.3916 24.1556 33.2493C24.177 33.1844 24.1985 33.1194 24.2199 33.0545C24.154 33.0327 24.0895 33.0115 24.0245 32.99C23.9054 33.1845 23.9894 33.278 23.9934 33.4114C23.6504 33.1363 23.4488 33.5646 23.2628 33.3326C23.2809 33.1261 23.4734 33.2658 23.4733 33.0242C23.2162 33.1497 23.2022 32.9644 23.1166 32.7984C22.9721 32.9924 23.2091 32.9944 23.1006 33.171C22.9829 33.1525 22.9714 33.3439 22.8745 33.3667C22.6675 33.3756 22.8253 33.2012 22.6628 33.1889C22.6414 33.2538 22.62 33.3187 22.5988 33.3827C22.7051 33.4512 22.9718 33.439 22.972 33.5602C22.7424 33.5392 22.4957 33.6728 22.633 33.9337C22.5569 33.8778 22.3273 33.898 22.3571 33.7888C22.4756 33.7826 22.5292 33.6473 22.5665 33.4806C22.4845 33.441 22.3069 33.4492 22.4044 33.3186C22.2692 33.2645 22.2548 33.4519 22.0801 33.3201C22.0449 33.7224 21.5729 33.5989 21.7577 33.9689C21.5442 33.8661 21.3789 33.8606 21.2389 33.9052C21.1995 34.2299 20.9881 34.2139 20.835 34.3121C20.7598 34.2821 20.8376 34.1746 20.7209 34.1659C20.696 34.224 20.6687 34.2765 20.5911 34.2316C20.505 34.3691 20.7398 34.3459 20.6084 34.5066C20.4762 34.5418 20.3964 34.6757 20.2361 34.6536C20.0744 34.6404 20.2318 34.4658 20.0242 34.4761C19.9185 34.5608 19.7626 34.5459 19.6854 34.6879C19.7682 34.8212 19.6214 35.0713 19.7351 35.1902C19.4645 35.1891 19.8068 35.4394 19.5742 35.5145C19.5166 35.341 19.3642 35.2145 19.3619 35.0128C19.2548 35.0699 19.0712 34.9743 19.0051 35.1111C19.1116 35.1791 19.3785 35.1665 19.378 35.288C19.3374 35.4473 19.2271 35.4714 19.1032 35.4671C18.9265 35.4756 19.1186 35.2973 18.9409 35.3055C18.8181 35.3579 18.7738 35.5651 18.666 35.6464C18.4621 35.5363 18.3319 35.5732 18.1964 35.5994C18.128 35.7052 18.1399 35.9728 18.0189 35.9725C17.9706 35.7029 17.7792 35.9299 17.5805 35.8278C17.5376 35.9577 17.4947 36.0876 17.4518 36.2175C17.2775 36.0843 17.2635 36.2722 17.1283 36.2183C17.0165 36.3562 17.2733 36.3073 17.161 36.4451C17.3204 36.4382 17.4562 36.386 17.6142 36.3786C17.5692 36.4692 17.6488 36.497 17.6643 36.5575C17.5751 36.5682 17.54 36.6871 17.4213 36.6385C17.4924 36.8629 17.417 36.7718 17.3088 36.9793C17.3551 37.1584 17.4114 37.3326 17.4553 37.5125C17.3593 37.4808 17.2609 37.4483 17.1644 37.4165C17.3736 37.1624 16.9755 37.2138 16.9521 37.0776C17.08 36.7566 16.869 36.605 16.7396 36.4136C16.5203 36.6757 16.2626 36.8631 15.8651 36.7721C15.6732 37.1128 15.8279 37.2781 15.7057 37.5833C15.8102 37.7081 16.168 37.9165 15.9175 38.0848C15.6547 37.8802 15.5779 37.5797 15.4775 37.2925C15.3204 37.3017 15.1905 37.3663 15.0894 37.4874C15.2245 37.5414 15.2388 37.3545 15.4133 37.4868C15.3104 37.7002 15.3044 37.8658 15.3507 38.0053C15.5374 38.0168 16.0686 38.1921 16.2264 38.2943C16.2588 38.0065 16.656 38.0243 16.7285 38.0832C16.5728 38.1957 16.3838 38.2888 16.4859 38.489C16.2119 38.4884 15.9356 38.4728 15.7556 38.248C15.5845 38.2286 15.5527 38.4874 15.4329 38.5721C15.3272 38.5315 15.4798 38.359 15.4808 38.2643C15.2078 38.1533 14.9558 38.0816 14.8971 38.3952C14.9794 38.4355 15.1574 38.4274 15.0597 38.5574C14.8153 38.4199 14.7509 38.6419 14.6219 38.7366C14.5368 38.6307 14.4974 38.5019 14.6052 38.2989C14.4507 38.1357 14.3272 38.4337 14.2971 38.2515C14.3861 38.2396 14.4204 38.1216 14.5401 38.1704C14.5833 38.0396 14.626 37.9101 14.6689 37.7803C14.4318 37.6336 14.4035 37.8994 14.2152 37.8466C14.2594 37.9864 14.2544 38.1518 14.151 38.3651C14.0545 38.3332 13.9565 38.3009 13.86 38.269C13.7693 38.5246 13.9481 38.5241 13.7315 38.6583C13.7886 38.6829 13.8409 38.7111 13.7958 38.7875C13.9319 38.8418 13.9448 38.654 14.1203 38.7866C14.0671 39.03 13.9629 39.1731 13.7484 39.0955C13.7318 38.8739 13.4106 38.806 13.4386 38.5616C13.7869 38.7684 13.6828 38.0785 13.9244 38.0742C13.5997 37.9144 13.5678 38.3333 13.2431 38.1735C13.2454 38.3924 13.0868 38.2926 13.0492 38.4331C13.1316 38.514 13.2151 38.5933 13.2928 38.6758C13.1269 38.8016 12.873 38.7549 12.8243 39.1141C12.9405 39.1905 13.0081 39.2927 12.9227 39.4707C12.8252 39.4385 12.7277 39.4064 12.6307 39.3743C12.6521 39.3098 12.6735 39.2449 12.695 39.18C12.5206 39.0472 12.5062 39.2346 12.371 39.1806C12.2587 39.3183 12.5155 39.2695 12.4032 39.4073C12.1729 39.3646 12.0948 39.5915 12.1781 39.7646C12.0864 39.7182 12.06 39.7982 11.9997 39.8132C11.9141 39.6472 11.9092 39.5068 11.6908 39.6038C11.8236 39.4294 11.6362 39.4151 11.6902 39.28C11.8201 39.3229 11.9501 39.3658 12.08 39.4087C11.9851 39.1712 12.128 39.2778 12.2086 39.0194C12.013 38.9017 11.9195 38.9841 11.7867 38.9877C11.6683 39.2623 11.5147 39.4684 11.3836 39.718C11.4765 39.4417 11.0753 39.4137 10.8146 39.3146C10.8221 39.4737 10.8745 39.6089 10.8806 39.7675C10.6753 39.6287 10.6652 39.876 10.4591 39.7364C10.3984 39.9027 10.6186 39.9269 10.5575 40.093C10.3632 39.9746 10.2692 40.0584 10.1359 40.0619C10.0983 39.8913 10.0893 39.7068 9.84297 39.6416C9.77381 39.933 9.72743 39.7684 9.61628 39.6749C9.61592 39.9164 9.42436 39.777 9.4058 39.9833C9.60574 40.2079 9.1364 40.2962 9.32701 40.5507C9.16116 40.4093 9.24134 40.7547 9.1164 40.6967C9.06176 40.6709 8.9758 40.6592 8.98598 40.5999C9.27851 40.5378 8.9911 40.3093 9.16285 40.0644C8.91014 39.9632 8.9096 40.3665 8.75984 40.4705C8.6746 40.3917 8.72152 40.2465 8.58104 40.196C8.47556 40.3637 8.29231 40.3762 8.22478 40.6186C8.45851 40.7109 8.47098 40.896 8.71116 40.7791C8.57978 40.9539 8.76622 40.9679 8.71267 41.1032C8.57496 41.0175 8.59785 41.2516 8.43725 41.1198C8.30954 40.9816 8.37737 40.7446 8.09514 40.6838C8.06315 40.7808 8.03092 40.8782 7.99893 40.9751C8.07574 41.0318 8.30411 41.0106 8.27544 41.1212C8.16369 41.1401 8.04851 41.1538 7.93454 41.1699C7.89183 41.2994 7.84857 41.4302 7.80616 41.5587C7.94381 41.6715 7.89556 41.4144 8.03297 41.5265C7.95399 41.6644 7.95737 41.9656 7.82369 41.9972C7.74375 41.8345 7.67773 41.6645 7.74104 41.4302C7.56616 41.2974 7.55243 41.4843 7.41725 41.4304C7.46285 41.2006 7.56333 41.0767 7.74014 41.1058C7.83508 40.8689 7.90936 40.6423 7.70622 40.5554C7.56665 40.7599 7.81345 40.7714 7.67484 40.9762C7.38219 40.9611 7.45942 40.7605 7.22062 40.7183C7.19917 40.7832 7.17773 40.8482 7.15628 40.9131C7.22616 40.945 7.3414 40.9549 7.3346 41.0262C7.28393 41.0878 7.30821 41.2957 7.20526 41.2534C6.90068 41.2317 6.93448 41.0377 6.70225 40.9788C6.6805 41.0447 6.65948 41.1082 6.63803 41.1732C6.77526 41.2858 6.72701 41.0287 6.86532 41.1412C6.80845 41.2169 6.82996 41.4458 6.71899 41.4165C6.50574 41.4156 6.67315 41.2234 6.4596 41.2234C6.28677 41.3626 6.07165 41.4194 5.91011 41.5811C5.77512 41.4745 5.76581 41.6181 5.68269 41.6136C5.61326 41.5677 5.69179 41.447 5.52027 41.4525C5.28875 41.5843 5.13133 41.8618 4.90517 42.0042C4.83668 41.9586 4.91489 41.8388 4.74274 41.8431C4.69124 41.9816 4.46786 41.7805 4.43528 41.9582C4.63839 41.9772 4.61916 42.1082 4.67916 42.2C4.61513 42.2342 4.55094 42.2672 4.48533 42.2983C4.41558 42.2518 4.49348 42.1314 4.32322 42.1363C4.13373 42.2183 4.03569 42.4803 3.69135 42.2518C3.61146 42.3894 3.61452 42.6915 3.4818 42.7218C3.39612 42.6429 3.44431 42.497 3.30211 42.447C3.16981 42.6215 3.35675 42.6356 3.30319 42.7709C3.17293 42.6736 3.18113 42.8512 3.14122 42.9341C2.86335 42.7573 2.89644 43.1993 2.65547 43.0974C2.67724 43.0314 2.69869 42.9665 2.71968 42.903C2.58057 42.8941 2.4667 42.9353 2.42899 43.1301C2.62344 43.248 2.71665 43.165 2.84992 43.1615C2.75605 43.403 2.58258 43.4903 2.33262 43.4219C2.47158 43.2162 2.22475 43.2062 2.36309 43.0008C2.15777 42.8621 2.14733 43.1086 1.94169 42.9693C1.82951 43.1066 2.08714 43.0585 1.97527 43.1964C1.76529 43.075 1.70558 43.251 1.57019 43.2783C1.56342 43.1597 1.42812 43.1062 1.26149 43.0684C1.21527 43.2984 1.11527 43.4225 0.938477 43.3934C0.944416 43.5525 0.997332 43.6879 1.00437 43.8468C1.09857 43.8904 1.27268 43.6952 1.31324 43.895Z" fill="white"/>
<path fill-rule="evenodd" clip-rule="evenodd" d="M21.8249 23.3073C21.8898 23.3288 21.9543 23.35 22.0198 23.3716C22.0207 23.5901 21.8635 23.4907 21.825 23.631C21.6353 23.6189 21.8205 23.417 21.8249 23.3073ZM22.1145 22.7547C22.2946 22.7718 22.3386 22.8584 22.2444 23.0141C22.1799 22.9929 22.1149 22.9714 22.05 22.95C22.0716 22.8846 22.093 22.8196 22.1145 22.7547ZM22.0536 23.922C22.0322 23.9869 22.0106 24.0523 21.9893 24.1168C21.8877 24.0593 21.8446 23.973 21.8592 23.8578C21.9237 23.8791 21.9887 23.9005 22.0536 23.922ZM22.9912 23.044C23.0927 23.1015 23.1363 23.1879 23.121 23.3035C23.0319 23.2855 22.8941 23.1732 22.8944 23.3367C22.6601 23.2385 22.9619 23.1215 22.9912 23.044ZM23.8641 22.3614C23.8546 22.45 23.7961 22.4407 23.7354 22.4269C23.6232 22.5642 23.8801 22.5153 23.7678 22.6526C23.6713 22.6208 23.573 22.5883 23.4765 22.5564C23.5775 22.4354 23.7072 22.3701 23.8641 22.3614ZM25.4536 22.4543C25.4215 22.5517 25.3894 22.6486 25.3571 22.7465C25.2783 22.7242 25.1786 22.661 25.1459 22.73C25.1296 22.779 25.1135 22.828 25.0975 22.8764C24.905 22.721 25.2004 22.2502 25.4536 22.4543ZM26.8119 21.2825C26.6336 21.5629 26.8601 21.6377 26.8451 21.8347C26.7109 21.7811 26.6959 21.9671 26.5221 21.8356C26.6132 21.6011 26.69 21.3717 26.6169 21.2182C26.6819 21.2396 26.7469 21.261 26.8119 21.2825ZM27.204 22.3843C27.1825 22.4492 27.1613 22.5137 27.1398 22.5787C26.9453 22.5416 26.9039 22.4267 26.9112 22.2876C27.0091 22.3199 27.1066 22.3521 27.204 22.3843ZM27.3343 22.6428C27.4362 22.6994 27.4795 22.7863 27.4648 22.902C27.3349 22.8591 27.205 22.8162 27.0754 22.7735C27.1325 22.6718 27.2192 22.6278 27.3343 22.6428ZM27.8496 21.41C27.7332 21.334 27.6655 21.2323 27.7512 21.0534C27.8673 21.1303 27.9361 21.2318 27.8496 21.41ZM27.6576 22.3184C27.5922 22.2968 27.5277 22.2755 27.4627 22.2541C27.4841 22.1891 27.5057 22.1237 27.5269 22.0597C27.7069 22.0774 27.7506 22.1633 27.6576 22.3184ZM28.2394 21.5386C28.1463 21.6942 28.1889 21.7803 28.3698 21.7967C28.3127 21.9 28.2265 21.943 28.1107 21.9283C28.204 21.7723 28.1609 21.6865 27.9809 21.6683C28.0368 21.5672 28.1237 21.5239 28.2394 21.5386ZM28.7267 22.0235C28.6203 21.9143 28.6137 21.7556 28.6605 21.5695C28.7671 21.6783 28.7731 21.8374 28.7267 22.0235ZM28.8531 20.9865C28.9555 21.0432 28.999 21.1296 28.984 21.2447C28.919 21.2232 28.8545 21.202 28.789 21.1804C28.8106 21.1154 28.8318 21.051 28.8531 20.9865ZM29.7258 19.9791C29.7043 20.044 29.6829 20.1089 29.6616 20.1734C29.5966 20.1519 29.5321 20.1307 29.4671 20.1092C29.5241 20.008 29.6105 19.9645 29.7258 19.9791ZM30.6979 19.6522C30.6896 19.4751 30.867 19.6667 30.8588 19.4892C31.1513 19.5048 31.0747 19.7066 31.3141 19.7469C31.2818 19.8448 31.2496 19.9423 31.2175 20.0392C31.0409 19.8896 30.9678 19.5179 30.6979 19.6522ZM31.1221 20.6554C31.1875 20.677 31.2521 20.6983 31.317 20.7198C31.3246 20.8976 31.1464 20.7052 31.1547 20.8823C30.9923 20.8824 31.1043 20.7456 31.1221 20.6554ZM31.5741 19.9414C31.4805 20.0968 31.5236 20.183 31.7048 20.2001C31.6476 20.3022 31.5612 20.3457 31.4453 20.3315C31.5926 20.0941 31.3258 20.0655 31.3792 19.877C31.4446 19.8986 31.5092 19.9199 31.5741 19.9414ZM31.5119 20.7841C31.41 20.7275 31.3665 20.6411 31.3812 20.5254C31.516 20.5787 31.5307 20.3921 31.7042 20.5245C31.6681 20.6655 31.5089 20.5654 31.5119 20.7841ZM34.0343 18.7026C33.9246 18.9478 34.065 19.0666 34.3271 19.1234C34.232 19.3102 34.0045 19.234 33.8412 19.2871C33.9062 19.1191 34.0017 18.9357 33.7433 18.9307C33.8523 18.879 33.8848 18.6747 34.0343 18.7026ZM34.9068 17.6957C34.8855 17.7602 34.8639 17.8256 34.8426 17.8901C34.7777 17.8686 34.7127 17.8472 34.6481 17.8259C34.7048 17.724 34.7912 17.6805 34.9068 17.6957ZM37.6603 16.8779C37.639 16.9424 37.6175 17.0073 37.5959 17.0728C37.531 17.0513 37.466 17.0298 37.401 17.0084C37.4583 16.9062 37.5445 16.8632 37.6603 16.8779ZM37.9861 17.5246C38.2321 17.5906 38.2424 17.7746 38.2797 17.9461C38.1129 17.9072 37.9768 17.8546 37.9712 17.7358C37.8484 17.7359 37.861 18.0026 37.7931 18.1086C37.6962 18.0766 37.5987 18.0445 37.5012 18.0123C37.6574 17.8384 37.8906 17.8198 37.9861 17.5246ZM38.6316 16.5503C38.6966 16.5717 38.7616 16.5932 38.8266 16.6146C38.8349 16.7917 38.6567 16.6008 38.6656 16.778C38.5028 16.7791 38.6143 16.6406 38.6316 16.5503ZM40.8313 14.7945C40.8526 14.73 40.8741 14.6651 40.8956 14.6001C41.0753 14.6172 41.1186 14.704 41.0258 14.8587C40.9608 14.8372 40.8963 14.8159 40.8313 14.7945ZM41.0604 15.4098C41.0281 15.5077 40.9962 15.6041 40.964 15.7016C40.8477 15.6256 40.7796 15.5233 40.865 15.3453C40.93 15.3667 40.995 15.3881 41.0604 15.4098ZM41.3513 15.1822C41.453 15.2392 41.4969 15.3247 41.4818 15.4413C41.4168 15.4199 41.3519 15.3984 41.2869 15.377C41.3083 15.312 41.33 15.2466 41.3513 15.1822ZM42.3894 15.6323C42.368 15.6972 42.3465 15.7622 42.3251 15.8271C42.2358 15.8097 42.0989 15.6977 42.0983 15.8608C41.9966 15.8033 41.9537 15.7166 41.9682 15.6018C42.1738 15.7396 42.1846 15.4937 42.3894 15.6323ZM42.1625 15.3424C42.2524 15.4039 42.5265 15.3754 42.4215 15.5354C42.3321 15.4724 42.0579 15.5026 42.1625 15.3424ZM42.9394 14.9506C43.0044 14.972 43.0693 14.9934 43.1343 15.0149C43.1422 15.1918 42.9646 15.0006 42.9725 15.1776C42.8099 15.1782 42.9216 15.0407 42.9394 14.9506ZM43.7178 14.8828C43.6957 14.9497 43.6745 15.0142 43.6531 15.0786C43.4585 15.0405 43.4175 14.9257 43.4254 14.7864C43.5234 14.8186 43.6199 14.8505 43.7178 14.8828ZM43.9392 13.2309C44.0706 13.4831 44.1481 13.2561 44.3605 13.2614C44.3281 13.3593 44.296 13.4567 44.2642 13.5527C44.1348 13.51 44.0048 13.4671 43.8754 13.4244C43.8966 13.3599 43.9181 13.295 43.9392 13.2309ZM44.4265 13.3918C44.556 13.4345 44.686 13.4774 44.8154 13.5201C44.7784 13.6608 44.62 13.56 44.6213 13.7791C44.5248 13.7472 44.4263 13.7148 44.3303 13.6831C44.3627 13.5852 44.3943 13.4892 44.4265 13.3918ZM44.9141 13.8757C45.189 13.9539 45.0694 14.2292 45.1743 14.3938C45.0065 14.3295 44.8227 14.2318 44.8182 14.4918C44.7532 14.4703 44.6883 14.4489 44.6237 14.4277C44.7727 14.3484 44.8468 14.1192 44.9141 13.8757ZM45.5636 14.1987C45.7374 14.3301 45.7528 14.1426 45.8869 14.1968C45.7859 14.3175 45.6561 14.3832 45.4995 14.3926C45.521 14.3276 45.5421 14.2636 45.5636 14.1987ZM45.9859 14.5531C45.9642 14.6185 45.943 14.683 45.9215 14.7479C45.8196 14.6897 45.7762 14.6044 45.7905 14.4886C45.8559 14.5102 45.92 14.5313 45.9859 14.5531ZM46.9833 11.8608C46.8508 12.0358 47.0377 12.0499 46.9837 12.1851C46.8431 12.1476 46.9431 11.9885 46.7245 11.9915C46.7814 11.8886 46.8677 11.8456 46.9833 11.8608ZM47.3387 11.7631C47.307 11.8591 47.2747 11.957 47.2424 12.0549C47.1059 11.9874 47.2015 11.8039 47.1443 11.6989C47.2093 11.7204 47.2742 11.7418 47.3387 11.7631ZM47.4706 12.3457C47.5317 12.1796 47.3107 12.1547 47.3722 11.9891C47.5877 12.0431 47.653 12.1727 47.5684 12.3781C47.3793 12.3245 47.3511 12.5903 47.1141 12.4431C47.1912 12.3266 47.2927 12.2599 47.4706 12.3457ZM46.9272 14.9723C47.1172 14.9833 46.9319 15.1858 46.9275 15.2955C46.7906 15.1835 46.839 15.4416 46.7007 15.3292C46.784 15.2241 46.9057 15.1985 46.9272 14.9723ZM47.7974 12.9923C47.7759 13.2185 47.6537 13.2439 47.5704 13.349C47.3589 13.2416 47.6495 12.9074 47.7974 12.9923ZM46.8336 16.2358C46.6559 16.2439 46.8483 16.0663 46.6702 16.0744C46.751 15.9658 46.7144 15.6244 46.8972 15.7176C46.7342 15.9613 46.9418 16.0188 46.8336 16.2358ZM46.5772 17.3391C46.408 17.3297 46.4069 17.2349 46.3666 17.161C46.2445 17.1609 46.2566 17.4274 46.1878 17.5347C46.0904 17.395 45.9497 17.2755 45.8954 17.1141C46.1589 17.2318 46.2446 17.0023 46.431 16.9661C46.605 17.0273 46.658 17.1497 46.5772 17.3391ZM46.0616 18.2472C46.083 18.1822 46.1042 18.1182 46.1258 18.0528C46.2269 18.1102 46.2706 18.1962 46.256 18.3113C46.1911 18.2899 46.1261 18.2685 46.0616 18.2472ZM46.2887 18.5382C46.2969 18.7158 46.1187 18.5234 46.1275 18.7006C45.9647 18.7017 46.0771 18.5639 46.0942 18.474C46.1583 18.4952 46.2237 18.5168 46.2887 18.5382ZM46.8673 16.7866C46.9729 16.8684 46.998 16.9915 47.2253 17.0133C47.1904 17.2137 46.9386 16.9818 46.8029 16.9814C46.8244 16.9165 46.8457 16.852 46.8673 16.7866ZM46.3233 19.4135C46.0443 19.2352 45.9697 19.4612 45.7726 19.4477C45.891 19.252 45.8069 19.159 45.8043 19.026C45.9084 19.1836 46.0143 19.2185 46.1932 19.1544C46.2951 19.211 46.338 19.2977 46.3233 19.4135ZM45.454 21.3923C45.4322 21.4581 45.4111 21.5221 45.3898 21.5866C45.2142 21.4545 45.2007 21.6421 45.0654 21.5886C44.9248 21.5511 45.0249 21.392 44.806 21.3939C44.8273 21.3294 44.8484 21.2654 44.8702 21.1996C44.9719 21.2566 45.0155 21.343 45.0009 21.4582C45.189 21.5115 45.2178 21.2459 45.454 21.3923ZM45.1315 22.0415C45.0993 22.1389 45.0671 22.2363 45.0351 22.3333C44.9701 22.3119 44.9047 22.2902 44.8406 22.2691C44.8334 22.1107 44.7815 21.974 44.7735 21.8164C45.0217 21.8268 44.8834 22.0306 45.1315 22.0415ZM44.7721 20.8436C44.9463 20.7351 45.1748 20.7311 45.3381 20.5987C45.4964 20.6411 45.5226 20.7499 45.5171 20.8739C45.2212 20.7694 45.136 21.0826 44.7721 20.8436ZM45.8275 16.0123C45.6224 15.8731 45.6113 16.12 45.4066 15.9809C45.541 15.8316 45.7139 15.9962 45.6 15.7211C45.6975 15.7533 45.7945 15.7853 45.8919 15.8175C45.8708 15.8815 45.8489 15.9478 45.8275 16.0123ZM47.9966 14.678C48.0611 14.6993 48.1261 14.7208 48.1911 14.7422C48.1986 14.9185 48.0206 14.7256 48.0291 14.9038C47.8665 14.9044 47.979 14.7662 47.9966 14.678ZM44.4542 23.1134C44.3892 23.0919 44.3242 23.0705 44.2593 23.0491C44.4315 22.7458 43.9153 22.7894 44.1278 22.4655C44.3413 22.5746 44.2046 22.8604 44.5184 22.9191C44.4969 22.984 44.476 23.0475 44.4542 23.1134ZM43.7079 23.0821C43.4552 22.9257 43.8565 22.901 43.8362 22.6939C43.9012 22.7154 43.9661 22.7368 44.0311 22.7582C43.9319 22.8815 43.8079 22.9596 43.7079 23.0821ZM43.7098 23.4069C43.6439 23.3851 43.5798 23.364 43.5139 23.3423C43.5354 23.2773 43.5566 23.2128 43.5781 23.1479C43.7591 23.1658 43.8022 23.2521 43.7098 23.4069ZM43.1632 25.0616C42.975 24.9123 43.0303 24.6404 42.9336 24.4461C43.1817 24.457 43.0434 24.6608 43.2919 24.6719C43.1331 24.7766 43.0979 24.8829 43.1632 25.0616ZM44.1664 24.6374C43.8955 24.6926 44.2336 24.9827 43.9406 24.994C44.0728 24.8195 43.8848 24.8055 43.94 24.6702C44.0762 24.7825 44.0287 24.5247 44.1664 24.6374ZM44.1672 24.9608C44.2689 25.0179 44.3121 25.1036 44.2977 25.2199C44.2328 25.1985 44.1678 25.1771 44.1028 25.1556C44.1243 25.0907 44.1457 25.0257 44.1672 24.9608ZM41.906 27.8842C42.0356 27.9269 42.1655 27.9698 42.2954 28.0127C42.163 28.1876 42.3497 28.2008 42.2968 28.3373C42.1476 28.0317 42.0634 28.4147 41.7775 28.2734C41.6452 28.4479 41.8323 28.4616 41.7783 28.5967C41.6374 28.5601 41.7382 28.4019 41.5189 28.4036C41.6078 28.1689 41.4697 28.0497 41.4849 27.8533C41.5378 27.9511 41.8768 28.2415 41.906 27.8842ZM42.3631 29.1133C42.3417 29.1783 42.3201 29.2437 42.2986 29.3087C42.0618 29.267 41.8813 29.339 41.5853 29.1808C41.6978 29.0441 41.4399 29.0915 41.5525 28.9544C41.6263 29.0502 41.8345 29.2864 41.8777 28.9532C42.0009 29.1905 42.1212 29.0491 42.3631 29.1133ZM42.3005 29.6334C42.1877 29.771 42.4445 29.7222 42.3331 29.8602C42.2362 29.8282 42.1377 29.7957 42.0412 29.7639C42.0985 29.6617 42.1849 29.6182 42.3005 29.6334ZM41.7507 30.3147C41.7292 30.3796 41.708 30.4441 41.686 30.5104C41.5565 30.4677 41.4266 30.4248 41.2966 30.3819C41.3763 30.2151 41.6422 30.4219 41.7507 30.3147ZM41.1337 29.895C40.8093 29.7357 40.7773 30.1537 40.4529 29.9944C40.4528 29.8321 40.5896 29.944 40.6796 29.9612C40.7865 29.7464 40.9998 29.6191 40.8722 29.3781C40.9884 29.3929 41.0751 29.3485 41.1319 29.2477C41.2939 29.3011 41.4563 29.3548 41.6183 29.4082C41.4834 29.6236 41.1757 29.4976 41.1337 29.895ZM40.656 32.9759C40.6348 33.0399 40.6134 33.1048 40.5919 33.1698C40.527 33.1483 40.462 33.1268 40.397 33.1054C40.4538 33.0047 40.5401 32.96 40.656 32.9759ZM40.4275 32.3602C40.4925 32.3817 40.557 32.403 40.6219 32.4244C40.5898 32.5219 40.5576 32.6193 40.5256 32.7162C40.4093 32.6398 40.3415 32.5385 40.4275 32.3602ZM40.1356 32.2639C40.2118 32.1471 40.3134 32.0799 40.4917 32.1659C40.4148 32.2819 40.3141 32.3495 40.1356 32.2639ZM41.7107 27.4956C41.6012 27.5471 41.569 27.7521 41.4187 27.7234C41.4563 27.5291 41.5718 27.4878 41.7107 27.4956ZM42.7506 28.2709C42.9652 28.3246 43.0311 28.4538 42.9456 28.6589C42.8486 28.6269 42.7512 28.5948 42.6542 28.5627C42.6862 28.4658 42.7185 28.3679 42.7506 28.2709ZM39.8158 33.8849C39.7509 33.8635 39.6863 33.8422 39.6213 33.8208C39.6427 33.7563 39.6643 33.6908 39.6856 33.6264C39.8651 33.6439 39.9087 33.7303 39.8158 33.8849ZM39.1687 34.5352C38.8489 34.3429 38.496 34.6194 38.5198 34.2124C38.6172 34.2446 38.7146 34.2767 38.8116 34.3087C38.8542 34.1798 38.8973 34.0494 38.9402 33.9195C39.1709 33.9121 38.8406 34.1863 39.0706 34.1792C39.0624 34.2959 38.9555 34.2179 38.9259 34.2932C38.8779 34.4386 39.3088 34.3434 39.1687 34.5352ZM38.1334 35.0562C37.9709 35.0568 38.083 34.9195 38.1002 34.8297C38.1652 34.8511 38.2301 34.8725 38.2946 34.8938C38.3028 35.0714 38.1248 34.8785 38.1334 35.0562ZM38.7856 36.3508C38.7642 36.4157 38.7427 36.4807 38.7213 36.5456C38.6554 36.5239 38.5913 36.5027 38.5259 36.4811C38.5834 36.3796 38.6694 36.3359 38.7856 36.3508ZM38.7867 36.6747C38.7651 36.7402 38.7435 36.8056 38.7224 36.8696C38.6574 36.8481 38.5924 36.8267 38.5279 36.8054C38.5844 36.704 38.6708 36.6605 38.7867 36.6747ZM39.1647 32.9143C39.1216 33.0446 39.0787 33.1745 39.0359 33.3044C38.9377 33.1368 39.0081 32.8856 38.9047 32.7215C39.1243 32.7188 39.0232 32.878 39.1647 32.9143ZM44.5975 16.7927C44.5154 16.7536 44.338 16.7613 44.435 16.6321C44.6108 16.7636 44.6241 16.5765 44.7601 16.6308C44.7674 16.8081 44.589 16.6161 44.5975 16.7927ZM18.7137 23.899C18.8116 23.9313 18.9081 23.9632 19.0061 23.9955C18.974 24.0925 18.9419 24.1899 18.9097 24.2873C19.0471 24.3995 18.999 24.1419 19.1368 24.2542C19.1403 24.3874 19.2237 24.4812 19.1053 24.6754C19.1702 24.6969 19.2352 24.7183 19.3002 24.7398C19.4116 24.6017 19.1547 24.6505 19.2668 24.5137C19.3642 24.5459 19.4612 24.5779 19.5591 24.6102C19.5915 24.5123 19.6236 24.4149 19.6559 24.3175C19.9217 24.5242 19.8434 24.0453 20.1092 24.2521C20.1749 24.006 20.3597 23.9966 20.5289 23.9584C20.4707 24.2722 20.1856 24.1348 20.0772 24.349C20.2909 24.4514 20.4565 24.4575 20.5956 24.4126C20.6816 24.274 20.4472 24.2973 20.5792 24.1368C20.6672 24.1246 20.7025 24.0068 20.8218 24.0551C20.8003 24.1201 20.7789 24.185 20.7574 24.2499C21.2237 24.3527 21.4518 24.334 21.8286 24.6035C21.8858 24.2878 22.1623 24.4072 22.3463 24.3416C22.2751 24.1177 22.3503 24.2094 22.4587 24.0014C22.4676 23.7674 22.0018 23.7723 22.0838 23.5003C22.3239 23.6761 22.5426 23.3934 22.6852 23.6445C22.5667 23.6508 22.5131 23.786 22.4747 23.9529C22.7125 24.0486 22.9395 24.122 23.0264 23.9189C22.9433 23.8795 22.7657 23.8877 22.8635 23.7576C23.1411 23.7803 23.0058 24.0097 23.189 24.0811C23.3521 24.0285 23.5792 24.1045 23.6742 23.9177C23.6227 23.8083 23.4183 23.7758 23.4461 23.6268C23.6593 23.7259 23.8186 23.7195 23.9003 23.5607C23.7059 23.5231 23.6654 23.4085 23.6729 23.269C23.8164 22.9657 24.2525 23.239 24.3522 22.8455C24.2761 22.7896 24.0468 22.8104 24.0763 22.7007C24.2615 22.7201 24.3733 22.592 24.5459 22.5863C24.5332 22.7685 24.6824 22.8684 24.7262 23.0237C24.5503 23.0236 24.5326 23.3377 24.4512 23.5258C24.7304 23.7047 24.7407 23.3495 24.9371 23.3621C24.9916 23.2272 24.8037 23.2142 24.9369 23.0385C25.25 23.0708 25.0454 23.3629 25.3589 23.3938C25.5021 23.2135 25.0847 23.3153 25.2288 23.1348C25.4553 23.1558 25.4806 23.2784 25.586 23.3607C25.5848 23.1985 25.7221 23.3106 25.8127 23.3275C25.8101 23.109 25.9688 23.2089 26.0059 23.0682C25.9493 23.0433 25.8961 23.0163 25.9409 22.9392C25.775 22.8772 25.7501 23.0981 25.5843 23.0371C25.7172 22.8623 25.5303 22.8481 25.5839 22.7128C25.8029 22.7105 25.7028 22.8696 25.8434 22.9071C25.8762 22.8364 25.8856 22.7211 25.9563 22.7282C25.9689 22.8165 26.0877 22.852 26.0379 22.9713C26.1763 23.0566 26.1533 22.8225 26.3141 22.9539C26.4251 23.111 26.4161 23.1446 26.2665 23.2622C26.4012 23.3161 26.416 23.1289 26.5897 23.2608C26.7274 23.0161 26.5062 22.9525 26.4111 22.8246C26.4734 22.7324 26.4566 22.4847 26.5718 22.4992C26.8535 22.6961 27.0497 22.9351 27.5306 23.0317C27.5866 22.9301 27.6736 22.8864 27.7894 22.9011C27.7851 22.7671 27.7017 22.6748 27.82 22.4796C28.2787 22.61 28.5245 22.3211 28.8405 22.1691C29.0019 22.3002 28.9791 22.0656 29.1161 22.152C29.0945 22.2175 29.0732 22.2819 29.0518 22.3469C29.1492 22.3791 29.2462 22.4111 29.3436 22.4432C29.3618 22.2634 29.4473 22.2196 29.6029 22.3128C29.5296 22.1601 29.6064 21.9324 29.6981 21.6959C30.1598 21.6432 29.8974 21.0404 30.2137 20.7878C29.9731 20.7872 30.1117 20.5954 29.9061 20.5777C29.7632 20.7257 29.3093 20.5238 29.4028 20.304C29.5435 20.3965 29.6013 20.3226 29.6784 20.287C29.8583 20.5786 30.2545 20.3591 30.4569 20.7057C30.2031 21.0995 30.2304 21.4786 29.8602 21.858C29.9656 21.9403 29.9918 22.0632 30.2184 22.0838C30.3508 21.9093 30.1634 21.8949 30.2174 21.7598C30.3936 21.7892 30.4945 21.6654 30.5403 21.4352C30.471 21.403 30.3553 21.393 30.3621 21.3216C30.5178 21.3626 30.4965 21.0523 30.6208 21.0302C30.6546 21.0935 30.6872 21.158 30.7182 21.2236C30.6878 21.2997 30.5812 21.2212 30.5724 21.3378C30.6296 21.3624 30.6827 21.3898 30.6377 21.4674C30.8431 21.4715 30.9739 21.3284 31.1062 21.1903C31.1822 21.2196 31.1049 21.3272 31.2207 21.3352C31.2943 21.1314 31.5386 21.2678 31.658 21.1559C31.7283 21.2026 31.6499 21.3228 31.8201 21.3179C31.8989 21.3387 31.8993 21.2063 31.9989 21.2684C32.0141 21.1528 31.9703 21.0674 31.8686 21.0099C31.7743 20.9667 31.5997 21.1617 31.5599 20.9612C31.8946 20.8995 32.198 20.7778 32.5809 20.8138C32.6311 20.6112 32.5284 20.2741 32.7581 20.1161C32.8127 20.1435 32.8987 20.1536 32.8877 20.2136C32.6616 20.2502 32.9239 20.5262 32.6453 20.619C32.7102 20.6404 32.7752 20.6618 32.8397 20.6832C32.8775 20.4879 32.9922 20.4475 33.1312 20.4552C33.0947 20.5956 32.9353 20.4965 32.9381 20.7156C33.1428 20.7185 33.2734 20.5763 33.4069 20.4377C33.6337 20.5934 33.6646 20.3594 33.8772 20.4854C33.8453 20.5824 33.8129 20.6802 33.7807 20.7776C34.0763 20.8329 34.084 20.4774 34.055 20.2747C34.1666 20.1466 34.3648 20.1917 34.5896 20.2889C34.6568 20.0396 34.2159 20.0449 34.4595 19.7057C34.2981 19.6018 34.3272 19.8756 34.2646 19.9655C34.0273 19.7625 34.085 20.1458 33.9088 20.0641C33.9792 19.7769 34.2244 19.8327 34.2959 19.5453C34.2254 19.5121 34.1103 19.5033 34.1176 19.4321C34.138 19.2567 34.2701 19.3056 34.3436 19.2364C34.4159 19.4017 34.7555 19.7314 34.9928 19.5582C35.0204 19.7212 35.309 19.7517 35.3665 19.8986C35.476 19.6811 35.2679 19.6234 35.43 19.3793C35.6048 19.5122 35.6193 19.3244 35.7543 19.3789C35.7261 19.5277 35.9305 19.5602 35.9821 19.6696C35.9736 19.493 36.1521 19.6845 36.1442 19.5076C36.2562 19.3691 35.9984 19.4177 36.1106 19.2804C36.2791 19.3157 36.5311 19.0982 36.6458 19.2947C36.6282 19.5013 36.4357 19.3616 36.4357 19.6037C36.6804 19.7132 36.8 19.5726 36.8568 19.3106C36.732 19.2788 36.7742 19.1622 36.71 19.1003C36.8687 19.0671 36.9439 18.8665 37.1796 18.986C37.2921 18.8477 37.035 18.896 37.1468 18.7581C37.2081 18.7731 37.2671 18.7827 37.2763 18.6933C37.0762 18.7269 36.9131 18.8318 36.6928 18.8253C36.9086 18.586 36.7844 18.0153 37.2746 18.0456C37.2601 18.3377 37.0582 18.2612 37.0161 18.4993C37.0815 18.521 37.1456 18.5421 37.211 18.5637C37.245 18.3374 37.3534 18.2573 37.4854 18.2231C37.7103 18.3198 37.9074 18.3634 38.0529 18.3024C38.038 18.4186 38.0818 18.504 38.1836 18.5611C38.2858 18.3876 38.3596 18.1594 38.6042 18.2693C38.737 18.0934 38.5498 18.0802 38.603 17.9443C38.7688 18.0857 38.6896 17.7406 38.8138 17.7978C38.9888 17.8179 38.9401 17.9511 39.0089 18.0245C38.8902 18.0312 38.8366 18.1665 38.7992 18.3336C39.0036 18.363 39.0807 18.139 39.2848 18.1693C39.3463 18.0033 39.1252 17.9788 39.1867 17.8133C39.3613 17.9455 39.3754 17.7587 39.5108 17.8122C39.5125 18.0315 39.3547 17.9308 39.3168 18.0724C39.3818 18.0938 39.4467 18.1152 39.5117 18.1367C39.5328 17.9098 39.6545 17.8847 39.7382 17.7798C39.6519 17.66 39.5159 17.566 39.2831 17.5215C39.2261 17.6228 39.1397 17.6663 39.0244 17.6518C39.1419 17.4572 39.0589 17.364 39.0554 17.2308C39.25 17.3483 39.3433 17.2648 39.4766 17.2613C39.3596 17.0212 39.5456 17.008 39.6372 16.7751C39.4006 16.6282 39.3728 16.8941 39.184 16.8411C39.2451 16.4792 39.5692 16.6395 39.8646 16.7411C39.7554 16.9593 39.9632 17.0164 39.801 17.2608C39.9422 17.298 39.8414 17.4563 40.0613 17.4543C40.2023 17.2884 39.8565 17.3679 39.9151 17.2442C40.0704 17.2845 40.0489 16.9736 40.173 16.952C40.1845 17.0403 40.3034 17.0754 40.2542 17.1944C40.3842 17.2372 40.5137 17.28 40.6441 17.323C40.6619 17.1426 40.7485 17.0986 40.9032 17.193C40.9263 16.8624 41.1522 16.9369 41.2584 16.7705C41.011 16.7593 41.149 16.5549 40.9014 16.5442C40.8686 16.6147 40.8594 16.7297 40.788 16.7228C40.6968 16.6609 40.4484 16.6775 40.463 16.5623C40.4792 16.5134 40.4952 16.4649 40.5115 16.4155C40.6415 16.4583 40.771 16.5011 40.9014 16.5442C40.9284 16.195 41.3201 16.5711 41.3702 16.2678C41.5053 16.2951 41.2345 16.5252 41.4524 16.5104C41.6191 16.197 42.0044 16.3173 42.2287 16.1189C42.2316 16.3391 42.0722 16.2385 42.0354 16.3798C42.1654 16.4227 42.2954 16.4656 42.4248 16.5083C42.543 16.3135 42.4599 16.2203 42.4558 16.0859C42.5537 16.1181 42.6512 16.1503 42.7486 16.1825C42.8303 16.0774 42.9533 16.0527 42.9742 15.8253C42.7693 15.7801 42.76 15.6361 42.6324 15.5512C42.6484 15.5027 42.6645 15.4538 42.6807 15.4048C42.9078 15.4255 42.9336 15.5483 43.0382 15.6314C43.0378 15.4684 43.1756 15.5807 43.266 15.598C43.2807 15.381 43.5583 15.2743 43.6374 15.4502C43.6476 15.6582 43.4734 15.4995 43.4604 15.6622C43.6741 15.7646 43.8397 15.7706 43.9783 15.7256C44.0398 15.5601 43.8194 15.5348 43.8798 15.3695C43.9575 15.2527 44.0589 15.1859 44.237 15.2713C44.3503 15.0926 44.4605 14.9093 44.5763 14.7356C44.6248 14.7516 44.6728 14.7674 44.7218 14.7836C44.5901 14.9578 44.7766 14.9718 44.7229 15.1075C44.9177 15.2261 45.0106 15.1425 45.1438 15.1389C45.2009 15.0627 45.1796 14.8329 45.2892 14.8633C45.4721 15.0808 45.6472 15.0582 45.9224 15.0723C45.8681 15.4485 45.5023 15.2061 45.3067 15.3002C45.2767 15.5048 45.5013 15.5821 45.471 15.786C45.4594 15.6032 45.015 15.6366 45.0473 15.4312C44.8066 15.5574 44.6316 15.3681 44.5936 15.1719C44.4085 15.4808 44.6343 15.6446 44.4003 15.7568C44.5265 15.9091 44.3258 16.2275 44.5316 16.3393C44.4342 16.3071 44.3372 16.2752 44.2398 16.243C44.1374 16.4566 44.1311 16.6226 44.1765 16.7618C44.535 16.7987 44.5071 17.0285 44.8257 17.0851C44.9888 16.9297 44.6916 16.8065 44.8733 16.7767C44.8804 16.8944 45.0157 16.9479 45.1823 16.9857C45.2358 16.8238 45.2894 16.6615 45.3429 16.4995C45.2721 16.4673 45.1568 16.4574 45.1635 16.3866C45.253 16.3749 45.2875 16.2563 45.4072 16.3047C45.5849 16.2966 45.3918 16.475 45.5694 16.4668C45.6259 16.3904 45.6052 16.1608 45.7154 16.1908C45.7634 16.2067 45.8119 16.2227 45.8604 16.2387C45.7267 16.5912 45.9284 16.3108 46.1206 16.4326C46.0853 16.6595 45.9769 16.7396 45.8457 16.773C45.6204 16.6742 45.4281 16.6415 45.344 16.8235C45.4132 16.8557 45.5289 16.8658 45.5222 16.9366C45.2283 17.2717 45.3633 17.4891 45.1849 17.9579C45.12 17.9364 45.055 17.915 44.9905 17.8937C45.1251 18.0837 44.9692 18.418 45.2025 18.5576C45.0995 18.5957 45.0362 18.7115 44.8625 18.6067C44.7496 18.8805 44.7261 19.1081 44.8639 19.2554C45.0607 19.2191 45.2274 18.999 45.1221 18.8009C45.1871 18.8223 45.2521 18.8438 45.317 18.8653C45.1137 19.1029 45.4966 19.044 45.4151 19.2212C45.2369 19.1363 45.1358 19.2037 45.0598 19.32C45.1759 19.5044 44.9124 19.8799 45.0292 20.0652C44.9386 20.0472 44.8009 19.9361 44.8025 20.0989C44.8717 20.1311 44.9879 20.1397 44.981 20.2111C44.8492 20.3716 45.0829 20.3485 44.9972 20.4863C44.7379 20.4413 44.7968 20.2364 44.6882 20.1144C44.7578 19.9036 44.8274 19.6932 44.897 19.4823C44.8211 19.426 44.5919 19.4464 44.6213 19.3371C44.6589 19.2232 44.6963 19.1098 44.7338 18.9964C44.593 18.9593 44.693 18.8007 44.4744 18.8032C44.3312 19.0503 44.4547 19.1647 44.5242 19.3051C44.4607 19.5827 44.249 19.5645 44.2177 19.9059C44.333 19.9205 44.4194 19.8769 44.4765 19.7752C44.5887 19.6379 44.3312 19.6855 44.4439 19.5484C44.5204 19.6044 44.7489 19.5844 44.7192 19.6935C44.6385 19.8824 44.4809 19.917 44.3801 20.067C44.8224 20.2297 44.4558 21.0361 44.0262 20.8129C43.9942 21.1265 43.7664 21.0508 43.7355 21.3658C43.9655 21.4109 44.0893 21.5118 44.0603 21.688C44.2272 21.7488 44.2512 21.5292 44.4168 21.5906C44.3175 21.7139 44.1937 21.7915 44.0934 21.915C44.2878 22.0585 44.2898 21.8216 44.4665 21.9301C44.5391 22.096 44.579 22.2788 44.6793 22.4319C44.5809 22.3995 44.4844 22.3676 44.3865 22.3353C44.4079 22.2704 44.4293 22.2054 44.4508 22.1405C44.3174 22.1445 44.2245 22.2281 44.0291 22.1098C44.1416 21.8103 43.8909 21.6921 43.6715 21.5596C43.6731 21.7789 43.5151 21.6788 43.4781 21.8194C43.5724 21.8135 43.8266 21.7158 43.8828 21.8998C43.6998 22.1948 43.8924 22.3007 43.9009 22.4981C43.8248 22.4422 43.5951 22.464 43.6248 22.3538C43.7218 22.1566 43.6798 22.029 43.5427 21.9493C43.5445 22.1686 43.3866 22.0679 43.3495 22.2086C43.5529 22.282 43.4166 22.5257 43.5284 22.6456C43.2301 22.711 43.4904 22.9534 43.4812 23.1158C43.3865 23.1211 43.1324 23.22 43.0762 23.036C43.1492 22.9954 43.2436 22.9942 43.2534 22.8251C43.1875 22.8034 43.1234 22.7823 43.058 22.7606C43.0436 23.0524 42.8422 22.976 42.8009 23.215C42.9378 23.327 42.8899 23.0689 43.028 23.1819C42.9809 23.2723 43.0616 23.2999 43.0767 23.3603C42.8738 23.3768 42.835 23.7695 42.9001 23.8948C42.8342 23.8731 42.7701 23.852 42.7047 23.8304C42.7262 23.7654 42.7473 23.7014 42.7689 23.636C42.632 23.524 42.6807 23.7812 42.5422 23.6693C42.6669 23.9259 42.4382 23.8515 42.317 24.0271C42.4908 24.1585 42.506 23.972 42.64 24.0262C42.7321 24.198 42.6161 24.6581 42.3509 24.5774C42.3831 24.48 42.4153 24.3826 42.4472 24.2856C42.1655 24.3356 42.2956 24.8363 42.4493 24.934C42.505 24.8569 42.4846 24.6278 42.5938 24.6576C42.6556 24.7078 42.8645 24.6838 42.8212 24.7864C42.7607 24.9601 42.6384 25.0142 42.4493 24.934C42.4278 24.999 42.4067 25.063 42.3849 25.1288C42.5144 25.1716 42.6439 25.2143 42.7738 25.2572C42.7175 25.5747 42.4871 25.5467 42.4517 25.9051C42.5037 26.0146 42.7086 26.0473 42.6793 26.1963C42.4536 26.1207 42.443 25.9377 42.128 25.9068C42.01 26.1011 42.0924 26.1946 42.0967 26.3271C42.0307 26.3053 41.9668 26.2842 41.9013 26.2626C41.919 26.1739 42.0316 26.0357 41.8688 26.0368C41.7593 26.2543 41.9669 26.3119 41.8044 26.5558C41.6888 26.5406 41.6024 26.5841 41.5456 26.6864C41.6215 26.8774 42.0575 26.8883 42.0498 27.1216C41.9321 27.1036 41.9204 27.2955 41.8239 27.3174C41.7616 27.2671 41.5533 27.2907 41.5955 27.1883C41.6753 27.1034 41.8206 27.1503 41.8713 27.0094C41.5827 26.8651 41.4101 26.9527 41.353 27.2695C41.4232 27.3021 41.5386 27.3115 41.5315 27.3821C41.2871 27.4074 41.3512 28.045 41.0312 27.9196C40.97 28.0846 41.1898 28.1097 41.1295 28.2751C40.9934 28.2208 40.98 28.4084 40.8046 28.2754C40.7724 28.3728 40.7403 28.4702 40.7082 28.5672C41.0412 28.6102 40.8044 28.8181 40.7101 28.8919C40.7792 28.9246 40.8951 28.9341 40.8884 29.005C40.8724 29.0535 40.8562 29.1024 40.84 29.1514C40.7421 29.119 40.6456 29.0872 40.5472 29.0547C40.5044 29.1841 40.4616 29.3135 40.4186 29.4439C40.2845 29.3898 40.2697 29.5769 40.0946 29.4445C39.9895 29.8263 39.8617 30.1625 39.6763 30.3853C39.8422 30.5266 39.762 30.1813 39.8868 30.2397C39.9487 30.2894 40.1568 30.2651 40.1134 30.3677C40.0671 30.6249 39.7986 30.4403 39.7741 30.7422C39.9498 30.8743 39.963 30.6871 40.0993 30.7409C40.0669 30.8388 40.035 30.9358 40.0029 31.0327C40.3766 31.1013 40.3046 31.3949 40.6032 31.5012C40.587 31.5502 40.5712 31.5982 40.5551 31.6466C40.3377 31.5383 40.2806 31.746 40.0366 31.5835C40.0971 31.4177 39.8769 31.3935 39.9386 31.2276C39.7255 31.1281 39.5656 31.1347 39.484 31.2931C39.4302 31.4293 39.6179 31.4427 39.4848 31.618C39.4203 31.5967 39.3553 31.5753 39.2904 31.5538C39.2534 31.9122 39.0236 31.8839 38.9681 32.2022C39.1033 32.2562 39.1175 32.0693 39.2921 32.2016C39.3363 31.9364 39.7354 31.958 39.8595 32.1196C39.8437 32.1676 39.8275 32.2165 39.8115 32.265C39.5225 32.1221 39.3832 32.275 39.1625 32.2664C39.1986 32.6269 39.4916 32.8588 40.0081 32.9771C40.1256 32.7825 40.0427 32.6889 40.0392 32.5557C40.0912 32.6783 40.2989 32.7228 40.3798 32.8304C40.3386 33.0705 40.1847 33.0875 40.0904 33.2198C40.0354 33.1933 39.9479 33.1832 39.9598 33.1234C39.9895 33.0477 40.0959 33.1256 40.1051 33.0091C39.741 32.9573 39.7095 33.5664 39.4095 33.6433C39.2022 33.6526 39.3606 33.4784 39.1992 33.4659C39.1733 33.5236 39.146 33.5762 39.0686 33.5308C39.0156 33.6662 39.2022 33.6798 39.0708 33.8546C38.8898 33.7432 38.6773 33.982 38.5672 33.7431C38.888 33.6017 39.1635 33.37 39.5543 33.3675C39.6728 33.1733 39.5895 33.0795 39.5864 32.9464C39.2054 32.8938 39.2196 32.6437 38.8395 32.5914C38.8391 32.8329 38.6476 32.6935 38.63 32.9001C38.5562 33.3543 38.116 33.8745 38.0674 34.6033C38.0024 34.5819 37.9375 34.5604 37.8725 34.5389C37.858 34.8056 37.6883 34.7631 37.63 34.9443C37.6945 35.0068 37.6518 35.1232 37.7772 35.1547C37.915 35.267 37.8657 35.0101 38.0038 35.1215C37.8919 35.2594 38.1491 35.2112 38.0371 35.348C37.9466 35.3025 37.9188 35.382 37.8584 35.3971C37.7834 35.3682 37.8617 35.2609 37.7451 35.2516C37.6999 35.4852 37.6063 35.6213 37.4868 35.7066C37.6389 35.7631 37.8127 35.4472 37.9245 35.6887C37.8912 35.7581 37.7921 35.6946 37.7137 35.6739C37.6113 35.8875 37.6049 36.0524 37.6501 36.1921C37.7854 36.2456 37.7995 36.0593 37.9742 36.1911C38.104 35.9118 38.2279 35.6192 38.4922 35.6063C38.5935 35.6632 38.637 35.7495 38.6221 35.8657C38.3868 35.7213 38.3656 35.9992 38.2329 36.0608C38.3347 36.1179 38.3782 36.2043 38.3636 36.3196C38.2233 36.2826 38.3228 36.1239 38.1039 36.1258C38.0676 36.4838 37.8612 36.5034 37.716 36.6455C37.9957 36.8249 38.0707 36.5976 38.2672 36.6113C38.2306 36.7521 38.071 36.652 38.074 36.8722C38.3354 37.1036 38.3958 37.0014 38.7548 37.0969C38.962 36.6752 39.1987 36.3128 39.4169 35.9114C39.4572 35.9868 39.458 36.0795 39.6274 36.09C39.7727 35.8018 39.5467 35.6385 39.8206 35.505C39.724 35.4731 39.6257 35.4407 39.5282 35.4084C39.4484 35.5471 39.4526 35.8491 39.319 35.8791C39.3231 35.7291 39.0869 35.6996 38.9137 35.6373C39.0456 35.4626 38.8583 35.4494 38.9117 35.3131C39.1834 35.3965 39.1784 34.9308 39.4132 34.9394C39.4474 35.0034 39.4804 35.0681 39.5113 35.1341C39.4814 35.2088 39.375 35.1309 39.3658 35.2474C39.5602 35.3115 39.7561 35.3762 39.9506 35.4404C39.9603 35.1925 40.1658 35.3308 40.1754 35.0835C39.8515 35.2203 39.7906 34.7388 39.5909 34.5659C39.5086 34.6713 39.3865 34.6962 39.3651 34.9235C39.16 34.7593 39.1633 35.0068 39.058 35.0378C39.0029 35.0117 38.9163 35.0004 38.9274 34.9414C39.0455 34.9334 39.0993 34.7988 39.1365 34.6325C39.2019 34.6541 39.266 34.6753 39.3319 34.697C39.4709 34.4913 39.2239 34.4803 39.3635 34.2758C39.4605 34.3078 39.5579 34.34 39.6549 34.372C39.8013 34.2006 39.506 34.0452 39.7347 33.9662C39.695 34.1227 40.0047 34.1002 40.0272 34.225C39.877 34.2214 39.8471 34.4574 39.7853 34.6301C39.8904 34.7133 39.9159 34.8355 40.1433 34.8568C40.1079 34.6034 40.1428 34.3159 40.0756 34.0787C40.3883 34.2163 40.3795 33.715 40.5612 33.5918C40.4908 33.5597 40.3751 33.5497 40.3829 33.4786C40.4098 33.3972 40.4365 33.3163 40.4631 33.2358C40.5276 33.2571 40.5925 33.2785 40.6575 33.3C40.6722 33.0073 40.8733 33.0846 40.915 32.8447C40.8453 32.8123 40.7298 32.8029 40.7363 32.7326C41.1228 32.4984 40.9707 32.1006 41.3662 31.8073C41.1715 31.6888 41.078 31.7727 40.9455 31.7754C40.9422 31.5562 41.1013 31.6562 41.1384 31.5155C41.0362 31.4583 40.9929 31.3725 41.0077 31.2568C41.1354 31.5562 41.4678 31.3179 41.5595 31.5464C41.7233 31.3427 41.4771 31.3454 41.4451 31.2399C41.6519 31.1401 41.691 30.7073 42.0771 30.9626C42.133 30.6716 42.0325 30.7339 42.222 30.524C42.098 30.3161 41.9372 30.1262 41.7667 29.9421C41.8545 29.9309 41.8899 29.8126 42.0092 29.8608C41.9547 29.9958 42.1421 30.0101 42.0095 30.184C42.1456 30.2383 42.1589 30.0512 42.3343 30.1837C42.3491 29.9161 42.519 29.9597 42.5761 29.7776C42.4263 29.6509 42.6434 29.3384 42.688 29.113C42.611 29.0568 42.382 29.0768 42.411 28.9684C42.4016 28.7612 42.576 28.9195 42.59 28.7571C42.3031 28.617 42.2428 28.9275 42.0063 28.8881C42.1789 28.7211 42.4228 28.6957 42.5393 28.4173C42.5621 28.6628 42.6452 28.8776 42.8172 29.0476C43.1519 28.7411 43.0877 28.1578 43.3003 27.9122C42.9661 27.7069 42.7148 28.09 42.4737 27.8017C42.4899 27.7528 42.506 27.7038 42.5221 27.6553C42.7591 27.7503 42.985 27.8238 43.0727 27.6215C43.1837 27.4843 42.9272 27.5323 43.0398 27.3951C42.873 27.3343 42.8492 27.5535 42.6828 27.4928C42.7659 27.3882 42.8877 27.3626 42.9091 27.1364C42.5865 27.0889 42.6619 26.8591 42.4218 26.9756C42.4433 26.9107 42.4647 26.8457 42.4862 26.7808C42.3163 26.8729 42.0085 26.6905 41.8385 26.7831C41.8926 26.4058 42.2574 26.6484 42.4531 26.5538C42.5148 26.6847 42.7936 26.7068 42.6489 26.9425C42.9313 27.055 43.0995 26.6992 43.2654 27.0379C43.3738 26.6765 43.2522 26.7189 43.4585 26.4534C43.2542 26.2894 43.2572 26.5362 43.1501 26.5682C43.1691 26.4508 42.9769 26.4396 42.956 26.3419C42.9721 26.2929 42.988 26.2449 43.0042 26.196C43.2749 26.3579 43.3489 26.1291 43.6203 26.2907C43.6523 26.1938 43.6845 26.0964 43.7165 25.9994C43.5812 25.9459 43.567 26.1327 43.3916 25.9997C43.3527 26.0829 43.3609 26.2605 43.2309 26.1622C43.2722 25.9233 43.4735 26.0001 43.4878 25.7084C43.4181 25.676 43.3029 25.6661 43.3098 25.5948C43.3361 25.5403 43.3478 25.4544 43.4066 25.466C43.5659 25.5071 43.5901 25.6169 43.5863 25.7409C43.7517 25.8012 43.7759 25.5811 43.9419 25.6427C43.9277 25.757 43.971 25.8438 44.0727 25.9014C44.1784 25.7344 44.405 25.8091 44.4287 25.4793C44.2534 25.3462 44.239 25.5335 44.1037 25.48C44.2161 25.3422 43.9583 25.3908 44.0708 25.2526C44.2007 25.2955 44.3312 25.3385 44.4611 25.3814C44.5026 25.1451 44.4068 24.9167 44.6537 24.7983C44.2587 24.6961 44.6596 24.5764 44.684 24.3761C44.6075 24.3201 44.3791 24.3397 44.4081 24.2313C44.4546 24.1616 44.575 24.2399 44.5698 24.0691C44.549 23.8143 44.2516 23.8216 44.0503 23.8429C44.0389 23.754 43.9206 23.7202 43.9686 23.6003C44.1884 23.5988 44.0875 23.757 44.2294 23.7939C44.2614 23.697 44.2936 23.5996 44.3258 23.5021C44.6119 23.6696 44.656 23.3528 44.7951 23.2259C44.9751 23.4602 45.132 23.2333 45.2982 23.5C45.3801 23.3945 45.5029 23.3687 45.5233 23.1426C45.3493 23.0101 45.3345 23.1973 45.2001 23.144C45.2135 22.947 44.9866 22.8721 45.1656 22.5925C45.2311 22.6141 45.2951 22.6352 45.361 22.6569C45.3757 22.3643 45.5769 22.4411 45.6183 22.2022C45.3313 22.1304 45.1351 22.013 45.0985 21.8156C45.3373 22.0886 45.5653 21.8757 45.7481 22.138C45.9339 21.7729 45.6233 21.6589 45.8111 21.2945C46.1974 21.279 45.9506 20.9862 46.1981 20.7756C45.9056 20.6905 45.5709 20.4156 45.7915 20.2092C45.8395 20.2251 45.888 20.2411 45.937 20.2573C45.844 20.4124 45.8871 20.4986 46.068 20.5165C46.1233 20.4393 46.1033 20.2108 46.2128 20.2397C46.3466 20.2677 46.0774 20.4978 46.2948 20.4829C46.3171 20.2052 46.5475 20.3408 46.6178 20.1578C46.5139 20.1976 46.19 20.217 46.1145 20.0455C46.3301 19.8024 46.7566 19.9766 46.9071 19.6061C46.8374 19.5737 46.722 19.5643 46.7289 19.493C46.7663 19.3796 46.8037 19.2662 46.8412 19.1527C46.9062 19.1742 46.9712 19.1956 47.0357 19.2169C47.0571 19.1519 47.0787 19.0866 47.1002 19.0216C46.9346 18.9617 46.9101 19.1812 46.7447 19.1209C46.9068 18.8769 46.6987 18.8191 46.8075 18.6019C47.0275 18.5999 46.9262 18.758 47.0679 18.7954C47.2092 18.6996 47.2812 18.4691 47.4231 18.3729C47.2715 18.1789 47.0778 18.0064 47.097 17.7256C46.9312 17.6647 46.9069 17.8853 46.7406 17.8246C46.8206 17.6866 46.8165 17.3846 46.9504 17.3537C46.9839 17.4848 47.1193 17.5665 47.097 17.7256C47.2265 17.7684 47.3564 17.8113 47.4859 17.854C47.5181 17.7566 47.55 17.6601 47.5822 17.5622C47.5125 17.5298 47.3971 17.5204 47.4038 17.4495C47.4367 17.3801 47.536 17.443 47.6143 17.4653C47.9095 16.9922 47.1869 17.0314 47.4825 16.5585C47.3451 16.4464 47.3934 16.7034 47.2556 16.5911C47.3812 16.2568 47.0364 16.1608 47.0596 15.8787C47.0915 15.7536 47.2074 15.7965 47.2704 15.7322C47.3389 15.7778 47.2602 15.899 47.4325 15.8943C47.6091 15.8701 47.6756 15.6248 47.8531 15.6009C47.8599 15.7196 47.9949 15.7725 48.1607 15.811C48.2936 15.6362 48.1062 15.6218 48.1607 15.4869C48.0665 15.4433 47.8912 15.6391 47.8524 15.4389C47.9551 15.4013 48.0181 15.2848 48.1928 15.39C48.3378 15.1012 48.1118 14.9379 48.3855 14.8064C48.314 14.4759 47.962 14.0732 48.2683 13.6879C48.3484 13.85 48.4145 14.02 48.352 14.2551C48.4862 14.3089 48.5013 14.1223 48.6751 14.2538C48.7073 14.1563 48.7394 14.0594 48.7713 13.9624C48.6956 13.9056 48.4671 13.9257 48.4969 13.8165C48.5456 13.7543 48.5221 13.5472 48.6251 13.5895C48.6736 13.6055 48.7225 13.6217 48.7715 13.6379C48.7501 13.7028 48.7287 13.7673 48.7072 13.8327C48.8443 13.9437 48.7963 13.6878 48.9339 13.799C48.9872 13.6647 48.801 13.6497 48.9322 13.4754C48.799 13.4788 48.7061 13.5625 48.5115 13.4434C48.5326 13.3795 48.554 13.3145 48.5757 13.2491C48.4003 13.1176 48.3868 13.3042 48.2515 13.2506C48.1971 13.3867 48.3848 13.4001 48.2522 13.574C47.9337 13.5185 47.8953 13.322 47.8621 13.1221C47.9381 13.0058 48.0404 12.9378 48.2183 13.0236C48.2004 13.1127 48.0889 13.2513 48.2515 13.2506C48.2827 12.9363 48.5103 13.0125 48.5412 12.6991C48.3464 12.5806 48.2535 12.6642 48.1203 12.6677C48.1523 12.5707 48.1845 12.4733 48.2165 12.3764C48.0415 12.2424 48.0277 12.431 47.8916 12.3767C47.9899 12.2468 47.8125 12.254 47.7292 12.2155C47.751 12.1497 47.7724 12.0847 47.7939 12.0198C47.4003 11.975 47.4848 11.6892 47.4353 11.4709C47.2307 11.5463 47.023 11.6171 46.6906 11.4395C46.6995 11.585 46.8036 11.7201 46.5283 11.6021C46.4726 11.7549 46.7884 11.929 46.5454 12.0404C46.4707 11.8618 46.358 11.702 46.1556 11.5876C46.0935 11.6522 45.9772 11.6091 45.9448 11.7341C46.0028 11.759 46.0557 11.787 46.01 11.8637C46.148 11.9755 46.1 11.718 46.2367 11.8305C46.1248 12.008 46.0139 12.1918 45.8986 12.3656C45.8496 12.3494 45.8016 12.3336 45.7522 12.3172C45.8975 12.029 45.671 11.8672 45.9448 11.7341C45.8478 11.7021 45.7503 11.67 45.6533 11.638C45.4549 11.8877 45.6971 12.1268 45.5087 12.2369C45.44 12.1907 45.5183 12.0704 45.3463 12.0758C45.2545 12.1358 45.1241 12.1178 45.1036 12.3187C45.3181 12.4219 45.4833 12.4279 45.6228 12.3831C45.4263 12.4769 45.3722 12.8526 45.2683 13.1294C45.1748 13.0865 44.9998 13.2813 44.9603 13.0815C44.9896 13.0071 45.0966 13.0847 45.106 12.9677C44.9434 12.9684 45.0551 12.8309 45.0725 12.7417C44.7997 12.8834 44.8215 12.5247 44.5211 12.4512C44.6562 12.5986 44.6316 12.8279 44.6513 13.0338C44.3369 12.9754 44.5223 12.6655 44.1323 12.6464C44.1146 12.8264 44.0282 12.8699 43.8735 12.7771C43.7725 12.9531 43.8065 13.3959 43.5177 13.1999C43.4522 13.4486 43.8444 13.4674 43.7786 13.7171C43.5237 13.6272 43.5235 13.8051 43.3893 13.5886C43.3464 13.7184 43.3036 13.8479 43.2607 13.9778C43.4915 14.0237 43.615 14.1239 43.5857 14.3011C43.2124 14.0182 43.0091 14.496 42.7588 14.19C42.7985 13.9735 42.908 13.8963 43.0663 13.9136C42.9489 13.6745 43.179 13.7493 43.2269 13.4274C43.0292 13.463 43.0721 13.4771 42.934 13.3308C42.9568 13.6426 42.6829 13.3669 42.6431 13.5584C42.5828 13.7237 42.8028 13.7484 42.7414 13.9139C42.6769 13.8926 42.6119 13.8711 42.5469 13.8497C42.5683 13.7852 42.5895 13.7208 42.6112 13.6553C42.476 13.6014 42.4615 13.7891 42.2871 13.6564C42.1847 13.87 42.1786 14.0355 42.2237 14.1752C41.9519 14.0119 41.8342 14.1531 41.6079 14.0795C41.499 14.4313 41.2694 14.8451 41.5131 15.0195C41.4156 14.9873 41.3186 14.9553 41.2212 14.9232C41.3139 14.7815 41.2393 14.7245 41.2042 14.6472C41.234 14.573 41.3405 14.6504 41.3496 14.5344C41.128 14.4827 41.3219 14.2231 41.154 14.1463C41.0887 14.4327 41.0171 14.4691 40.8956 14.276C40.8088 14.5339 40.7468 14.8418 40.5725 14.9252C40.7099 15.0373 40.6616 14.7802 40.799 14.8924C40.7528 15.0969 40.6092 15.1064 40.5242 15.2328C40.3192 15.2147 40.458 15.0236 40.2158 15.0235C40.1623 15.2391 40.0325 15.3033 39.8281 15.2186C39.7426 15.4237 39.808 15.5528 40.0228 15.6075C40.0433 15.405 40.1741 15.4231 40.2655 15.363C40.3887 15.45 40.5366 15.5239 40.5417 15.6713C40.3291 15.5703 40.1709 15.5781 40.0881 15.7371C40.094 15.9724 40.1468 16.3546 40.4792 16.1892C40.4329 16.3942 40.2895 16.4033 40.2042 16.5301C40.1562 16.5143 40.1063 16.4978 40.0583 16.482C40.0903 16.385 40.1226 16.2871 40.1546 16.1902C40.0189 16.1365 40.0048 16.3229 39.8303 16.1906C39.9244 15.9545 39.7814 15.8374 39.6672 15.7057C39.3424 15.6523 39.1566 15.8749 38.7916 15.7403C38.6436 15.9764 38.9103 16.0055 38.8584 16.194C38.6239 16.1025 38.6119 15.9159 38.3712 16.0332C38.464 15.8785 38.4206 15.7917 38.2404 15.7745C38.2658 15.9916 38.4116 16.1478 38.3556 16.4059C38.1734 16.5274 37.8905 16.4497 37.7731 16.6991C37.7246 16.6831 37.6757 16.6669 37.6267 16.6508C37.6587 16.5539 37.6909 16.4564 37.7231 16.359C37.518 16.2198 37.5074 16.4668 37.3016 16.3279C37.296 16.7447 36.9551 16.4964 36.7841 16.5888C36.6983 16.7269 36.9316 16.7032 36.8007 16.8641C36.5931 16.9077 36.4883 17.1555 36.2013 17.0441C36.083 17.3454 35.9404 17.5984 35.6196 17.4993C35.6411 17.4344 35.6624 17.3699 35.6837 17.3055C35.505 17.2188 35.4036 17.2871 35.3268 17.4027C35.4427 17.5338 35.6727 17.6077 35.4911 17.8886C35.5909 18.0274 35.8183 18.1025 35.7838 18.3082C35.6863 18.2761 35.5893 18.244 35.4914 18.2117C35.5842 18.0571 35.5412 17.9708 35.3612 17.9532C35.2848 18.1242 35.2919 18.4616 35.0374 18.279C34.9881 18.4804 35.0911 18.8181 34.862 18.9758C34.7602 18.8509 34.7795 18.6662 34.7464 18.507C34.6096 18.3946 34.6572 18.652 34.5201 18.5394C34.5413 18.4749 34.5628 18.4099 34.5841 18.3455C34.649 18.3669 34.7136 18.3882 34.7786 18.4096C34.8437 18.1618 34.9194 17.9358 35.134 17.9862C35.1881 17.8512 35.0016 17.8371 35.1344 17.6628C35.0035 17.6196 34.874 17.5768 34.7445 17.5341C34.6322 17.7966 34.2448 17.5106 34.1936 17.8915C34.369 18.0245 34.3831 17.8381 34.5182 17.8905C34.4839 18.1177 34.3753 18.1983 34.2432 18.2329C34.036 18.2423 34.194 18.0675 34.0326 18.0549C33.9808 18.4094 33.6298 18.1678 33.531 18.429C33.4471 18.3496 33.493 18.204 33.3519 18.1538C33.1224 18.1011 33.0784 18.4174 32.8828 18.4312C32.8078 18.4006 32.8853 18.2942 32.7687 18.285C32.5953 18.3676 32.4855 18.6999 32.5757 18.8695C32.4211 18.7762 32.3347 18.8197 32.3173 18.9987C32.3929 19.056 32.6216 19.0355 32.5929 19.1445C32.3756 19.4799 32.1637 19.6897 32.1418 20.0201C32.124 19.84 31.931 19.7475 31.783 19.6329C31.9017 19.6262 31.9553 19.491 31.994 19.3247C31.5795 19.2547 31.2843 19.4198 30.7603 19.1331C30.7613 19.375 30.5696 19.2361 30.551 19.4424C30.5974 19.5945 30.6689 19.7339 30.6014 19.9444C30.6774 20.0003 30.9058 19.9791 30.8774 20.0888C30.6813 20.0219 30.6272 20.2379 30.5209 20.3495C30.4012 20.0448 30.361 19.7001 30.1136 19.4593C29.865 19.3934 29.7648 19.7424 29.8553 19.9143C29.6078 19.9031 29.7454 19.6985 29.4979 19.6888C29.4659 19.7858 29.4339 19.8827 29.4017 19.9801C29.1964 19.8414 29.1856 20.0873 28.9803 19.9485C29.0195 20.0528 29.0395 20.3762 28.8679 20.4516C28.6274 20.4098 28.6115 20.2559 28.4789 20.1609C28.5524 20.12 28.6468 20.1188 28.6557 19.9495C28.4415 19.8996 28.3653 20.1239 28.3007 20.3715C28.1435 20.3812 28.0132 20.4467 27.9116 20.5677C28.074 20.6213 28.236 20.6747 28.3984 20.7284C28.4315 20.6583 28.4407 20.5419 28.5116 20.5501C28.5669 20.5757 28.6528 20.5858 28.6413 20.6462C28.4403 20.668 28.5051 20.856 28.5287 20.9869C28.3097 20.9892 28.4101 20.8308 28.2698 20.794C28.2131 20.8692 28.2343 21.099 28.1246 21.0691C27.965 21.0273 27.9409 20.9187 27.9449 20.7942C27.8096 20.7407 27.7954 20.9276 27.621 20.7949C27.5828 20.9894 27.4686 21.0301 27.329 21.0226C27.2178 21.1602 27.4756 21.1116 27.3628 21.2493C27.1077 21.0398 27.1601 21.4376 27.0228 21.4612C26.9677 21.4352 26.8824 21.4232 26.8935 21.3643C27.2004 21.2145 26.9338 20.8755 27.2311 20.6662C27.0154 20.8022 26.7492 20.8369 26.5351 20.9761C26.4949 20.9018 26.4933 20.8084 26.3238 20.7983C26.1824 20.9641 26.529 20.8854 26.4704 21.009C26.1958 21.1622 26.0407 21.551 25.6935 21.5622C25.6819 21.4738 25.5642 21.4381 25.6118 21.3196C25.3996 21.3138 25.322 21.5408 25.1902 21.2885C25.154 21.4295 24.9945 21.3294 24.9969 21.5478C25.2429 21.6869 25.3783 21.6058 25.5643 21.6276C25.5718 21.7345 25.8168 21.9301 25.6624 21.9835C25.5775 21.9038 25.6251 21.7598 25.4833 21.7083C25.4915 21.8859 25.3144 21.6933 25.3224 21.8713C25.3257 22.0039 25.4089 22.0982 25.2904 22.2924C25.1604 22.2495 25.031 22.2068 24.901 22.1639C24.9227 22.0985 24.9439 22.034 24.9654 21.969C24.7965 22.0506 24.5662 21.9746 24.479 21.8085C24.4659 22.1596 24.2382 22.0839 23.9927 21.9721C23.9226 22.3185 23.3837 22.3645 23.3286 22.0223C23.4075 21.9382 23.5532 21.9857 23.6033 21.8436C23.2909 21.7588 23.0024 21.7231 22.8909 22.0402C23.026 22.0941 23.0404 21.9068 23.2153 22.0397C23.1727 22.1687 23.1296 22.299 23.0871 22.4279C22.9891 22.3956 22.8921 22.3636 22.7946 22.3314C22.8158 22.2675 22.8373 22.2025 22.8587 22.1375C22.6697 22.0569 22.5468 22.1098 22.4855 22.2842C22.5531 22.4809 22.7189 22.6274 22.7312 22.8507C22.3081 22.7659 22.2417 22.5023 21.92 22.3663C21.8769 22.4967 21.834 22.6267 21.7913 22.7561C21.5855 22.6171 21.575 22.8642 21.3691 22.7253C21.4026 22.9242 21.508 23.0874 21.5004 23.3078C21.4034 23.2758 21.306 23.2436 21.2086 23.2114C21.0871 23.4543 20.9806 23.726 20.7889 23.8276C20.9513 23.5571 20.8114 23.4384 20.8846 23.212C20.7187 23.1516 20.6938 23.3709 20.5274 23.3102C20.5854 23.2563 20.8792 23.0197 20.6558 22.9215C20.5702 23.1965 20.3697 23.4889 20.2365 23.2142C20.2042 23.3116 20.1718 23.41 20.1399 23.5065C20.3343 23.6244 20.4282 23.541 20.5607 23.5383C20.5154 23.7969 20.3107 23.7387 20.189 23.8463C20.1146 23.817 20.1919 23.7094 20.0756 23.7013C19.9094 23.7884 19.8334 24.0185 19.9148 24.1879C19.8498 24.1665 19.7844 24.1449 19.7199 24.1236C19.7413 24.0586 19.763 23.9932 19.7842 23.9287C19.6059 23.8427 19.5048 23.9101 19.4275 24.0271C19.4974 24.059 19.6126 24.0689 19.6059 24.1397C19.5645 24.2983 19.4548 24.3237 19.3313 24.3184C19.3634 24.221 19.3955 24.124 19.4275 24.0271C19.2896 23.9148 19.3379 24.1718 19.201 24.0598C19.1987 23.8409 19.3573 23.9408 19.3944 23.8001C19.2876 23.7314 19.0211 23.7447 19.0207 23.6225C19.1006 23.4312 19.2641 23.4074 19.4263 23.3779C19.34 23.5572 19.4068 23.658 19.5242 23.7344C19.539 23.5378 19.3999 23.4183 19.49 23.185C19.2396 23.1164 19.2452 23.5577 18.9065 23.3155C18.7615 23.6027 18.9879 23.7661 18.7137 23.899Z" fill="white"/>
</g>
</svg>
