<svg width="17" height="10" viewBox="0 0 17 10" fill="none" xmlns="http://www.w3.org/2000/svg">
<path fill-rule="evenodd" clip-rule="evenodd" d="M9.41842 9.61822C9.17898 9.86267 8.85427 10 8.51569 10C8.17711 10 7.8524 9.86267 7.61296 9.61822L0.389808 2.24185C0.267856 2.12156 0.170582 1.97768 0.103664 1.81859C0.0367451 1.65951 0.00152146 1.4884 4.82093e-05 1.31527C-0.00142504 1.14213 0.0308818 0.970431 0.095083 0.810182C0.159284 0.649933 0.254094 0.504345 0.373981 0.381914C0.493868 0.259484 0.636431 0.162663 0.793351 0.0970995C0.950272 0.0315363 1.11841 -0.00145527 1.28795 4.92329e-05C1.45749 0.00155374 1.62503 0.0375246 1.78082 0.105863C1.9366 0.174201 2.07749 0.273537 2.19528 0.398077L8.51569 6.85257L14.8361 0.398077C15.0769 0.160554 15.3995 0.0291241 15.7342 0.0320951C16.069 0.035066 16.3893 0.1722 16.626 0.41396C16.8628 0.655721 16.997 0.982765 17 1.32465C17.0029 1.66654 16.8742 1.99592 16.6416 2.24185L9.41842 9.61822Z" fill="white"/>
</svg>
