<svg width="14" height="26" viewBox="0 0 14 26" fill="none" xmlns="http://www.w3.org/2000/svg">
<path d="M9.24155 14.2003H8.74155V14.7003V24.6214H4.83748V14.7003V14.2003H4.33748H1.15942V10.2962H4.33748H4.83748V9.79621V6.36336C4.83748 4.60665 5.39116 3.30542 6.28309 2.44253C7.17802 1.57675 8.46648 1.10107 10.0299 1.10107C11.2364 1.10107 12.3899 1.17018 13.0326 1.22471V4.39214H11.6936C10.4068 4.39214 9.57929 4.70306 9.13332 5.36532C8.92138 5.68005 8.8282 6.03061 8.7842 6.3626C8.74152 6.6846 8.74154 7.02358 8.74155 7.32783V7.34417V9.79621V10.2962H9.24155H12.8922L11.9162 14.2003H9.24155Z" fill="white" stroke="white"/>
</svg>
