<svg width="25" height="25" viewBox="0 0 25 25" fill="none" xmlns="http://www.w3.org/2000/svg">
<path d="M22.0626 16.0289L24.7422 17.3695C25.0859 17.5414 25.0859 18.032 24.7422 18.2039L12.9175 24.1178C12.7879 24.1824 12.6451 24.2161 12.5003 24.2161C12.3555 24.2161 12.2127 24.1824 12.0832 24.1178L0.258456 18.2039C0.18121 18.1649 0.116291 18.1053 0.0709329 18.0317C0.0255743 17.958 0.00155713 17.8732 0.00155713 17.7867C0.00155713 17.7002 0.0255743 17.6154 0.0709329 17.5417C0.116291 17.4681 0.18121 17.4085 0.258456 17.3695L2.93964 16.0289L11.2472 20.1835C12.0363 20.5772 12.9659 20.5772 13.7534 20.1835L22.061 16.0274L22.0626 16.0289ZM12.0832 0.248084C12.2127 0.183433 12.3555 0.14978 12.5003 0.14978C12.6451 0.14978 12.7879 0.183433 12.9175 0.248084L24.7422 6.16043C24.8194 6.19962 24.8842 6.25941 24.9295 6.33318C24.9748 6.40696 24.9987 6.49183 24.9987 6.57839C24.9987 6.66495 24.9748 6.74982 24.9295 6.8236C24.8842 6.89737 24.8194 6.95716 24.7422 6.99635L12.9175 12.9071C12.7879 12.9718 12.6451 13.0054 12.5003 13.0054C12.3555 13.0054 12.2127 12.9718 12.0832 12.9071L0.258456 6.99635C0.180801 6.95757 0.115485 6.89792 0.0698332 6.8241C0.0241817 6.75027 0 6.66519 0 6.57839C0 6.49159 0.0241817 6.40651 0.0698332 6.33268C0.115485 6.25886 0.180801 6.19921 0.258456 6.16043L12.0832 0.248084Z" fill="white"/>
<path d="M22.0626 10.4244L24.7422 11.765C25.086 11.9369 25.086 12.4275 24.7422 12.5994L12.9175 18.5117C12.788 18.5764 12.6452 18.61 12.5004 18.61C12.3556 18.61 12.2127 18.5764 12.0832 18.5117L0.258485 12.5994C0.18124 12.5604 0.116321 12.5008 0.0709627 12.4271C0.0256041 12.3535 0.00158691 12.2687 0.00158691 12.1822C0.00158691 12.0957 0.0256041 12.0109 0.0709627 11.9372C0.116321 11.8636 0.18124 11.8039 0.258485 11.765L2.93967 10.4244L11.2473 14.579C12.0363 14.9727 12.966 14.9727 13.7535 14.579L22.0626 10.4244Z" fill="white"/>
</svg>
