<svg width="144" height="57" viewBox="0 0 144 57" fill="none" xmlns="http://www.w3.org/2000/svg">
<path d="M101.659 15.4221C105.602 15.4221 108.649 16.4975 110.979 18.6481C113.308 20.7985 114.383 23.666 114.383 27.2503V44.4547H109.366V40.5124H109.186C107.036 43.7385 103.989 45.3513 100.405 45.3513C97.3581 45.3513 94.6699 44.455 92.5195 42.6631C90.5481 40.871 89.2934 38.362 89.2934 35.6738C89.2934 32.8063 90.3691 30.4764 92.5195 28.6842C94.6699 26.8921 97.7166 26.1753 101.301 26.1753C104.527 26.1753 107.036 26.7131 109.007 27.9674V26.7131C109.007 25.0403 108.383 23.3677 107.134 22.2778L106.856 22.0534C105.423 20.7988 103.631 20.082 101.659 20.082C98.6127 20.082 96.283 21.3366 94.6699 23.8456L90.0105 20.9775C92.8777 17.214 96.6413 15.4221 101.659 15.4221ZM76.3902 3.23563C79.6058 3.23563 82.6618 4.35467 85.1052 6.44149L85.5302 6.81964C88.0391 8.97033 89.2934 12.1964 89.2934 15.6014C89.2934 19.0064 88.0391 22.0532 85.5302 24.3828C83.0209 26.7128 79.9744 27.9671 76.3902 27.9671L67.788 27.7879V44.455H62.4113V3.23535L76.3902 3.23563ZM102.376 30.4764C100.226 30.4764 98.4334 31.0139 96.9998 32.0892C95.5659 32.9853 94.8491 34.2396 94.8491 35.8525C94.8491 37.2864 95.5662 38.5407 96.6413 39.2578C97.8959 40.1539 99.3295 40.6914 100.763 40.6914C102.77 40.6914 104.778 39.9107 106.348 38.4953L106.677 38.1825C108.47 36.5696 109.366 34.5982 109.366 32.4475C107.753 31.1932 105.423 30.4761 102.376 30.4761L102.376 30.4764ZM76.7487 8.25353H67.788V22.591H76.7487C78.7198 22.591 80.6913 21.8742 81.9459 20.4406C84.8131 17.7523 84.8131 13.272 82.1251 10.5835L81.9459 10.4042C80.512 8.97061 78.7198 8.07454 76.7484 8.25381L76.7487 8.25353ZM143.416 16.3182L125.674 57H120.298L126.928 42.8421L115.28 16.4975H121.015L129.437 36.7486H129.617L137.861 16.4975H143.416V16.3182Z" fill="white"/>
<path d="M46.4612 24.2036C46.4612 22.5907 46.2819 20.9779 46.1027 19.365H23.7014V28.505H36.4254C35.8879 31.3722 34.275 34.0604 31.7661 35.6736V41.5875H39.4722C43.9526 37.4657 46.4615 31.3722 46.4615 24.2039L46.4612 24.2036Z" fill="#4285F4"/>
<path d="M23.7012 47.3224C30.1527 47.3224 35.5291 45.1717 39.4719 41.5875L31.7658 35.6735C29.6151 37.1071 26.9269 38.0032 23.7012 38.0032C17.6076 38.0032 12.2312 33.8813 10.4391 28.1464H2.55396V34.2396C6.67578 42.3043 14.7404 47.3224 23.7012 47.3224Z" fill="#34A853"/>
<path d="M10.4391 28.1464C9.36402 25.279 9.36402 22.0532 10.4391 19.0064V12.9132H2.55398C-0.851325 19.5443 -0.851325 27.4296 2.55398 34.2397L10.4391 28.1464Z" fill="#FBBC04"/>
<path d="M23.7011 9.32889C27.1061 9.32889 30.3319 10.5835 32.8411 12.9132L39.6512 6.10314C35.3498 2.16031 29.6151 -0.169371 23.8801 0.00961912C14.9194 0.00961912 6.67574 5.02779 2.73291 13.0924L10.6183 19.1857C12.2312 13.4507 17.6076 9.32889 23.7011 9.32889Z" fill="#EA4335"/>
</svg>
