<svg width="23" height="24" viewBox="0 0 23 24" fill="none" xmlns="http://www.w3.org/2000/svg">
<path d="M6.91704 21.4803C8.18374 21.54 8.63235 21.5467 11.517 21.5467C14.3298 21.5467 14.7966 21.5388 16.1155 21.4804L16.117 21.4803C17.041 21.4366 17.6937 21.3109 18.3114 21.0726C18.8422 20.8759 19.3225 20.5633 19.7172 20.1576C20.1484 19.727 20.4144 19.3126 20.6274 18.7597C20.8674 18.1382 20.9949 17.4849 21.0375 16.558C21.0972 15.2929 21.1039 14.8428 21.1039 11.9598C21.1039 9.14808 21.096 8.68012 21.0376 7.36122L21.0375 7.35972C20.9938 6.43554 20.8669 5.78055 20.6286 5.16403C20.4323 4.63457 20.1208 4.15541 19.7165 3.76123C19.3229 3.35515 18.843 3.04267 18.3124 2.8469C17.6934 2.60746 17.0406 2.48178 16.1167 2.43923C14.8513 2.37958 14.4037 2.37281 11.5181 2.37281C8.70643 2.37281 8.23847 2.38074 6.91957 2.43918L6.91813 2.43925L4.896 20.6026L4.71569 21.069C5.33936 21.3101 5.99252 21.4376 6.91704 21.4803ZM6.91704 21.4803L6.94057 20.9808L6.91751 21.4803C6.91736 21.4803 6.9172 21.4803 6.91704 21.4803ZM18.7785 1.66404L18.7767 1.66334C18.1105 1.40397 17.3402 1.2233 16.1779 1.16868L18.7785 1.66404ZM18.7785 1.66404C19.4659 1.9286 20.0376 2.28195 20.6176 2.86094L20.6203 2.86362M18.7785 1.66404L20.6203 2.86362M20.6203 2.86362C21.1461 3.38051 21.5529 4.00576 21.8125 4.69586L21.8125 4.69587M20.6203 2.86362L21.8125 4.69587M21.8125 4.69587L21.8143 4.70059M21.8125 4.69587L21.8143 4.70059M21.8143 4.70059C22.0729 5.36739 22.2545 6.13784 22.3092 7.30045C22.3621 8.5001 22.3768 8.87729 22.3768 11.9598C22.3768 15.0441 22.3654 15.4197 22.3092 16.6184C22.2546 17.7812 22.073 18.5509 21.8142 19.2192L21.8142 19.2192M21.8143 4.70059L21.8142 19.2192M21.8142 19.2192L21.8123 19.2242M21.8142 19.2192L21.8123 19.2242M21.8123 19.2242C21.5536 19.9143 21.1468 20.5394 20.6207 21.0555L20.6206 21.0555M21.8123 19.2242L20.6206 21.0555M20.6206 21.0555L20.6144 21.0618M20.6206 21.0555L20.6144 21.0618M20.6144 21.0618C20.0973 21.5875 19.472 21.9944 18.7819 22.2542L18.7819 22.2542M20.6144 21.0618L18.7819 22.2542M18.7819 22.2542L18.7773 22.256M18.7819 22.2542L18.7773 22.256M18.7773 22.256C18.1105 22.5145 17.34 22.6962 16.1786 22.7508L18.7773 22.256ZM4.2587 22.2558L4.25869 22.2559C4.92705 22.5146 5.69666 22.6963 6.85833 22.7509C6.85836 22.7509 6.85838 22.7509 6.8584 22.7509L6.83493 23.2503C8.0469 23.3071 8.43196 23.3185 11.5181 23.3185L4.2587 22.2558ZM4.2587 22.2558L4.25383 22.254M4.2587 22.2558L4.25383 22.254M4.25383 22.254C3.56371 21.9951 2.93857 21.5883 2.42225 21.0622L2.42231 21.0622M4.25383 22.254L2.42231 21.0622M2.42231 21.0622L2.41589 21.0559M2.42231 21.0622L2.41589 21.0559M2.41589 21.0559C1.89007 20.5391 1.48324 19.9138 1.22377 19.2237L1.2238 19.2237M2.41589 21.0559L1.2238 19.2237M1.2238 19.2237L1.22169 19.2183M1.2238 19.2237L1.22169 19.2183M1.22169 19.2183C0.962364 18.5522 0.781697 17.7821 0.727047 16.6188C0.673046 15.4195 0.659424 15.0428 0.659424 11.9598C0.659424 8.87541 0.670802 8.49987 0.727027 7.30114C0.781643 6.13673 0.962273 5.36859 1.22179 4.70098L1.22182 4.70099M1.22169 19.2183L1.22182 4.70099M1.22182 4.70099L1.22397 4.69527M1.22182 4.70099L1.22397 4.69527M1.22397 4.69527C1.48256 4.00513 1.88928 3.38007 2.41549 2.86406L2.41555 2.86412M1.22397 4.69527L2.41555 2.86412M2.41555 2.86412L2.42214 2.85741M2.41555 2.86412L2.42214 2.85741M2.42214 2.85741C2.93868 2.33146 3.56386 1.92468 4.25398 1.66548L4.25399 1.66551M2.42214 2.85741L4.25399 1.66551M4.25399 1.66551L4.25957 1.66334M4.25399 1.66551L4.25957 1.66334M4.25957 1.66334C4.92569 1.40401 5.69466 1.22337 6.85767 1.16871C8.05845 1.11582 8.43567 1.10107 11.5181 1.10107C14.6024 1.10107 14.978 1.11245 16.1778 1.16868L4.25957 1.66334ZM1.99758 7.36013C1.99758 7.36022 1.99758 7.3603 1.99757 7.36039L2.49704 7.38335L1.9976 7.35983C1.99759 7.35993 1.99759 7.36003 1.99758 7.36013ZM4.89941 3.3158L4.72708 2.84644C4.72554 2.847 4.72401 2.84757 4.72247 2.84813C4.72098 2.84871 4.71949 2.84929 4.718 2.84987L4.89941 3.3158ZM3.31915 3.76064C2.91349 4.15434 2.60121 4.63396 2.4053 5.16426L3.31915 3.76064ZM11.5181 8.05216C10.4818 8.05216 9.48784 8.46385 8.75502 9.19667C8.0222 9.92949 7.61051 10.9234 7.61051 11.9598C7.61051 12.9961 8.0222 13.99 8.75502 14.7229C9.48784 15.4557 10.4818 15.8674 11.5181 15.8674C12.5545 15.8674 13.5484 15.4557 14.2812 14.7229C15.014 13.99 15.4257 12.9961 15.4257 11.9598C15.4257 10.9234 15.014 9.92949 14.2812 9.19667C13.5484 8.46385 12.5545 8.05216 11.5181 8.05216ZM11.5181 6.78042C12.8918 6.78042 14.2092 7.3261 15.1805 8.29742C16.1518 9.26873 16.6975 10.5861 16.6975 11.9598C16.6975 13.3334 16.1518 14.6508 15.1805 15.6221C14.2092 16.5934 12.8918 17.1391 11.5181 17.1391C10.1445 17.1391 8.82709 16.5934 7.85577 15.6221C6.88445 14.6508 6.33877 13.3334 6.33877 11.9598C6.33877 10.5861 6.88445 9.26873 7.85577 8.29742C8.82709 7.3261 10.1445 6.78042 11.5181 6.78042ZM18.4013 5.99645C18.4013 6.24041 18.3044 6.47438 18.1319 6.64688C17.9594 6.81938 17.7254 6.91629 17.4814 6.91629C17.2375 6.91629 17.0035 6.81938 16.831 6.64688C16.6585 6.47437 16.5616 6.24041 16.5616 5.99645C16.5616 5.7525 16.6585 5.51854 16.831 5.34603C17.0035 5.17353 17.2375 5.07662 17.4814 5.07662C17.7254 5.07662 17.9594 5.17353 18.1319 5.34603C18.3044 5.51853 18.4013 5.7525 18.4013 5.99645Z" fill="white" stroke="white"/>
</svg>
