<svg width="105" height="105" viewBox="0 0 105 105" fill="none" xmlns="http://www.w3.org/2000/svg">
<path d="M97.5405 2H7.45946C6.01152 2 4.62289 2.57519 3.59904 3.59904C2.57519 4.62289 2 6.01152 2 7.45946V97.5405C2 98.9885 2.57519 100.377 3.59904 101.401C4.62289 102.425 6.01152 103 7.45946 103H97.5405C98.9885 103 100.377 102.425 101.401 101.401C102.425 100.377 103 98.9885 103 97.5405V7.45946C103 6.01152 102.425 4.62289 101.401 3.59904C100.377 2.57519 98.9885 2 97.5405 2Z" stroke="white" stroke-width="3" stroke-linecap="round" stroke-linejoin="round"/>
<path d="M42 48.1376V61.75C42 66.308 45.7636 70 50.404 70C55.047 70 58.8079 66.3053 58.8079 61.75M58.8079 61.75V48.1376M58.8079 61.75V70M76.1921 37V70M76.1948 62.9914L91.4104 48.1269M81.04 58.2591L93 69.9517" stroke="white" stroke-width="3" stroke-linecap="round" stroke-linejoin="round"/>
<path d="M67 40C68.1046 40 69 39.1046 69 38C69 36.8954 68.1046 36 67 36C65.8954 36 65 36.8954 65 38C65 39.1046 65.8954 40 67 40Z" fill="white"/>
<path d="M67 48V70" stroke="white" stroke-width="3" stroke-linecap="round" stroke-linejoin="round"/>
<path d="M34.0389 70.2432L22.9098 59.2478" stroke="white" stroke-width="3" stroke-linecap="round" stroke-linejoin="round"/>
<path d="M34.0389 47.7746C34.0389 41.6282 29.0562 36.6455 22.9097 36.6455C16.7633 36.6455 11.7806 41.6282 11.7806 47.7746V59.1139C11.7806 65.2604 16.7633 70.243 22.9097 70.243C29.0562 70.243 34.0389 65.2604 34.0389 59.1139V47.7746Z" stroke="white" stroke-width="3" stroke-linecap="round" stroke-linejoin="round"/>
</svg>
