<svg width="32" height="32" viewBox="0 0 32 32" fill="none" xmlns="http://www.w3.org/2000/svg">
<path d="M2.7333 20.3719L2.76664 20.5959L2.80131 20.5879C3.03823 21.6959 3.58402 22.7141 4.37552 23.5248C5.16702 24.3355 6.17188 24.9055 7.27384 25.1689C8.3758 25.4323 9.52982 25.3783 10.6024 25.0131C11.6749 24.648 12.6222 23.9866 13.3345 23.1055C14.0468 22.2245 14.4951 21.1597 14.6275 20.0345C14.76 18.9092 14.5711 17.7695 14.0827 16.7472C13.5944 15.7248 12.8266 14.8616 11.8681 14.2575C10.9096 13.6533 9.79964 13.3329 8.66664 13.3333C8.36931 13.3333 8.08397 13.3786 7.79997 13.4199C7.89197 13.1106 7.98664 12.7959 8.13864 12.5133C8.29064 12.1026 8.52797 11.7466 8.76397 11.3879C8.96131 10.9999 9.30931 10.7373 9.56531 10.4053C9.83331 10.0826 10.1986 9.86792 10.488 9.59992C10.772 9.31992 11.144 9.17992 11.44 8.98258C11.7493 8.80525 12.0186 8.60925 12.3066 8.51592L13.0253 8.21992L13.6573 7.95725L13.012 5.37192L12.216 5.56392C11.9613 5.62792 11.6506 5.70259 11.2973 5.79192C10.936 5.85859 10.5506 6.04125 10.1213 6.20792C9.69864 6.39858 9.20664 6.52525 8.75064 6.83058C8.29197 7.12125 7.76264 7.36392 7.29597 7.75325C6.84397 8.15458 6.29864 8.50259 5.89598 9.01192C5.45597 9.48925 5.02131 9.99058 4.68397 10.5613C4.29331 11.1053 4.02798 11.7026 3.74797 12.2933C3.49464 12.8839 3.29064 13.4879 3.12397 14.0746C2.80797 15.2506 2.66664 16.3679 2.61197 17.3239C2.56664 18.2813 2.59331 19.0773 2.64931 19.6533C2.66804 19.8938 2.69606 20.1335 2.7333 20.3719ZM17.4 20.3719L17.4333 20.5959L17.468 20.5879C17.7049 21.6959 18.2507 22.7141 19.0422 23.5248C19.8337 24.3355 20.8385 24.9055 21.9405 25.1689C23.0425 25.4323 24.1965 25.3783 25.269 25.0131C26.3416 24.648 27.2888 23.9866 28.0011 23.1055C28.7135 22.2245 29.1618 21.1597 29.2942 20.0345C29.4266 18.9092 29.2377 17.7695 28.7494 16.7472C28.2611 15.7248 27.4932 14.8616 26.5347 14.2575C25.5763 13.6533 24.4663 13.3329 23.3333 13.3333C23.036 13.3333 22.7506 13.3786 22.4666 13.4199C22.5586 13.1106 22.6533 12.7959 22.8053 12.5133C22.9573 12.1026 23.1946 11.7466 23.4306 11.3879C23.628 10.9999 23.976 10.7373 24.232 10.4053C24.5 10.0826 24.8653 9.86792 25.1546 9.59992C25.4386 9.31992 25.8106 9.17992 26.1066 8.98258C26.416 8.80525 26.6853 8.60925 26.9733 8.51592L27.692 8.21992C28.0933 8.05592 28.3226 7.95992 28.3226 7.95992L27.6773 5.37458L26.8813 5.56658C26.6266 5.63058 26.316 5.70525 25.9626 5.79459C25.6013 5.86125 25.216 6.04392 24.7866 6.21059C24.364 6.40125 23.872 6.52792 23.416 6.83325C22.9573 7.12392 22.428 7.36658 21.9613 7.75592C21.5093 8.15725 20.964 8.50525 20.5613 9.01458C20.1213 9.49192 19.6866 9.99325 19.3493 10.5639C18.9586 11.1079 18.6933 11.7053 18.4133 12.2959C18.16 12.8866 17.956 13.4906 17.7893 14.0773C17.4733 15.2533 17.332 16.3706 17.2773 17.3266C17.232 18.2839 17.2586 19.0799 17.3146 19.6559C17.3345 19.8955 17.363 20.1343 17.4 20.3719Z" fill="white"/>
</svg>
