<svg width="112" height="96" viewBox="0 0 112 96" fill="none" xmlns="http://www.w3.org/2000/svg">
<path fill-rule="evenodd" clip-rule="evenodd" d="M100.426 76.6678C99.71 77.2292 99.3732 78.0426 99.229 78.957C99.1499 79.4614 98.6894 79.5303 98.3434 79.619C98.0429 79.696 97.7666 79.7061 97.5238 79.9534C97.4242 80.0559 97.1107 80.0783 96.9796 79.9982C96.5591 79.7419 96.1088 79.5546 95.7209 79.2128C94.3552 78.0106 93.3533 76.5237 92.4159 75.0066C91.4594 73.4588 90.4583 71.9275 89.7258 70.2487C89.4981 69.7261 89.4889 69.7304 90.0622 69.3246C90.5285 70.2113 90.9631 71.1114 91.4664 71.9714C91.8656 72.6538 92.3484 73.2865 92.8347 74.0005C92.9491 73.7131 92.9464 73.5289 92.7688 73.2727C91.8016 71.8755 90.8834 70.4467 90.1552 68.8106C90.2715 68.7347 90.4121 68.6426 90.552 68.5517C90.5844 68.5794 90.6564 68.6418 90.7798 68.7486V68.166C91.1254 68.097 91.4387 68.035 91.8463 67.954C92.1642 68.1024 92.3153 68.665 92.8386 68.7347C92.8216 69.3038 93.3189 69.5874 93.5691 70.0032C93.8789 70.5187 94.2994 70.9677 94.5971 71.3487C94.9329 71.3041 95.1841 71.257 95.4381 71.2393C96.3284 71.1769 96.306 71.205 96.8605 71.694C97.4773 72.2373 97.8987 72.9976 98.6931 73.3428C98.7443 73.3648 98.8011 73.4426 98.8038 73.497C98.829 74.0687 99.149 74.2764 99.6858 74.4152C100.136 74.5319 100.264 75.0066 100.286 75.4736C100.302 75.8316 100.368 76.1873 100.426 76.6678Z" fill="white"/>
<path fill-rule="evenodd" clip-rule="evenodd" d="M20.9657 10.253C21.6031 10.572 21.6031 10.572 21.946 9.90428C22.3818 9.75478 22.9086 10.0557 23.3027 9.65533C23.7462 9.76595 24.184 9.91619 24.6341 9.97824C25.3607 10.0781 25.7361 10.6402 26.1464 11.1134C26.425 11.4348 26.7167 11.7573 26.9714 12.1064C27.2693 12.5148 27.6253 12.8802 27.9243 13.2875C28.1952 13.6566 28.4267 14.0554 28.6672 14.4461C28.7339 14.5548 28.8194 14.6869 28.8098 14.8009C28.784 15.1046 28.8892 15.3092 29.1049 15.5269C29.5199 15.9454 29.4875 16.5596 29.6316 17.0821C29.7654 17.5692 29.6887 18.1244 29.6456 18.645C29.6294 18.8438 29.6032 19.2681 29.1655 18.9552C29.1346 18.9328 28.9817 19.0958 28.8764 19.1575C28.7655 19.2222 28.5759 19.3459 28.5366 19.3116C28.075 18.9062 27.9624 19.196 27.7513 19.5967C27.4407 20.1866 27.2511 20.1431 26.4173 19.9944C25.9098 19.9035 25.372 19.8876 25.0748 19.4472C24.2714 18.2566 23.4484 17.074 23.337 15.552C23.2927 14.942 23.1223 14.3055 22.6191 13.8669C22.1856 13.489 21.8978 12.9487 21.306 12.7379C21.1275 12.6744 20.9969 12.4616 20.8582 12.3049C20.5634 11.9704 20.4051 11.5985 20.3973 11.1281C20.3892 10.6395 20.7753 10.53 20.9657 10.253Z" fill="white"/>
<path fill-rule="evenodd" clip-rule="evenodd" d="M89.0756 50.0496C88.5554 49.5294 88.1188 49.02 87.6098 48.5977C86.1499 47.3862 85.4566 45.6722 84.5834 44.0771C84.1912 43.3607 84.3033 42.5561 84.3203 41.7812C84.3234 41.6468 84.5091 41.5162 84.6178 41.3751C84.7661 41.6687 84.9052 41.9438 85.1083 42.3453V40.9108C85.4139 40.7594 85.7156 40.6769 85.9214 40.4896C86.1768 40.2573 86.4654 40.3032 86.6997 40.3621C86.9725 40.4307 87.2053 40.6585 87.4796 40.8326C87.3189 41.5855 87.6152 42.2159 87.9824 42.8729C88.3111 42.7839 88.6991 43.0174 89.0282 42.6799C89.0979 42.6081 89.3269 42.6024 89.4255 42.6617C90.2316 43.1469 91.2208 43.4043 91.6284 44.4C91.7016 44.5795 91.7829 44.8114 91.9301 44.8913C92.1521 45.0114 91.9528 45.3867 92.3339 45.4014C92.6476 45.4133 92.4472 45.7332 92.5034 45.9073C92.5732 46.1231 92.6684 46.3342 92.7061 46.5554C92.7408 46.7582 92.7135 46.9716 92.7135 47.182C91.9066 47.874 91.3879 48.7557 90.9903 49.7379C90.3449 49.8426 89.6898 49.9494 89.0756 50.0496Z" fill="white"/>
<path fill-rule="evenodd" clip-rule="evenodd" d="M1.55517 1.05699C1.74667 0.796129 1.8958 0.578805 2.0611 0.373812C2.1216 0.299444 2.21485 0.24704 2.30154 0.198489C2.54854 0.0601571 2.72502 0.451262 3.00129 0.280948C3.21785 0.147626 3.4714 0.0277897 3.71839 0.00389954C3.92338 -0.0157521 4.2274 0.231242 4.3376 0.151865C4.58306 -0.0249999 4.72987 -0.0781748 4.94334 0.161112C4.98303 0.20504 5.12829 0.171902 5.21884 0.149938C5.88854 -0.0115135 5.88816 -0.0134402 6.24651 0.637375C6.29545 0.496346 6.33783 0.374582 6.4149 0.15225C6.52086 0.438932 6.6249 0.642769 6.66883 0.858552C6.72277 1.12211 6.73587 1.39531 6.74821 1.66504C6.76091 1.93631 6.7509 2.20873 6.9031 2.4881L7.00483 1.47777C7.04066 1.47622 7.07689 1.47469 7.1131 1.47354C7.13276 1.65232 7.16744 1.83111 7.16859 2.01029C7.17437 2.91888 7.13161 3.8298 7.18324 4.73531C7.22909 5.53409 7.0923 6.25735 6.64108 6.91779C6.47192 6.75596 6.31163 6.5105 6.11896 6.902C5.9082 7.32971 5.57065 7.29734 5.13446 7.10121C5.06202 7.5663 5.02926 8.11462 4.259 7.93929V6.77446C4.20775 6.76444 4.15611 6.75403 4.10487 6.74363C3.98272 7.1409 3.86096 7.53817 3.73535 7.947C3.39124 7.71657 3.10919 7.47151 3.16506 6.98677C3.18048 6.85075 3.02172 6.70201 2.97047 6.5502C2.74891 5.88974 2.75238 5.88821 2.20406 5.87241C2.09925 5.86932 1.99444 5.87202 1.88963 5.87202H1.60179C1.33592 5.60615 1.09624 5.35068 0.840006 5.11332C0.293999 4.60893 0.120217 3.94116 0.032748 3.24718C-0.0104085 2.90309 0.0639593 2.54358 0.015023 2.20103C-0.0389226 1.82341 0.155667 1.54443 0.327522 1.27856C0.670077 0.748734 0.856959 0.733321 1.55517 1.05699Z" fill="white"/>
<path fill-rule="evenodd" clip-rule="evenodd" d="M62.8374 9.37396C62.3893 9.67835 61.9577 9.98349 61.508 10.2583C61.4645 10.2848 61.3081 10.1265 61.1392 10.0086C61.036 10.1939 60.9659 10.3639 60.8564 10.5026C60.7278 10.6663 60.5625 10.8012 60.4164 10.9518C60.1205 11.2567 59.8354 11.5961 59.398 11.1329C59.3644 11.0979 59.2628 11.1326 59.1937 11.1252C58.7025 11.0721 58.2343 11.1946 57.74 10.7993C57.3419 10.481 56.8352 10.261 56.461 9.87027C56.1104 9.50336 55.7474 9.15892 55.5027 8.69345C55.1275 7.97867 54.7567 7.27198 54.8904 6.43312C54.924 6.22274 55.0685 6.02969 55.1991 5.74802C55.4635 5.96457 55.6423 6.11099 55.851 6.28246C56.0222 5.71488 55.9871 5.0552 56.513 4.55505C56.7192 4.70918 56.9184 4.85792 57.1669 5.04365V4.27723C57.8575 4.15932 58.4848 3.92196 59.1768 3.96358C59.5737 3.98747 59.9167 4.11308 60.1678 4.35391C60.4907 4.66294 60.8861 4.88412 61.1497 5.28023C61.3878 5.63858 61.7134 5.93837 61.9635 6.30752C62.3738 6.9144 62.5126 7.62379 62.8127 8.26959C62.9561 8.57746 62.8374 9.00748 62.8374 9.37396Z" fill="white"/>
<path fill-rule="evenodd" clip-rule="evenodd" d="M18.3326 29.4636V31.7186C18.5419 31.1487 18.5056 30.573 18.5233 30.0004C18.5302 29.77 18.4212 29.4833 18.7006 29.3457C18.9892 29.2032 19.294 29.0621 19.6054 29.0163C19.7124 29.0005 19.9163 29.254 19.9772 29.4201C20.0427 29.5985 19.9922 29.8193 19.9922 30.0443C20.1663 29.9715 20.27 29.8871 20.3629 29.8975C20.5548 29.9191 20.8184 30.0967 20.9166 30.0251C21.4626 29.6232 22.061 29.8871 22.6255 29.8555C22.881 29.8412 23.2674 30.012 23.39 30.2192C23.6905 30.7299 24.2971 30.8859 24.615 31.4866C24.6254 31.7432 24.6592 32.0603 24.9259 32.4018C25.2754 32.8491 25.5736 33.4047 25.4653 34.0594C25.4149 34.3638 25.4565 34.6833 25.4565 35.0543C24.7402 35.4793 23.9949 35.8924 23.2805 36.3532C22.5331 36.8357 21.8529 36.5116 21.2168 36.1784C20.7524 35.9348 20.1294 35.8208 19.9725 35.1722C18.9344 34.7052 18.7499 33.6112 18.1958 32.7848C17.8232 32.2291 17.8347 31.5826 17.7292 30.9945C17.6421 30.5086 17.9851 29.9457 18.1376 29.417C18.2028 29.4324 18.2679 29.4482 18.3326 29.4636Z" fill="white"/>
<path fill-rule="evenodd" clip-rule="evenodd" d="M38.6657 40.8345C38.2234 40.3921 37.7545 39.9231 37.2266 39.3953C37.2266 39.0458 37.1904 38.6292 37.2451 38.225C37.2658 38.0748 37.4828 37.9229 37.6443 37.8347C37.7056 37.8008 37.8632 37.9434 37.978 38.0062C38.1305 37.704 38.2199 37.2953 38.7359 37.3946C38.8319 37.4135 38.9679 37.4193 39.0334 37.3665C39.2904 37.1584 39.5702 36.9461 39.8988 37.0375C40.488 37.2016 41.1446 37.2976 41.6039 37.704C42.5117 38.5083 43.3748 39.3822 43.8269 40.5436C44.0962 41.236 44.3393 41.9512 44.4695 42.6787C44.5262 42.9969 44.4403 43.4339 44.0777 43.6875C43.4808 44.1055 42.9063 44.5571 42.2963 44.9548C42.0886 45.09 41.7958 45.1836 41.5534 45.1624C40.0264 45.0302 38.9382 44.3117 38.487 42.5869C38.4211 42.3357 38.2635 42.0741 38.2974 41.839C38.3467 41.4988 38.5324 41.1778 38.6657 40.8345Z" fill="white"/>
<path fill-rule="evenodd" clip-rule="evenodd" d="M41.2858 78.8C41.2442 78.5893 41.2026 78.3789 41.161 78.1681C41.1583 79.0043 40.2755 79.3171 40.0832 80.0281C40.0146 80.2824 39.6386 80.3957 39.4828 80.2542C39.229 80.0246 39.0559 80.1923 38.9126 80.2855C38.5315 80.5336 38.2079 80.5098 37.8187 80.2824C36.697 79.6266 35.5398 79.0239 34.8787 77.8217C34.0818 77.3905 33.8487 76.5147 33.3535 75.8488C33.1127 75.5252 33.036 75.0793 32.868 74.6447C33.1608 74.2182 33.5862 74.331 34.1007 74.5877C34.051 74.3453 34.0644 74.1221 33.9627 73.9847C33.8221 73.7954 33.9724 73.7211 34.0521 73.6875C34.4143 73.5361 34.7888 73.4252 35.0871 73.1392C35.1599 73.0691 35.366 73.0969 35.494 73.1354C35.7225 73.2047 35.9183 73.3508 36.1721 73.1442C36.2442 73.0861 36.4785 73.2024 36.6257 73.2671C37.8907 73.8228 39.0356 74.5195 39.7846 75.7525C39.8856 75.919 40.1129 76.0955 40.2828 76.2538C40.7703 76.7066 40.8616 77.3662 41.2388 77.8545C41.4893 78.1793 41.4346 78.4644 41.2858 78.8Z" fill="white"/>
<path fill-rule="evenodd" clip-rule="evenodd" d="M105.073 29.8061C105.1 29.6124 105.128 29.4181 105.159 29.2047C105.235 29.2601 105.303 29.2821 105.32 29.3249C105.59 29.9838 105.926 30.6154 106.084 31.3201C106.184 31.7633 106.31 32.1875 105.881 32.5327C105.589 32.7678 105.886 33.4429 105.228 33.4051C104.919 33.9026 104.423 33.8529 103.948 33.8189C103.84 34.1519 103.774 34.4764 103.634 34.7657C103.477 35.0916 102.973 35.1837 102.433 35.0296C102.31 34.9946 102.191 34.8747 102.077 34.8848C101.203 34.961 101.205 34.9676 100.836 34.2778C100.653 33.9338 100.431 33.605 100.289 33.2448C100.115 32.8056 99.8457 32.5312 99.402 32.3416C98.7433 32.0599 98.3154 31.4888 98.2019 30.8095C98.0986 30.1945 98.387 29.6305 98.9359 29.1873C99.2075 29.5426 99.4792 29.8967 99.8597 30.3931C99.8597 29.8851 99.8541 29.5433 99.8615 29.202C99.868 28.8625 99.9052 28.9319 100.442 28.6899C100.826 28.5168 101.382 28.7264 101.603 28.1939C101.982 28.1793 102.36 28.1655 102.74 28.1508C103.44 28.1231 104.061 28.1993 104.387 28.9777C104.517 29.286 104.827 29.5187 105.073 29.8061Z" fill="white"/>
<path fill-rule="evenodd" clip-rule="evenodd" d="M1.47125 34.912C0.642025 34.7324 0.350719 34.1444 0.275194 33.6276C0.178478 32.9669 -0.0453964 32.3191 0.00816388 31.6205C0.0775225 30.7161 0.0725133 29.7987 0.00469595 28.8943C-0.0280567 28.4554 0.253616 28.1306 0.247065 27.7202C0.245525 27.6135 0.393875 27.407 0.464004 27.4112C1.005 27.442 1.26202 26.8564 1.82921 26.8528C2.20491 26.851 2.57867 26.4988 3.00022 26.2784C3.4156 26.6938 4.29915 26.18 4.63592 27.096C4.41552 27.7395 4.96461 28.3047 5.15071 28.964C5.17654 29.0561 5.27325 29.1383 5.27402 29.2253C5.28289 30.2637 5.27942 31.3018 5.27942 32.4297C5.11142 32.2806 5.03859 32.2162 4.85787 32.0555C4.91452 32.2995 4.90372 32.4864 4.98696 32.5495C5.07559 32.6174 5.26246 32.5422 5.38808 32.5842C5.4451 32.6031 5.47555 32.7537 5.48171 32.8469C5.4848 32.8897 5.39193 32.9842 5.35802 32.9772C5.10371 32.9275 4.85287 32.8582 4.57812 32.7895C4.39048 33.1957 4.1901 33.6292 4.0406 33.9532C3.7543 33.932 3.58321 33.919 3.41251 33.9063C3.71192 34.2083 3.36782 34.317 3.24336 34.5028C3.11659 34.6911 3.02372 34.9023 2.92315 35.09C2.26193 35.0183 2.01533 34.5922 1.83846 34.0277C1.71323 34.3297 1.60032 34.6006 1.47125 34.912Z" fill="white"/>
<path fill-rule="evenodd" clip-rule="evenodd" d="M78.8256 83.2375C78.2819 83.222 77.7675 83.0752 77.5047 83.6779C77.0608 83.0929 77.0084 82.6779 77.4604 82.2132C77.7725 81.8926 77.9783 81.4923 78.376 81.2152C78.7239 80.9725 78.8518 80.4357 79.1516 80.0939C79.382 79.8311 79.728 79.6693 80.0228 79.4632C80.1149 79.553 80.2143 79.6508 80.3711 79.8046C80.2047 79.9229 80.0413 80.0392 79.8775 80.1552C79.8957 80.1972 79.9142 80.2392 79.9322 80.2812C80.172 80.2434 80.4112 80.2057 80.6806 80.1633C80.7522 80.2708 80.8354 80.5467 81.0139 80.6395C82.0855 81.1975 82.7694 82.1288 83.4206 83.0848C83.6345 83.3985 83.7081 83.8043 83.8799 84.1515C84.3041 85.0096 84.4136 85.1679 84.2845 85.9479C84.1913 86.5115 84.0884 87.1127 83.6457 87.5719C83.4707 87.7531 83.2842 88.0147 83.2749 88.2467C83.2519 88.8324 82.9301 88.926 82.4569 88.8959C82.3247 88.8875 82.1848 88.9044 82.0562 88.9391C81.2308 89.1611 81.1456 89.1379 80.7341 88.5052C80.1245 87.5685 79.8333 86.4973 79.4787 85.4561C79.2283 84.7205 79.0371 83.9642 78.8256 83.2375Z" fill="white"/>
<path fill-rule="evenodd" clip-rule="evenodd" d="M65.4626 71.7085C64.8788 71.3771 64.2877 71.087 63.8119 70.6072C62.9252 69.7117 61.9735 68.8729 61.1555 67.9189C60.2954 66.9159 59.3849 65.9272 58.8658 64.7511C58.9205 64.2868 59.5255 64.78 59.537 64.2321C59.5406 64.0756 59.9239 63.9246 60.1366 63.7762C60.6646 63.4078 60.9594 63.3462 61.3439 63.7554C61.7234 64.1596 62.1623 64.3045 62.659 64.4097C63.4262 64.5723 63.9556 65.1614 64.6122 65.5241C65.3147 65.9117 65.8152 66.5359 66.3859 67.0781C66.6814 67.3586 67.0486 67.574 67.3025 67.8846C67.558 68.1971 67.7927 68.5728 67.8832 68.9569C67.938 69.1908 67.7623 69.5438 67.5835 69.7522C67.3627 70.0093 67.2582 70.3803 66.8718 70.5048C66.6482 70.5764 66.6799 70.8261 66.6363 71.0319C66.5862 71.2681 66.5203 71.5556 66.1104 71.2589C65.8236 71.0519 65.5824 71.3456 65.4626 71.7085Z" fill="white"/>
<path fill-rule="evenodd" clip-rule="evenodd" d="M107.769 65.6307C106.572 65.1374 106.056 64.2204 105.545 63.3292C105.095 62.5458 104.685 61.73 104.351 60.8912C104.017 60.0534 103.436 59.2597 103.695 58.2054C104.453 58.7334 104.39 59.7425 105.118 60.4172C104.985 59.3499 104.43 58.5253 104.154 57.4009C104.536 57.6105 104.675 57.6864 104.845 57.7793C104.878 57.5963 104.912 57.4044 104.946 57.2133C105.263 57.1531 105.575 57.0938 105.944 57.0237C106.042 57.1801 106.17 57.4113 106.323 57.6256C106.918 58.459 106.922 58.4551 108.002 58.8393C108.123 58.8825 108.235 58.9526 108.345 59.0219C109.181 59.5506 109.943 60.1464 110.404 61.0653C110.574 61.4052 110.806 62.0295 110.796 62.3912C110.793 62.476 110.864 62.5754 110.926 62.6471C111.084 62.8293 111.012 62.9847 110.85 63.0768C110.378 63.343 110.173 63.867 109.754 64.1806C109.575 64.3144 109.543 64.4924 109.511 64.7132C109.466 65.0138 108.876 65.4033 108.603 65.3402C108.432 65.3008 108.323 64.9887 108.091 65.2188C107.969 65.3398 107.877 65.49 107.769 65.6307Z" fill="white"/>
<path fill-rule="evenodd" clip-rule="evenodd" d="M73.7384 41.1408C73.5549 41.1712 73.3627 41.2028 73.0972 41.2467C73.202 41.4432 73.2768 41.5827 73.355 41.7292C72.856 42.2281 72.3365 42.7476 71.801 43.2835C71.7146 43.2835 71.6091 43.2678 71.5097 43.2858C70.3309 43.504 69.546 42.835 68.8914 42.0285C68.38 41.3986 67.9404 40.7046 67.5982 39.9474C67.3847 39.4746 67.194 39.0392 67.3466 38.3968C67.7042 39.1829 68.0229 39.8827 68.3415 40.5828C68.3982 40.5643 68.4548 40.5462 68.5119 40.5277C68.486 40.3944 68.4822 40.2514 68.4305 40.1289C68.2174 39.6225 67.9751 39.1278 67.7743 38.6173C67.6853 38.391 67.4946 38.1094 67.9805 38.0042C68.1303 37.9718 68.2183 37.6486 68.3327 37.457C68.4329 37.289 68.5299 37.1191 68.6093 36.9835C69.1006 36.9384 69.1053 37.368 69.4115 37.5453C69.3403 37.2748 69.269 37.0043 69.175 36.6482C69.3322 36.5238 69.5422 36.3573 69.7522 36.1904C69.8848 36.3223 70.0605 36.5322 70.2235 36.145C70.4003 35.7265 70.6616 35.5635 71.085 35.8382C71.1235 35.8633 71.2034 35.8826 71.2287 35.8618C71.7193 35.4576 72.0082 35.8603 72.2352 36.1692C72.777 36.908 73.0321 37.795 73.3565 38.6389C73.4328 38.8369 73.5989 39.302 73.0402 39.3243C73.0086 39.3255 72.9843 39.4993 72.9569 39.5925C73.0733 39.6206 73.2521 39.7108 73.2964 39.6661C73.6097 39.352 73.7785 39.7621 73.7476 39.8341C73.5592 40.2768 73.9958 40.7046 73.7384 41.1408Z" fill="white"/>
<path fill-rule="evenodd" clip-rule="evenodd" d="M69.9332 18.7167C70.0565 18.84 70.1802 18.9637 70.3679 19.151C70.4021 18.8539 70.4307 18.6089 70.4619 18.3414C70.8943 18.2509 71.3401 18.1368 71.7928 18.0698C72.0664 18.0293 72.3554 18.0304 72.6282 18.0725C72.8362 18.1048 72.6729 18.4925 73.0609 18.5264C73.3117 18.5483 73.5045 18.9745 73.6828 19.2712C73.8277 19.5121 73.6108 20.0334 74.161 20.0022C74.1799 20.3432 74.1987 20.6846 74.2185 21.0256C74.2199 21.0588 74.2277 21.0915 74.2327 21.1246L75.794 22.6859C75.9613 22.6859 76.1385 22.6644 76.3077 22.691C76.5685 22.733 76.8494 22.9915 76.7157 23.1518C76.4182 23.5082 76.9515 23.7545 76.74 24.0454C75.9273 24.2889 75.6711 24.3159 75.0099 24.2003C75.1755 24.5582 75.3197 24.8703 75.5008 25.2627C75.3952 25.364 75.2561 25.611 75.119 25.6102C74.2531 25.6037 73.3419 25.8233 72.57 25.2087C72.3608 25.0419 72.108 24.9112 71.9454 24.7074C71.5743 24.2427 71.2422 23.7468 70.9035 23.2567C70.7366 23.0151 70.5941 22.7561 70.4338 22.5095C70.1856 22.1277 70.2592 21.5774 69.8042 21.3042C69.8731 20.841 69.6119 20.4907 69.445 20.0912C69.2181 19.5483 69.3587 19.0288 69.9332 18.7167Z" fill="white"/>
<path fill-rule="evenodd" clip-rule="evenodd" d="M37.5014 3.13937C37.911 3.13937 38.1912 3.13899 38.4709 3.13937C38.8458 3.14015 39.2516 3.07734 39.3375 3.6191C39.3468 3.67922 39.487 3.77131 39.554 3.76168C39.998 3.69579 40.1132 4.11541 40.3848 4.29998C41.122 4.8009 41.2306 5.62588 41.4148 6.38883C41.52 6.82387 41.3794 7.13598 40.8842 7.43229C40.3285 7.76483 39.633 7.97136 39.2516 8.57555C38.9148 8.58211 38.6393 9.10884 38.2459 8.68729C38.1889 8.62642 38.0624 8.606 37.9688 8.60753C36.6425 8.63297 35.8125 7.87156 35.1194 6.85623C34.7675 6.34144 34.3271 5.88136 34.1892 5.2475C34.1325 4.9874 34.0994 4.72076 34.0809 4.45526C34.0743 4.36818 34.1256 4.21713 34.1865 4.19517C34.7201 4.00444 35.1081 3.54936 35.6256 3.36402C36.2637 3.13591 36.9462 3.06732 37.5014 3.13937Z" fill="white"/>
<path fill-rule="evenodd" clip-rule="evenodd" d="M35.8169 54.1131C35.9707 54.3547 36.0836 54.5327 36.3033 54.8783C36.3526 54.5124 36.3715 54.387 36.3857 54.2615C36.4319 53.845 36.4312 53.8457 36.9575 53.7921C37.0234 53.7852 37.1247 53.7941 37.1482 53.7567C37.3884 53.3783 37.7633 53.2724 38.1416 53.3864C38.5705 53.5155 39.031 53.6773 39.3647 53.9586C40.6667 55.056 41.4327 56.5268 42.0276 58.0873C42.1286 58.3536 42.0419 58.6912 42.0419 58.9917C41.8858 58.9744 41.7633 58.9609 41.6404 58.947C41.6669 59.3239 41.5818 59.6032 41.141 59.6923C41.0088 59.7193 40.8281 59.9165 40.815 60.0494C40.7707 60.5034 40.3044 60.2822 40.1418 60.5184C39.8822 60.105 39.4352 60.6054 39.1431 60.3099C38.8633 60.0271 38.4803 59.809 38.2954 59.4768C37.8881 58.7452 37.4981 57.9837 37.2596 57.1868C37.1378 56.7792 36.9572 56.5083 36.6431 56.3233C36.1333 56.024 35.7372 55.6444 35.4882 55.1049C35.2806 54.6545 35.2717 54.6588 35.8169 54.1131Z" fill="white"/>
<path fill-rule="evenodd" clip-rule="evenodd" d="M55.5119 41.8909C55.5119 41.7865 55.4869 41.6412 55.5207 41.511C55.5435 41.4239 55.6926 41.3646 55.7058 41.2809C55.72 41.1897 55.6128 41.0848 55.6117 40.9854C55.611 40.8972 55.735 40.7889 55.7108 40.7238C55.6664 40.604 55.567 40.493 55.4649 40.4097C55.3971 40.3543 55.2841 40.3534 55.1447 40.3157C55.2102 40.5434 55.2629 40.7269 55.3161 40.9107C54.9451 40.6844 54.5328 40.5041 54.7143 39.9589C54.8677 40.0244 55.0183 40.0895 55.2052 40.1697C55.2653 39.5135 54.6569 39.8549 54.4226 39.5443C54.7655 39.5847 54.994 39.3485 55.3388 39.3944C55.4988 39.4156 55.7069 39.0757 55.9519 38.8438C56.2922 39.1216 56.6736 39.4325 57.1199 39.7967C57.1634 39.5304 57.1946 39.3408 57.2324 39.11C57.7368 39.0125 58.2539 38.9127 58.7767 38.8118C59.0453 39.1548 59.2554 39.4676 59.5112 39.7369C59.7331 39.9697 60.0383 40.125 60.2522 40.3635C60.8556 41.037 61.1291 41.8875 61.3773 42.7286C61.4664 43.0296 61.5642 43.5058 60.9889 43.5864C60.9916 44.1389 60.409 44.2214 60.1462 44.5716C59.8168 45.0102 59.2341 45.0856 58.6053 44.8317C57.6635 44.4514 57.0447 43.7162 56.4432 43.0003C56.1423 42.6416 55.8044 42.3032 55.5119 41.8909Z" fill="white"/>
<path fill-rule="evenodd" clip-rule="evenodd" d="M72.83 55.5186C72.9996 55.5765 73.1634 55.632 73.351 55.696C73.3891 54.812 72.4756 54.5643 72.3484 53.7505C72.5334 53.8321 72.684 53.8668 72.7931 53.9535C72.968 54.093 73.1152 54.2664 73.3333 54.4844C73.2589 54.0414 73.2096 53.9396 72.9568 53.6364C73.5094 52.9682 73.5094 52.9682 74.1617 52.9659C74.5205 53.3702 74.8268 53.9026 75.2865 54.1831C75.794 54.4934 75.9435 55.0228 76.3177 55.4024C76.6752 55.7656 76.9126 56.2605 77.1495 56.7248C77.2798 56.9791 77.3904 57.3039 77.348 57.5713C77.294 57.9092 77.1499 58.406 76.911 58.5019C76.518 58.6602 76.6059 58.9381 76.4822 59.177C76.3127 59.5033 76.0806 59.8208 75.6552 59.891C75.4067 59.9318 75.1108 60.1214 74.9286 60.0393C74.485 59.8394 74.0268 59.5846 73.6989 59.2351C73.0801 58.5755 72.5268 57.8499 71.9973 57.1147C71.8644 56.9305 71.9257 56.6068 71.8864 56.2427C72.0628 56.3853 72.133 56.4416 72.2817 56.5614C72.2047 56.0254 72.6732 55.8415 72.83 55.5186Z" fill="white"/>
<path fill-rule="evenodd" clip-rule="evenodd" d="M67.3053 94.0594C67.0182 93.9012 66.8798 93.8258 66.7457 93.7514C66.5095 94.6054 66.451 94.6492 65.7532 94.3422C65.9373 94.771 66.0849 95.1143 66.2456 95.4864C66.0633 95.5925 65.8768 95.7013 65.6884 95.8101C65.3478 95.4706 65.0022 95.1245 64.6246 94.7468C64.3972 95.2585 65.0229 95.4957 64.9613 95.9897C64.3999 96.0678 64.0743 95.6864 63.751 95.3348C63.5745 95.1431 63.4789 94.8752 63.297 94.6901C62.4864 93.8668 61.7581 92.9772 61.0791 92.0447C61.0183 91.9612 60.9338 91.8941 60.8584 91.8216C60.4492 91.4313 60.0203 91.0541 59.9899 90.4179C60.3983 90.1679 60.6152 90.5532 60.893 90.7917C61.1754 90.3242 60.522 90.2618 60.5512 89.9173C60.5763 89.502 61.3666 90.0319 61.1658 89.3528H62.3037C62.6293 89.5822 62.9595 89.8091 63.2832 90.0445C63.608 90.2807 63.8226 90.6202 64.2203 90.8125C64.6064 90.9997 64.8622 91.4413 65.2022 91.7407C65.4237 91.9361 65.5643 92.2046 65.9185 92.2926C66.1747 92.3557 66.3114 92.7445 66.7007 92.6944C66.809 92.6802 67.0043 92.8759 67.0594 93.015C67.1646 93.2798 67.197 93.5737 67.3053 94.0594Z" fill="white"/>
<path fill-rule="evenodd" clip-rule="evenodd" d="M60.0848 23.7762C60.4462 23.8001 60.6959 23.6132 61.0265 23.8517C60.8585 23.9095 60.7368 23.9514 60.6039 23.9973C60.7279 24.4185 60.8659 24.837 60.9672 25.2639C60.993 25.3733 60.9356 25.5895 60.8597 25.6215C60.4381 25.7995 60.3106 26.253 59.9823 26.5015C59.8371 26.6118 59.6194 26.6476 59.4294 26.6692C59.3343 26.6796 59.2221 26.5359 59.1269 26.5459C59.0109 26.5582 58.9046 26.6595 58.7824 26.7289C58.6021 26.0915 58.6113 26.0658 57.9011 25.8237C57.4762 25.6789 57.3879 25.2612 57.0866 24.9984C57.0191 25.1421 56.954 25.2808 56.8813 25.4365C56.7752 25.3256 56.5969 25.2246 56.5973 25.1244C56.6027 23.8724 56.6014 23.8444 56.0301 23.0941C55.7079 23.6602 56.3252 23.9877 56.3587 24.5414C56.2058 24.5175 55.9772 24.5353 55.9507 24.4702C55.6821 23.8174 55.2729 23.2009 55.6925 22.4179C55.8227 22.1748 55.8462 22.0472 56.1387 22.0422C56.319 22.0395 56.5129 21.9335 56.6735 21.8318C57.09 21.5686 57.4912 21.282 57.9362 20.9787C58.038 21.1305 58.132 21.2712 58.1093 21.2369C58.4602 21.4815 58.8263 20.8226 58.8849 21.5097C58.9019 21.7046 59.3377 21.2395 59.3377 21.7501C59.3377 21.9474 59.7002 22.1451 59.8826 22.3273C59.8174 22.4961 59.7558 22.6571 59.6937 22.8182C59.7453 22.8541 59.797 22.8899 59.849 22.9257C59.9403 22.7519 60.0317 22.5781 60.1469 22.3597C60.3345 22.6787 60.4435 22.8633 60.5865 23.1057C60.4312 23.313 60.2582 23.5445 60.0848 23.7762Z" fill="white"/>
<path fill-rule="evenodd" clip-rule="evenodd" d="M24.7622 55.165C24.5202 54.8598 24.3287 54.6182 24.116 54.3493C24.0078 54.5708 23.9387 54.7115 23.849 54.8949C23.4448 54.7053 23.1727 54.3925 22.9412 54.066C22.4294 53.3443 22.0337 52.5483 21.5151 51.8254C21.196 51.3811 21.1771 50.8228 21.3031 50.2448C21.7821 50.1477 21.8858 50.7107 22.285 50.8528V49.8298C23.0394 49.7234 23.7665 49.6209 24.4331 49.5273C25.1325 50.1554 25.593 50.8339 25.9193 51.6177C26.1058 52.0643 26.49 52.3995 26.6067 52.9105C26.653 53.1124 26.394 53.384 26.7128 53.5343C26.7182 53.5366 26.618 53.7825 26.6148 53.7814C26.0947 53.5936 25.9197 54.3481 25.4192 54.2271C25.3868 54.2191 25.2982 54.4125 25.2485 54.5184C25.1934 54.6348 25.1687 54.7681 25.1008 54.8753C25.0508 54.9554 24.9537 55.0055 24.7622 55.165Z" fill="white"/>
<path fill-rule="evenodd" clip-rule="evenodd" d="M48.0376 67.8744C48.1878 68.222 48.2972 68.4751 48.4537 68.8362C48.5532 68.573 48.5989 68.4524 48.6475 68.3245C48.6946 68.3533 48.7716 68.3734 48.7816 68.4112C48.8764 68.7714 49.0475 69.0793 49.3076 69.3529C49.4633 69.5167 49.5757 69.7275 49.6817 69.9304C49.8686 70.29 50.1337 70.5354 50.563 70.6118C50.6304 70.4753 50.6998 70.3343 50.7322 70.2688C50.931 70.4175 51.1472 70.5798 51.3082 70.7004C51.3082 70.8313 51.3221 70.8876 51.3063 70.898C51.1159 71.0218 50.9213 71.1385 50.7437 71.2472C50.7953 71.5343 50.8416 71.7943 50.9114 72.1839C50.5965 72.0309 50.4243 71.9469 50.1761 71.8259C50.0386 72.1026 49.9006 72.3808 49.7522 72.6798C49.6113 72.6956 49.446 72.7149 49.2436 72.7376V73.2046C48.7157 73.6 48.2838 73.5467 47.8261 73.1294C47.3274 72.6748 46.7653 72.2906 46.2566 71.7493C46.4704 71.6078 46.677 71.4714 46.9036 71.3219C46.788 70.898 46.5802 70.5197 46.2809 70.1497C45.9815 69.7795 45.8173 69.2993 45.6019 68.8824C45.9098 68.5028 46.1529 68.7838 46.4354 68.9025C46.4473 68.7965 46.4962 68.6836 46.4627 68.6073C46.2519 68.1333 46.3433 67.8991 46.7899 67.8786C47.2091 67.859 47.6299 67.8744 48.0376 67.8744Z" fill="white"/>
<path fill-rule="evenodd" clip-rule="evenodd" d="M18.1294 72.0295C18.3055 72.29 18.4492 72.503 18.6288 72.7685C18.6754 72.6233 18.7394 72.5296 18.7247 72.4514C18.653 72.0719 18.5602 71.6965 18.4631 71.2684H19.0738C19.1266 71.3783 19.1913 71.5128 19.3193 71.779V70.9205C19.4388 70.8785 19.5404 70.8658 19.6117 70.813C19.7747 70.6916 20.0329 70.4161 20.0594 70.4377C20.3265 70.6573 20.6563 70.5247 20.9153 70.6242C21.3014 70.7722 21.6682 71.0303 21.6632 71.5227C21.6617 71.6699 21.4667 71.8337 21.496 71.9574C21.5199 72.0579 21.7896 72.0804 21.8702 72.194C21.936 72.2869 21.9414 72.5358 21.8736 72.5902C21.6012 72.8075 21.6613 73.0887 21.6798 73.3522C21.7033 73.6814 21.5592 73.8813 21.2671 73.9642C20.9549 74.0528 20.8822 74.2528 20.8166 74.5514C20.7238 74.9734 20.4344 75.2538 19.945 75.2331C19.7759 75.2261 19.6005 75.23 19.4364 75.2658C19.0187 75.3571 18.4924 75.2569 18.3621 74.9507C18.0443 74.2031 17.5841 73.4968 17.6697 72.6171C17.7032 72.2741 17.9097 72.1766 18.1294 72.0295Z" fill="white"/>
<path fill-rule="evenodd" clip-rule="evenodd" d="M51.8291 53.124C52.0904 53.2007 52.3631 53.2804 52.6984 53.3787C52.8406 53.04 52.8826 52.7148 52.5828 52.4123C52.9512 52.0774 53.1962 52.5822 53.5573 52.5275C53.5908 52.3453 53.6266 52.1533 53.6613 51.9653C53.9442 51.6624 54.1992 52.2212 54.541 51.9576C54.8905 51.6879 54.9787 52.2701 55.2759 52.3368C55.4427 52.3741 55.5988 52.548 55.7178 52.6943C56.1124 53.1783 56.174 53.863 56.7054 54.2858C56.8326 54.3867 56.7648 54.7339 56.7933 55.0425C56.2041 54.7531 56.1683 55.688 55.6007 55.4664C55.4261 55.7488 55.591 56.2609 54.9526 56.3222C54.8851 56.2073 54.7796 56.0274 54.6293 55.7708C54.5013 56.0379 54.4393 56.1673 54.3757 56.3007C54.0181 56.3854 53.8544 56.0771 53.7369 55.881C53.3465 55.2279 52.8409 54.7281 52.187 54.3374C51.7848 54.0969 51.564 53.7051 51.8291 53.124Z" fill="white"/>
<path fill-rule="evenodd" clip-rule="evenodd" d="M46.7161 25.2045C46.2202 25.5929 45.8546 25.8796 45.3825 26.2499H44.4997C44.156 25.7528 44.0443 25.0989 43.5376 24.6886C43.4844 23.9965 43.0058 23.5677 42.5901 23.0852C42.4579 22.9314 42.4864 22.6393 42.4302 22.3534C42.582 22.311 42.7322 22.3142 42.8108 22.2405C43.6173 21.4864 44.3772 21.9103 45.0199 22.4247C45.5686 22.8636 46.0318 23.4443 46.4205 24.0354C46.641 24.3702 46.6352 24.8539 46.7161 25.2045Z" fill="white"/>
</svg>
