<svg width="1136" height="880" viewBox="0 0 1136 880" fill="none" xmlns="http://www.w3.org/2000/svg">
<path d="M75.3878 459.402C69.6147 362.953 140.336 244.925 176.418 197.967C320.747 17.7802 757.013 19.7459 921.679 164.55C1086.35 309.355 1069.94 467.264 1064.7 505.267C1059.45 543.271 1039.77 632.381 898.062 738.528C756.357 844.674 360.765 790.29 287.289 769.323C213.812 748.356 82.6043 579.963 75.3878 459.402Z" stroke="black" stroke-opacity="0.22" stroke-linecap="round" stroke-linejoin="round"/>
<g clip-path="url(#clip0_2_3)">
<path d="M73.3877 458.678C77.6315 362.15 168.441 197.487 209.191 154.508C371.402 -9.80679 805.128 37.2057 953.918 198.241C1102.71 359.276 1070.04 514.644 1060.89 551.902C1051.73 589.159 1047.09 648.987 892.782 735.838C691.377 849.192 376.478 809.223 294.473 762.702C228.81 725.453 68.0829 579.338 73.3877 458.678Z" stroke="black" stroke-opacity="0.22" stroke-linecap="round" stroke-linejoin="round"/>
</g>
<defs>
<clipPath id="clip0_2_3">
<rect width="999" height="759" fill="white" transform="translate(72 51)"/>
</clipPath>
</defs>
</svg>
