<svg width="1136" height="880" viewBox="0 0 1136 880" fill="none" xmlns="http://www.w3.org/2000/svg" xmlns:xlink="http://www.w3.org/1999/xlink">
<path id="path_1" d="M1.38766 407.678C5.63145 311.15 96.4409 146.487 137.191 103.508C299.402 -60.8068 733.128 -13.7943 881.918 147.241C1030.71 308.276 998.043 463.644 988.892 500.902C979.733 538.159 975.095 597.987 820.782 684.838C619.377 798.192 304.478 758.223 222.473 711.702C156.81 674.453 -3.91707 528.338 1.38766 407.678Z" stroke="white" stroke-opacity="0.11" stroke-linecap="round" stroke-linejoin="round"/>
<path id="path_1" d="M1.38782 401.402C-4.38532 304.953 66.3359 186.925 102.418 139.967C246.747 -40.2198 683.013 -38.2541 847.679 106.55C1012.35 251.355 995.944 409.264 990.696 447.267C985.448 485.271 965.766 574.381 824.062 680.528C682.357 786.674 286.765 732.29 213.289 711.323C139.812 690.356 8.60425 521.963 1.38782 401.402Z" stroke="white" stroke-opacity="0.11" stroke-linecap="round" stroke-linejoin="round"/>
 <image id="img-1" href="img1.png" />
 <image id="img-1" href="img2.png" />
 <image id="img-1" href="img3.png" />
 <image id="img-1" href="img4.png" />
 <image id="img-1" href="img5.png" />
 <image id="img-1" href="img6.png" />
</svg>
