<svg width="24" height="19" viewBox="0 0 24 19" fill="none" xmlns="http://www.w3.org/2000/svg">
<path d="M20.4254 3.07858L20.7374 4.00596C21.1163 3.96158 21.4918 3.8956 21.8621 3.80851C21.516 4.15301 21.141 4.46958 20.7405 4.75444L20.5184 4.91238L20.5308 5.18457C20.5394 5.37316 20.5437 5.56517 20.5437 5.75513C20.5437 11.5929 16.0297 18.3043 7.78146 18.3043H7.78101C6.02514 18.3058 4.296 17.9491 2.70017 17.265C3.278 17.2105 3.85118 17.1057 4.41292 16.9511C5.65947 16.608 6.82551 16.0264 7.84424 15.2391L8.96991 14.3692L7.54752 14.3436C6.67694 14.3279 5.83397 14.0446 5.13666 13.5346C4.66 13.1859 4.26789 12.7435 3.98295 12.2393C4.46602 12.2466 4.94926 12.1873 5.41845 12.0621L5.38713 11.0886C4.44333 10.9007 3.59626 10.3977 2.98872 9.6668C2.54212 9.12953 2.24499 8.49335 2.11899 7.8199C2.60921 7.98772 3.1239 8.08202 3.64575 8.09821L5.41308 8.15306L3.93618 7.18082C2.8196 6.44578 2.08834 5.19404 2.08834 3.7813L2.08834 3.78058C2.08765 3.29908 2.17395 2.82302 2.34151 2.37408C3.46142 3.58296 4.79621 4.58304 6.28194 5.32406C7.99927 6.1806 9.88013 6.67199 11.8024 6.76662L12.4685 6.79941L12.3133 6.15086C12.1039 5.27603 12.1941 4.35757 12.5702 3.5378C12.9464 2.7179 13.5882 2.04159 14.3973 1.61547C15.2066 1.18928 16.1371 1.03781 17.0437 1.18533C17.9503 1.33284 18.7807 1.77073 19.4062 2.42927L19.595 2.62806L19.8642 2.57572C20.4471 2.46235 21.0181 2.29782 21.5698 2.08393C21.2566 2.47837 20.8699 2.81667 20.4254 3.07858Z" fill="white" stroke="white"/>
</svg>
